<svg id="Layer_1" data-name="Layer 1" xmlns="http://www.w3.org/2000/svg" xmlns:xlink="http://www.w3.org/1999/xlink" viewBox="0 0 280 300">
    <defs>
    <style>.cls-1{fill:url(#linear-gradient);}.cls-2{fill:url(#linear-gradient-2);}.cls-3{fill:url(#linear-gradient-3);}.cls-4{fill:url(#linear-gradient-4);}.cls-5{fill:url(#linear-gradient-5);}.cls-6,.cls-7{fill:#fff;}.cls-6{fill-rule:evenodd;}
    </style>
    <linearGradient id="linear-gradient" x1="-313.35" y1="11.93" x2="-173.1" y2="11.93" gradientTransform="translate(151.93 393.72) rotate(90)" gradientUnits="userSpaceOnUse"><stop offset="0.17" stop-color="#3f91cb"/>
        <stop offset="1" stop-color="#1b75bc"/>
    </linearGradient>
    <linearGradient id="linear-gradient-2" x1="156.17" y1="223.87" x2="174.46" y2="223.87" gradientTransform="matrix(1, 0, 0, 1, 0, 0)" xlink:href="#linear-gradient"/>
    <linearGradient id="linear-gradient-3" x1="189.09" y1="171.37" x2="219.69" y2="171.37" gradientTransform="matrix(1, 0, 0, 1, 0, 0)" xlink:href="#linear-gradient"/>
    <linearGradient id="linear-gradient-4" x1="184.04" y1="104.51" x2="214.23" y2="104.51" gradientTransform="matrix(1, 0, 0, 1, 0, 0)" xlink:href="#linear-gradient"/>
    <linearGradient id="linear-gradient-5" x1="60.31" y1="150" x2="171.8" y2="150" gradientTransform="matrix(1, 0, 0, 1, 0, 0)" xlink:href="#linear-gradient"/>
</defs>
    <title>GitHub gradient icon</title>
    <circle class="cls-1" cx="140" cy="150.5" r="70.13"/>
    <path class="cls-2" d="M172.07,219.77a75.45,75.45,0,0,1-14.6,5,1.69,1.69,0,0,0,.38,3.33,1.74,1.74,0,0,0,.39,0,78.59,78.59,0,0,0,15.25-5.26,1.68,1.68,0,1,0-1.42-3Z"/>
    <path class="cls-3" d="M217.69,132.66a1.66,1.66,0,0,0-2-1.26,1.68,1.68,0,0,0-1.27,2,76.45,76.45,0,0,1-24.73,75,1.68,1.68,0,0,0,1.09,3,1.71,1.71,0,0,0,1.1-.41,79.85,79.85,0,0,0,25.82-78.33Z"/>
    <path class="cls-4" d="M211,122.37a1.7,1.7,0,0,0,2.18.95,1.69,1.69,0,0,0,1-2.19,79.81,79.81,0,0,0-27.41-35.22,1.68,1.68,0,0,0-2,2.73A76.42,76.42,0,0,1,211,122.37Z"/>
    <path class="cls-5" d="M127.94,225.86A76.33,76.33,0,1,1,169.46,80.05a1.68,1.68,0,1,0,1.31-3.1,79.71,79.71,0,1,0-43.36,152.24l.27,0a1.69,1.69,0,0,0,.26-3.35Z"/>
    <path class="cls-6" d="M140,118.25a32.56,32.56,0,0,0-10.26,63.45c1.63.3,2.22-.71,2.22-1.56v-6.06c-9.06,1.95-11-3.85-11-3.85-1.48-3.76-3.61-4.77-3.61-4.77-3-2,.22-2,.22-2a6.85,6.85,0,0,1,5,3.35c2.9,5,7.62,3.54,9.48,2.74a6.85,6.85,0,0,1,2.07-4.35c-7.24-.82-14.85-3.63-14.85-16.11a12.57,12.57,0,0,1,3.37-8.72,11.68,11.68,0,0,1,.31-8.62s2.74-.88,9,3.34a30.91,30.91,0,0,1,16.31,0c6.11-4.25,8.85-3.37,8.85-3.37a11.63,11.63,0,0,1,.32,8.62,12.53,12.53,0,0,1,3.35,8.73c0,12.51-7.61,15.26-14.86,16.07a7.78,7.78,0,0,1,2.2,6v8.93c0,.86.59,1.87,2.25,1.56A32.56,32.56,0,0,0,140,118.25Z"/>
    <path class="cls-7" d="M119.77,165c0,.17-.32.21-.55.1s-.37-.33-.3-.49.33-.21.56-.1S119.85,164.83,119.77,165Z"/>
    <path class="cls-7" d="M121.09,166.46c-.15.15-.46.08-.67-.15a.5.5,0,0,1-.09-.67c.16-.15.45-.09.67.15S121.26,166.32,121.09,166.46Z"/>
    <path class="cls-7" d="M122.38,168.35c-.21.13-.53,0-.73-.29s-.2-.64,0-.78.52,0,.73.27A.6.6,0,0,1,122.38,168.35Z"/>
    <path class="cls-7" d="M124.13,170.15a.62.62,0,0,1-.83-.12c-.28-.26-.37-.64-.18-.84a.62.62,0,0,1,.83.13C124.23,169.58,124.32,170,124.13,170.15Z"/>
    <path class="cls-7" d="M126.57,171.21a.67.67,0,0,1-.83.25c-.36-.1-.6-.41-.53-.67s.45-.36.82-.26S126.63,171,126.57,171.21Z"/>
    <path class="cls-7" d="M129.22,171.4c0,.27-.3.49-.68.49s-.72-.21-.72-.47.31-.49.7-.5.7.22.7.48Z"/>
    <path class="cls-7" d="M131.71,171a.67.67,0,0,1-.62.6c-.38.07-.72-.08-.76-.34s.22-.54.6-.61A.64.64,0,0,1,131.71,171Z"/>
</svg>