<svg width="121" height="120" viewBox="0 0 121 120" fill="none" xmlns="http://www.w3.org/2000/svg">

<!--   logo -->

    <g id="cat-face">
        <path d="M4.5 2.2c-3.5 2.2-3.4 25.5.8 33l26.1-16c-4-7.1-23.6-19-26.9-17" fill="#4c5359">

        </path>

        <path d="M9.5 11.3c-1.5.9-2.2 16.2.4 21l16.7-10.2c-2.4-4.6-15.7-11.6-17.1-10.8" fill="#f7a4a4">

        </path>

        <path d="M59.5 2.2c3.5 2.2 3.4 25.5-.7 33l-26.1-16c3.9-7.1 23.5-19 26.8-17" fill="#4c5359">

        </path>

        <path d="M54.5 11.3c1.5.9 2.2 16.2-.4 21L37.3 22.1c2.5-4.6 15.8-11.6 17.2-10.8" fill="#f7a4a4">

        </path>

        <path d="M31.8 13.1C4.7 13.1 2.2 32.5 2.2 43.5C2.2 48 15.4 62 31.8 62c16.4 0 29.6-14 29.6-18.5c0-11-2.5-30.4-29.6-30.4" fill="#4c5359">

        </path>

        <path d="M24.2 38.7s-3.1 4.8-8.8 3.3c-5.7-1.5-6-7.2-6-7.2s3.1-4.8 8.8-3.3c5.8 1.5 6 7.2 6 7.2" fill="#bfffab">

        </path>

        <path d="M23.6 36.2s-2.7 3-6.5 3c-4.1 0-6.5-5.9-6.5-5.9s2.7-3.1 7.6-1.9c4.5 1.2 5.4 4.8 5.4 4.8" fill="#93e67f">

        </path>

        <path d="M19.4 36.1c0 6.6-3.2 6.6-3.2 0c.1-6.6 3.2-6.6 3.2 0" fill="#4c5359">

        </path>

        <path d="M39.4 38.7s3.1 4.8 8.8 3.3c5.7-1.5 6-7.2 6-7.2s-3.1-4.8-8.8-3.3c-5.8 1.5-6 7.2-6 7.2" fill="#bfffab">

        </path>

        <path d="M39.9 36.2s2.7 3 6.5 3c4.1 0 6.5-5.9 6.5-5.9s-2.7-3.1-7.6-1.9c-4.5 1.2-5.4 4.8-5.4 4.8" fill="#93e67f">

        </path>

        <path d="M44.1 36.1c0 6.6 3.2 6.6 3.2 0s-3.2-6.6-3.2 0" fill="#4c5359">

        </path>

        <path d="M40.4 44c-2.6-2-5.4-8.7-8.6-8.7S25.7 42 23.1 44c-4.1 3.2-15 6.8-15 6.8S19.7 61 31.7 61s23.6-10.2 23.6-10.2c.1 0-10.8-3.6-14.9-6.8" fill="#ffffff">

        </path>

        <ellipse cx="31.8" cy="54.5" rx="1.7" ry="2.5" fill="#ff94a4">

        </ellipse>

        <g fill="#4c5359">

            <path d="M40.2 53.1c-1 .6-2.1.8-3.1.8c-1.1-.1-2.1-.4-2.9-1.1c-.8-.6-1.4-1.5-1.6-2.6l-.8-4.5l-.8 4.5c-.2 1-.8 1.9-1.6 2.6c-.8.7-1.9 1-2.9 1.1c-1.1 0-2.2-.2-3.1-.8c-1-.6-1.8-1.5-2.2-2.7c.1 1.3.7 2.5 1.7 3.4c1 .9 2.3 1.4 3.5 1.4c1.4.1 2.7-.3 3.8-1.1c.6-.4 1.1-1 1.5-1.6c.4.6.9 1.2 1.5 1.6c1.1.8 2.5 1.2 3.8 1.1c1.3-.1 2.6-.6 3.6-1.4c1-.9 1.7-2.1 1.7-3.4c-.3 1.1-1.1 2.1-2.1 2.7">

            </path>

            <path d="M35.8 44.8c-.8-1-3.3-1.1-4-1.1c-.7 0-3.2.1-4 1.1c-.6.7-.1 2.5 1.4 4c1 1 1.9 1.3 2.6 1.3c.7 0 1.7-.3 2.6-1.3c1.5-1.6 2-3.3 1.4-4">

            </path>

        </g>
    </g>

    <g id="japanese-cat">
        <g>
            <g>
                <path style="fill:#030104;" d="M11.704,23.455c0,0-1.494-0.515-1.253,1.092c0.243,1.604,1.158,2.907-0.288,3.534
			c-1.446,0.626-2.795,1.529-1.494,2.09c0.852,0.367,2.023,0.768,2.922,1.432c0.099-2.479,1.157-4.808,2.181-6.504L11.704,23.455z"
                />
                <path style="fill:#030104;" d="M38.94,40.423c-0.677,0.012-1.331-0.09-1.812-0.188c-0.479-0.1-0.789-0.197-0.789-0.197
			s1.316,0.113,2.53-0.189c0.603-0.138,1.164-0.4,1.407-0.656c0.057-0.064,0.105-0.119,0.124-0.168
			c0.007-0.008,0.003-0.008,0.006-0.014c-0.024-0.638-0.089-1.332-0.214-2.061c-0.398,0.113-0.831,0.169-1.254,0.174
			c-0.678,0.012-1.331-0.09-1.811-0.188c-0.48-0.1-0.789-0.197-0.789-0.197s1.315,0.113,2.529-0.189
			c0.442-0.102,0.86-0.27,1.149-0.453c-0.313-1.32-0.843-2.688-1.734-3.918c-0.374-0.517-0.621-1.551-0.868-2.312
			c-2.123-2.353-5.406-6.777-4.839-11.138c0.08-0.613,0.173-1.225,0.265-1.837c0.166-1.092,0.336-2.221,0.427-3.33
			c0.159-1.956-0.31-3.167-1.357-4.989l-0.073-0.129c-0.428-0.742-0.961-1.68-1.172-2.632c-0.055,0.066-0.113,0.132-0.168,0.197
			c-0.277,0.289-0.588,0.529-0.826,0.694c-0.246,0.154-0.41,0.257-0.41,0.257s0.142-0.131,0.353-0.327
			c0.202-0.204,0.453-0.491,0.656-0.803c0.091-0.161,0.19-0.316,0.241-0.473c0.033-0.068,0.05-0.135,0.063-0.198
			c-0.003-0.07,0.007-0.139,0.009-0.208c-0.731-1.045-1.56-2.244-1.986-2.919C28.143,1.313,27.451,0,26.211,0
			c-1.129,0-2.714,1.089-4.988,4.707c0,0-0.038,0.006-0.086,0.014c0.086,0.071,0.172,0.142,0.251,0.227
			c0.229,0.228,0.424,0.505,0.613,0.784c0.173,0.288,0.338,0.58,0.458,0.87c0.13,0.285,0.208,0.568,0.286,0.806
			c0.14,0.483,0.164,0.819,0.164,0.819s-0.054-0.066-0.135-0.188c-0.073-0.125-0.203-0.293-0.325-0.501
			c-0.255-0.408-0.594-0.952-0.934-1.496c-0.296-0.455-0.59-0.906-0.877-1.225c-0.401,0.084-0.951,0.223-1.519,0.426
			c0.025,0.042,0.048,0.078,0.074,0.123c0.222,0.391,0.49,0.922,0.697,1.476c0.214,0.552,0.367,1.127,0.461,1.566
			c0.093,0.44,0.111,0.749,0.111,0.749s-0.192-0.243-0.415-0.634c-0.222-0.39-0.489-0.922-0.697-1.476
			c-0.213-0.552-0.366-1.127-0.46-1.566c-0.011-0.052-0.018-0.096-0.027-0.145C18.471,5.49,18.095,5.677,17.776,5.9
			c-0.003,0.43,0.077,0.965,0.159,1.503c0.108,0.632,0.215,1.264,0.296,1.739c0.047,0.237,0.061,0.449,0.09,0.591
			c0.02,0.145,0.024,0.23,0.024,0.23s-0.206-0.267-0.422-0.721c-0.1-0.229-0.23-0.493-0.322-0.792
			c-0.103-0.296-0.174-0.624-0.236-0.954c-0.045-0.334-0.083-0.671-0.063-0.993c0.005-0.214,0.041-0.412,0.087-0.6
			c-0.594-0.108-2.014-0.336-3.483-0.336c-2.395,0-4.903,0.607-4.102,3.332c1.105,3.757,1.786,4.727,2.079,5.653
			c0.071,0.025,0.15,0.047,0.241,0.053c0.161,0.034,0.346,0.024,0.531,0.024c0.371-0.022,0.745-0.099,1.022-0.173
			c0.275-0.086,0.458-0.144,0.458-0.144s-0.171,0.091-0.426,0.228c-0.262,0.126-0.624,0.277-1.012,0.375
			c-0.197,0.037-0.394,0.086-0.593,0.084c-0.038,0.004-0.074-0.002-0.111-0.002c0.026,0.148,0.044,0.304,0.052,0.479
			c0.072,1.518,0.723,5.783,4.12,7.301c0,0-0.964,1.042-1.948,2.671c-1.048,1.734-2.114,4.135-2.064,6.652
			c0.036,1.818,0.66,3.695,2.293,5.43c-0.016-0.023-0.028-0.041-0.028-0.041s0.076,0.035,0.208,0.095
			c0.322,0.147,0.639,0.267,0.961,0.361c-0.015-0.056-0.031-0.115-0.042-0.164c-0.041-0.158-0.059-0.269-0.059-0.267
			c-0.005-0.029,0.012-0.05,0.035-0.047c0.009,0,0.017,0.004,0.025,0.01c0,0,0.089,0.065,0.211,0.172
			c0.062,0.053,0.136,0.115,0.208,0.183c0.091,0.087,0.152,0.16,0.195,0.243c0.205,0.033,0.416,0.049,0.632,0.049
			c-0.007-0.025-0.014-0.045-0.022-0.076c-0.028-0.095-0.05-0.188-0.068-0.267c-0.041-0.158-0.059-0.269-0.059-0.267
			c-0.005-0.029,0.012-0.05,0.035-0.047c0.009,0,0.017,0.004,0.025,0.01c0,0,0.089,0.065,0.211,0.172
			c0.062,0.053,0.136,0.115,0.208,0.183c0.099,0.095,0.163,0.173,0.206,0.267c0.217-0.025,0.436-0.061,0.632-0.142
			c0.114-0.047,0.229-0.084,0.338-0.12c0.221-0.066,0.392-0.203,0.524-0.253c0.129-0.063,0.206-0.095,0.206-0.095
			s-0.046,0.068-0.134,0.184c-0.601,0.783-1.585,1.184-2.566,1.027c-0.256-0.041-0.54-0.114-0.774-0.227
			c-0.269-0.131-0.49-0.297-0.695-0.486c-0.174,0.889-0.949,8.56,2.548,10.253c0.027-0.206,0.107-0.405,0.191-0.552
			c0.089-0.153,0.193-0.25,0.193-0.25s0.079,0.119,0.129,0.287c0.048,0.17,0.084,0.393,0.055,0.607
			c-0.004,0.039-0.019,0.074-0.026,0.112c0.189,0.052,0.389,0.087,0.6,0.106c0-0.05-0.006-0.1,0.001-0.15
			c0.022-0.215,0.11-0.424,0.197-0.576c0.089-0.153,0.193-0.25,0.193-0.25s0.079,0.119,0.129,0.288
			c0.048,0.17,0.084,0.392,0.055,0.606c-0.003,0.031-0.015,0.06-0.021,0.09c0.889-0.035,1.943-0.33,3.208-0.987
			c0,0,1.487,0.219,3.668,0.219c1.575,0,3.512-0.114,5.513-0.508c0,0,1.2,0.705,2.737,0.839c-0.022-0.072-0.046-0.145-0.056-0.221
			c-0.031-0.215,0.002-0.438,0.049-0.607c0.048-0.17,0.125-0.29,0.125-0.29s0.105,0.095,0.195,0.248
			c0.09,0.152,0.18,0.358,0.204,0.575c0.017,0.107,0.017,0.217,0.007,0.322c0.217-0.002,0.438-0.019,0.662-0.049
			c-0.044-0.109-0.08-0.226-0.095-0.349c-0.032-0.215,0.001-0.438,0.048-0.608c0.045-0.168,0.122-0.289,0.122-0.289
			s0.106,0.096,0.196,0.248c0.089,0.152,0.179,0.359,0.203,0.576c0.017,0.11,0.016,0.223,0.005,0.332
			c1.706-0.427,3.458-1.92,4.341-5.857c0,0,0.145-0.78,0.18-1.969C39.961,40.352,39.442,40.416,38.94,40.423z M32.119,34.378
			c0,0.535-0.434,0.969-0.969,0.969s-0.969-0.434-0.969-0.969s0.434-0.969,0.969-0.969C31.686,33.409,32.119,33.842,32.119,34.378z
			 M28.485,37.997c0.929-0.305,1.849-0.637,2.789-0.898c0.427-0.119,0.711,0.162,0.78,0.59c0.078,0.479-0.293,0.857-0.936,0.912
			c0.113-0.336,0.205-0.609,0.33-0.98C30.396,37.739,29.521,38.448,28.485,37.997z M25.465,36.542
			c-0.265-0.059-0.541-0.068-0.815-0.1c-0.519,0.82-1.369,1.215-2.107,0.438c1.142-0.047,1.615-0.768,1.797-1.776
			c0.058,0.015,0.116,0.028,0.175,0.043c0.112,0.228,0.225,0.455,0.347,0.701c1.606,0.076,1.893,0.229,1.947,1.064
			c0.049,0.74-0.47,1.375-1.244,1.52c-0.476,0.088-0.879-0.24-1.071-0.812c0.398-0.042,0.837-0.019,1.213-0.16
			c0.182-0.067,0.247-0.448,0.364-0.687C25.87,36.694,25.674,36.589,25.465,36.542z M24.159,41.354
			c-0.283-0.332-0.494-0.578-0.781-0.912C24.229,40.405,24.359,40.554,24.159,41.354z M26.641,35.084
			c-0.67,0.026-1.364,0.065-2.007-0.082c-0.432-0.101-0.791-0.508-1.241-0.817c1.201,0,2.214-0.027,3.224,0.022
			c0.196,0.01,0.376,0.323,0.564,0.495C27.001,34.836,26.825,35.077,26.641,35.084z M26.837,26.542
			c0.111,0.336,0.301,0.786,0.627,1.157c0.114,0.166,0.271,0.301,0.431,0.426c-0.28,0.138-0.591,0.222-0.923,0.222
			c-1.165,0-2.109-0.945-2.109-2.109c-0.001-1.166,0.943-2.11,2.108-2.11c1.166,0,2.109,0.944,2.109,2.108
			c0,0.6-0.252,1.137-0.652,1.521c-0.045-0.022-0.088-0.047-0.133-0.071c-0.152-0.101-0.348-0.17-0.504-0.313
			c-0.342-0.257-0.574-0.629-0.765-0.899c-0.156-0.305-0.26-0.509-0.26-0.509c-0.006-0.012-0.019-0.018-0.032-0.015
			c-0.016,0.003-0.026,0.019-0.022,0.035C26.712,25.983,26.762,26.206,26.837,26.542z M26.595,33.356
			c-0.313-0.498,0.372-0.599,0.72-0.668c0.214-0.043,0.491-0.034,0.687-0.139c0.082-0.043,0.625-0.633,0.437-0.684
			c-0.503-0.137-1.054-0.123-1.556-0.264c-0.065-0.451,1.295-0.881,1.62-1.013c0.209-0.085,0.508,0.05,0.766,0.084
			c-0.051,0.255-0.076,0.519-0.156,0.763c-0.066,0.199-0.197,0.377-0.3,0.565c0.052,0.052,0.104,0.103,0.155,0.155
			c0.047,0.047,0.899-0.274,1.035-0.273c0.186,0.002,1.043,0.295,0.662,0.649c-0.146,0.135-0.383,0.218-0.589,0.235
			c-0.553,0.045-0.899,0.021-1.009,0.617c-0.16,0.87,0.117,1.576-0.249,2.428c-0.073-0.014-0.146-0.026-0.22-0.039
			c-0.051-0.836-0.104-1.672-0.155-2.521C28.453,33.449,26.85,33.763,26.595,33.356z M30.161,36.752
			c0.039,0.156-0.141,0.526-0.237,0.532c-0.567,0.035-0.777-0.352-0.899-0.928C29.562,36.249,30.015,36.168,30.161,36.752z
			 M29.623,13.231c0.008-0.002,0.016,0.002,0.018,0.01c0.002,0.007-0.002,0.014-0.008,0.017c0,0-0.728,0.317-1.404,0.708
			c-0.346,0.188-0.666,0.397-0.93,0.524c-0.266,0.125-0.47,0.182-0.47,0.182c-0.007,0.003-0.016,0-0.02-0.007
			c-0.002-0.005,0-0.012,0.002-0.016c0,0,0.127-0.156,0.36-0.35c0.117-0.094,0.254-0.208,0.418-0.303
			c0.162-0.097,0.354-0.159,0.537-0.237C28.853,13.426,29.623,13.231,29.623,13.231z M28.754,11.678
			c0.008-0.004,0.017-0.002,0.021,0.005c0.004,0.006,0.002,0.014-0.003,0.019c0,0-0.615,0.5-1.161,1.059
			c-0.282,0.274-0.535,0.561-0.754,0.755c-0.221,0.192-0.403,0.301-0.403,0.301c-0.006,0.005-0.016,0.005-0.021-0.002
			c-0.003-0.004-0.003-0.011-0.002-0.016c0,0,0.081-0.185,0.252-0.434c0.088-0.122,0.19-0.269,0.322-0.404
			c0.129-0.136,0.298-0.248,0.453-0.373C28.066,12.073,28.754,11.678,28.754,11.678z M24.978,11.92
			c0.005-0.117,0.083-0.211,0.128-0.323c0.109-0.22,0.317-0.388,0.494-0.563c0.21-0.144,0.404-0.3,0.627-0.376
			c0.109-0.041,0.2-0.102,0.312-0.113c0.105-0.019,0.203-0.037,0.295-0.054c0.178-0.036,0.319-0.003,0.421-0.01
			c0.101,0.003,0.158,0.004,0.158,0.004c0.016,0,0.029,0.014,0.028,0.03c0,0.014-0.011,0.025-0.022,0.028
			c0,0-0.057,0.013-0.156,0.036c-0.094,0.031-0.25,0.036-0.397,0.112c-0.149,0.073-0.318,0.135-0.48,0.262
			c-0.176,0.097-0.313,0.266-0.46,0.409c-0.109,0.182-0.227,0.345-0.292,0.523c-0.104,0.157-0.179,0.315-0.257,0.455
			c-0.094,0.136-0.118,0.27-0.182,0.361c-0.049,0.093-0.088,0.15-0.088,0.15c-0.008,0.016-0.027,0.023-0.043,0.015
			c-0.005-0.003-0.012-0.011-0.015-0.015c0,0-0.028-0.057-0.057-0.164c-0.027-0.105-0.079-0.268-0.06-0.458
			C24.947,12.133,24.962,12.03,24.978,11.92z M21.666,17.077c0.119-0.038,0.266-0.06,0.401-0.125
			c0.142-0.055,0.259-0.15,0.356-0.252c0.076-0.122,0.131-0.247,0.151-0.388c0.028-0.132,0.017-0.269,0.027-0.377
			c-0.005-0.083-0.01-0.152-0.014-0.214c-0.334-0.066-0.672-0.303-0.758-0.453c-0.126-0.22,0.34-0.159,0.74-0.388
			c0.4-0.23,0.584-0.661,0.71-0.442c0.093,0.162,0.125,0.629-0.022,0.958c0.049,0.047,0.092,0.092,0.152,0.132
			c0.113,0.086,0.24,0.135,0.38,0.168c0.14,0.004,0.29-0.011,0.43-0.073c0.141-0.049,0.261-0.137,0.372-0.195
			c0.204-0.151,0.34-0.251,0.34-0.251s-0.113,0.128-0.282,0.321c-0.099,0.082-0.201,0.198-0.345,0.287
			c-0.139,0.1-0.314,0.167-0.515,0.2c-0.201,0.003-0.398-0.031-0.564-0.107c-0.046-0.018-0.075-0.042-0.116-0.064
			c-0.007,0.045-0.014,0.092-0.022,0.145c-0.039,0.14-0.063,0.305-0.138,0.471c-0.063,0.171-0.179,0.335-0.323,0.474
			c-0.165,0.118-0.336,0.195-0.506,0.222c-0.164,0.038-0.319,0.029-0.447,0.04c-0.256-0.016-0.426-0.027-0.426-0.027
			S21.416,17.115,21.666,17.077z M21.119,23.66c0.296-0.059,0.616-0.122,0.955-0.19c0.332-0.097,0.681-0.194,1.041-0.281
			c0.36-0.088,0.731-0.174,1.111-0.245c0.378-0.077,0.742-0.223,1.118-0.324c0.377-0.101,0.753-0.201,1.124-0.3
			c0.356-0.137,0.711-0.259,1.061-0.372c0.354-0.108,0.695-0.21,1-0.351c0.309-0.133,0.617-0.238,0.902-0.34
			c0.531-0.259,1.029-0.432,1.341-0.6c0.336-0.148,0.53-0.255,0.53-0.255s-0.08,0.199-0.299,0.508
			c-0.205,0.332-0.568,0.719-1.035,1.18c-0.246,0.205-0.519,0.425-0.821,0.64c-0.295,0.232-0.624,0.444-0.988,0.617
			c-0.181,0.095-0.378,0.187-0.567,0.281c-0.201-0.047-0.405-0.079-0.62-0.079c-0.826,0-1.557,0.382-2.05,0.97
			c-0.115,0.026-0.229,0.059-0.346,0.072c-0.417,0.053-0.831,0.089-1.229,0.12c-0.399,0.031-0.784,0.049-1.147,0.06
			c-0.365-0.016-0.711-0.075-1.027-0.116c-1.268-0.17-2.074-0.439-2.074-0.439S19.93,23.9,21.119,23.66z M18.772,18.217
			c-0.265,0.124-0.63,0.24-0.994,0.389c-0.731,0.277-1.436,0.639-1.436,0.639c-0.007,0.004-0.016,0.001-0.02-0.006
			c-0.003-0.006-0.001-0.014,0.005-0.019c0,0,0.638-0.472,1.354-0.825c0.177-0.092,0.346-0.201,0.523-0.265
			c0.177-0.066,0.352-0.101,0.499-0.133c0.298-0.057,0.499-0.057,0.499-0.057c0.008,0,0.015,0.007,0.015,0.015
			c0,0.005-0.005,0.011-0.008,0.013C19.209,17.968,19.036,18.091,18.772,18.217z M16.008,15.247
			c0.066-0.078,0.123-0.211,0.258-0.332c0.068-0.063,0.141-0.132,0.219-0.205c0.076-0.083,0.179-0.12,0.277-0.183
			c0.194-0.134,0.435-0.197,0.675-0.28c0.246-0.038,0.505-0.105,0.746-0.062c0.117,0.031,0.239,0.024,0.336,0.09
			c0.098,0.052,0.19,0.101,0.275,0.147c0.163,0.098,0.264,0.237,0.332,0.321c0.068,0.087,0.098,0.143,0.098,0.143
			c0.008,0.016,0.002,0.035-0.014,0.043c-0.005,0.003-0.016,0.004-0.021,0.003c0,0-0.069-0.003-0.173-0.018
			c-0.111-0.002-0.233-0.062-0.398-0.068c-0.159-0.021-0.331-0.055-0.519-0.064c-0.182-0.054-0.383-0.057-0.594-0.077
			c-0.202,0.034-0.419,0.043-0.602,0.126c-0.199,0.055-0.349,0.153-0.497,0.23c-0.149,0.074-0.246,0.196-0.327,0.253
			c-0.077,0.066-0.121,0.103-0.121,0.103c-0.012,0.01-0.031,0.009-0.041-0.003c-0.009-0.01-0.009-0.025-0.002-0.036
			C15.917,15.376,15.95,15.329,16.008,15.247z M15.625,16.945c-0.008,0.001-0.015-0.005-0.016-0.013
			c-0.001-0.007,0.004-0.014,0.011-0.016c0,0,0.766-0.207,1.562-0.275c0.198-0.021,0.396-0.061,0.584-0.056
			c0.189,0.003,0.364,0.034,0.513,0.058c0.298,0.055,0.486,0.129,0.486,0.129c0.008,0.003,0.011,0.011,0.008,0.019
			c-0.002,0.005-0.008,0.008-0.013,0.01c0,0-0.206,0.051-0.498,0.072c-0.292,0.019-0.674-0.006-1.067,0
			C16.413,16.864,15.625,16.945,15.625,16.945z M20.359,44.895c-0.135-0.063-0.304-0.182-0.533-0.264
			c-0.112-0.042-0.233-0.088-0.361-0.136c-0.121-0.062-0.273-0.058-0.411-0.099c-0.279-0.086-0.59-0.08-0.895-0.111
			c-0.304,0.031-0.615,0.023-0.895,0.109c-0.137,0.043-0.293,0.039-0.408,0.098c-0.126,0.046-0.244,0.09-0.354,0.131
			c-0.227,0.078-0.413,0.21-0.545,0.271c-0.133,0.068-0.214,0.102-0.214,0.102s0.049-0.073,0.143-0.189
			c0.109-0.103,0.201-0.305,0.427-0.447c0.113-0.076,0.235-0.159,0.364-0.247c0.129-0.103,0.283-0.144,0.442-0.204
			c0.16-0.051,0.321-0.137,0.501-0.141c0.177-0.021,0.358-0.041,0.538-0.062c0.18,0.021,0.361,0.041,0.538,0.06
			c0.18,0.004,0.341,0.09,0.501,0.141c0.158,0.061,0.316,0.104,0.439,0.201c0.126,0.086,0.246,0.168,0.356,0.242
			c0.224,0.14,0.333,0.357,0.439,0.457c0.095,0.117,0.141,0.188,0.141,0.188S20.491,44.963,20.359,44.895z M18.404,35.935
			c-5.277-3.107-1.952-9.035-1.952-9.035c1.373-2.53,2.747-1.084,5.783,2.818c0.228,0.293,0.395,0.579,0.534,0.86
			c-0.035,0.026-0.078,0.042-0.099,0.083c0,0-0.067,0.128-0.174,0.266c-0.097,0.155-0.262,0.344-0.448,0.527
			c-0.167,0.206-0.396,0.33-0.553,0.453c-0.164,0.117-0.273,0.195-0.273,0.195s0.125-0.047,0.313-0.115
			c0.185-0.076,0.461-0.145,0.687-0.303c0.241-0.135,0.478-0.289,0.641-0.438c0.064-0.05,0.101-0.084,0.141-0.12
			C24.015,34.319,19.797,36.567,18.404,35.935z M23.346,43.442c-0.21,0.168-0.589,0.156-0.893,0.158
			c-0.105,0-0.285-0.192-0.295-0.309c-0.008-0.1,0.157-0.261,0.28-0.316c0.268-0.119,0.567-0.166,0.837-0.28
			c0.27-0.115,0.522-0.277,0.781-0.419c0.046,0.043,0.091,0.084,0.137,0.125C23.917,42.756,23.687,43.169,23.346,43.442z
			 M24.733,44.211c-0.07-0.003-0.141-0.005-0.211-0.008c0-0.339-0.008-0.679,0.002-1.017c0.011-0.345,0.041-0.688,0.064-1.059
			c-0.553-0.111-1.005-0.193-1.451-0.301c-0.147-0.036-0.278-0.139-0.599-0.307c0.585,0,0.984-0.055,1.362,0.012
			c0.601,0.104,0.806-0.131,0.768-0.696c-0.017-0.253-0.003-0.508-0.003-0.759c-0.4-0.198-0.794-0.393-1.188-0.587
			c0.016-0.046,0.032-0.093,0.047-0.14c0.283,0,0.581,0.056,0.843-0.017c0.224-0.062,0.408-0.271,0.59-0.399
			c0.136,0.139,0.273,0.334,0.459,0.451c0.176,0.11,0.403,0.137,0.608,0.199c0.004,0.069,0.007,0.139,0.011,0.208
			c-0.28,0.084-0.559,0.168-0.949,0.285c-0.023,0.397-0.049,0.864-0.076,1.36c0.814,0.152,1.614-0.357,2.447,0.195
			c-0.776,0.713-1.694,0.125-2.43,0.521C24.75,42.784,25.237,43.591,24.733,44.211z M26.374,40.688
			c-0.231,0.194-0.463,0.389-0.694,0.582c-0.101-0.084-0.201-0.17-0.302-0.256c0.151-0.259,0.302-0.517,0.453-0.774
			C26.012,40.392,26.193,40.54,26.374,40.688z M28.025,44.088c-0.336,0.066-0.773,0.114-1.035-0.049
			c-0.634-0.397-1.19-0.919-1.778-1.39c0.047-0.071,0.094-0.143,0.14-0.213c0.351,0.197,0.683,0.449,1.057,0.578
			c0.435,0.15,0.911,0.178,1.363,0.287c0.2,0.049,0.387,0.162,0.581,0.246C28.246,43.737,28.166,44.06,28.025,44.088z
			 M30.791,44.647c-0.201,0.619-0.924,0.904-1.541,0.82c-0.334-0.045-0.683-0.133-0.82-0.438c-0.008-0.017-0.014-0.034-0.021-0.052
			c-0.396-1.152,0.995-1.392,1.704-1.461C30.761,43.454,30.97,44.102,30.791,44.647z M29.91,40.715
			c0.768-0.28,1.381-0.173,1.61,0.291c0.182,0.368-0.142,1.286-0.599,1.601c-0.513,0.353-1.082,0.479-1.631,0.11
			c-0.5-0.334-0.789-0.796-0.515-1.425c-0.397-0.045-0.731-0.082-1.083-0.123c0.65-0.484,1.21-0.888,1.743-1.322
			c0.049-0.039-0.068-0.283-0.085-0.344c0.258-0.175,0.49-0.333,0.724-0.49c-0.038-0.059-0.075-0.117-0.114-0.176
			c-0.428,0.023-0.766,0.121-0.968,0.623c-0.176,0.438-0.538,0.736-1.075,0.514c0.174-0.217,0.328-0.445,0.487-0.662
			c-0.739-0.244-0.878-0.619-0.56-1.476c0.222,0.543,0.389,0.951,0.588,1.437c0.176-0.235,0.359-0.453,0.585-0.613
			c0.356-0.254,0.899-0.27,1.366-0.323c0.064-0.007,0.248,0.381,0.242,0.582c-0.008,0.204-0.181,0.404-0.215,0.826
			c0.492-0.083,0.983-0.179,1.479-0.243c0.18-0.023,0.369,0.025,0.555,0.04c-0.066,0.158-0.091,0.36-0.206,0.466
			c-0.522,0.487-1.16,0.617-1.793,0.301c-0.538-0.269-0.746-0.059-0.978,0.483C29.679,40.757,29.8,40.754,29.91,40.715z
			 M37.559,43.632c-0.171-0.035-0.394-0.126-0.677-0.154c-0.141-0.018-0.291-0.035-0.451-0.055c-0.156-0.035-0.328,0.012-0.5,0.004
			c-0.344-0.015-0.698,0.086-1.057,0.141c-0.171,0.061-0.343,0.121-0.512,0.181c-0.176,0.046-0.322,0.146-0.477,0.224
			c-0.143,0.092-0.319,0.137-0.432,0.242c-0.127,0.094-0.248,0.182-0.359,0.264c-0.23,0.162-0.393,0.371-0.521,0.482
			c-0.125,0.121-0.202,0.186-0.202,0.186s0.036-0.094,0.111-0.252c0.096-0.146,0.146-0.397,0.361-0.623
			c0.105-0.116,0.219-0.244,0.34-0.379c0.115-0.149,0.277-0.238,0.438-0.354c0.166-0.104,0.32-0.244,0.521-0.303
			c0.192-0.075,0.388-0.15,0.583-0.227c0.207-0.031,0.414-0.062,0.619-0.094c0.203-0.049,0.408-0.003,0.602,0.004
			c0.193,0.02,0.385,0.018,0.553,0.089c0.168,0.056,0.326,0.109,0.473,0.158c0.293,0.085,0.484,0.289,0.637,0.366
			c0.145,0.099,0.22,0.16,0.22,0.16S37.726,43.675,37.559,43.632z"/>
                <path style="fill:#030104;" d="M29.907,43.761c-0.037,0.17-0.032,0.348-0.042,0.512c-0.127-0.108-0.287-0.248-0.513-0.442
			c-0.212,0.334-0.388,0.61-0.562,0.887c0.021,0.08,0.043,0.159,0.063,0.238c0.435-0.026,0.88-0.005,1.293-0.11
			c0.106-0.029,0.142-0.451,0.153-0.695c0.008-0.15-0.086-0.309-0.157-0.451C30.134,43.681,29.916,43.722,29.907,43.761z"/>
                <path style="fill:#030104;" d="M29.963,42.183c0.352-0.201,0.656-0.482,0.978-0.737c-0.164-0.144-0.328-0.288-0.372-0.327
			c-0.66-0.02-1.057,0.115-1.062,0.638C29.506,41.905,29.904,42.217,29.963,42.183z"/>
                <circle style="fill:#030104;" cx="18.495" cy="30.171" r="0.795"/>
                <path style="fill:#030104;" d="M32.412,8.286c0.059,0.101,0.108,0.195,0.163,0.293c0.292,0.522,0.542,1.011,0.74,1.492
			c0.328,0.794,0.517,1.584,0.549,2.506c0.011,0.327,0.011,0.665-0.021,1.034c-0.017,0.213-0.045,0.425-0.066,0.637
			c-0.161,1.524-0.428,3.037-0.627,4.557c-0.03,0.227-0.021,0.455-0.03,0.683c-0.003,0.09-0.012,0.179-0.012,0.269
			c0,3.007,1.741,6.059,3.664,8.463c0.202,0.252,0.403,0.496,0.608,0.733c0.181,0.211,0.36,0.416,0.541,0.612
			c0.023,0.027,0.049,0.056,0.072,0.082c-0.434-0.474-0.172-2.627-0.093-3.365c0.126-1.174,0.399-2.325,0.687-3.469
			c0.472-1.885,0.867-3.796,1.062-5.727c-0.062,0.022-0.126,0.047-0.193,0.057c-0.191,0.054-0.394,0.059-0.594,0.076
			c-0.4,0.008-0.789-0.041-1.074-0.093c-0.283-0.064-0.472-0.107-0.472-0.107s0.192,0.007,0.479,0.017
			c0.287-0.002,0.668-0.027,1.032-0.104c0.179-0.05,0.359-0.088,0.505-0.164c0.159-0.054,0.269-0.154,0.356-0.214
			c0.003-0.005,0.005-0.005,0.008-0.009c0.048-0.603,0.075-1.208,0.077-1.815c-0.102,0.045-0.206,0.084-0.318,0.102
			c-0.191,0.054-0.394,0.059-0.594,0.076c-0.4,0.008-0.789-0.041-1.075-0.093c-0.282-0.064-0.471-0.107-0.471-0.107
			s0.192,0.007,0.479,0.017c0.287-0.006,0.668-0.032,1.031-0.108c0.178-0.05,0.359-0.088,0.506-0.164
			c0.158-0.054,0.268-0.154,0.355-0.214c0.02-0.034,0.036-0.053,0.059-0.068c0.01,0.001,0.016-0.016,0.022-0.032
			c-0.002-0.071,0.001-0.142-0.002-0.213c-0.122-3.618-0.503-8.212-3.992-10.284c-0.578-0.343-1.438-0.583-2.263-0.583
			c-1.125,0-2.182,0.449-2.346,1.696c-0.002,0.008,0,0.016-0.002,0.023c-0.02,0.163-0.017,0.33-0.002,0.5
			c0.021,0.231,0.071,0.466,0.143,0.703C31.552,6.809,32.043,7.641,32.412,8.286z M33.853,4.477c0.009,0.001,0.017,0.004,0.025,0.01
			c0,0.001,0.09,0.067,0.211,0.173c0.062,0.052,0.136,0.114,0.207,0.182c0.19,0.181,0.506,0.398,0.521,0.681
			c0.018,0.304-0.13,0.519-0.432,0.33c-0.269-0.167-0.367-0.508-0.442-0.796c-0.028-0.095-0.05-0.187-0.067-0.268
			c-0.041-0.156-0.06-0.267-0.06-0.267C33.814,4.496,33.83,4.475,33.853,4.477z M32.868,5.082c0.009,0.001,0.017,0.005,0.025,0.01
			c0,0,0.089,0.066,0.211,0.173c0.062,0.053,0.136,0.114,0.208,0.182c0.189,0.182,0.505,0.399,0.521,0.682
			c0.017,0.303-0.131,0.518-0.432,0.33c-0.268-0.167-0.367-0.507-0.441-0.796c-0.029-0.095-0.051-0.187-0.068-0.267
			c-0.041-0.158-0.059-0.268-0.059-0.267C32.828,5.101,32.845,5.081,32.868,5.082z"/>
            </g>
        </g>
    </g>


<!--   skills -->

    <g id="js">
        <path d="M8.11639 7.5H113.116V112.5H8.11639V7.5Z" fill="#F5DE19"/>
        <path d="M78.6501 89.5312C79.5448 91.3485 80.9347 92.8759 82.6598 93.9375C84.3848 94.9991 86.3747 95.5515 88.4001 95.5313C92.4876 95.5313 95.1014 93.4875 95.1014 90.6562C95.1014 87.2812 92.4164 86.0738 87.9164 84.105L85.4489 83.0475C78.3239 80.0138 73.5989 76.215 73.5989 68.1825C73.5989 60.7838 79.2239 55.1475 88.0476 55.1475C90.904 54.9412 93.7579 55.5805 96.2534 56.9856C98.7488 58.3907 100.775 60.4994 102.08 63.0488L94.3664 67.98C93.864 66.716 92.9892 65.6345 91.858 64.879C90.7268 64.1236 89.3927 63.7298 88.0326 63.75C87.4392 63.6906 86.84 63.7555 86.273 63.9404C85.7061 64.1254 85.1839 64.4265 84.7397 64.8244C84.2956 65.2224 83.9392 65.7085 83.6932 66.2518C83.4473 66.7951 83.3173 67.3837 83.3114 67.98C83.3114 70.9388 85.1451 72.1388 89.3789 73.98L91.8464 75.0375C100.231 78.6338 104.971 82.2975 104.971 90.5363C104.971 99.42 97.9926 104.287 88.6214 104.287C84.97 104.52 81.3293 103.691 78.1387 101.901C74.948 100.11 72.3438 97.4342 70.6401 94.1963L78.6501 89.5312ZM43.7939 90.3863C45.3426 93.135 46.7526 95.46 50.1426 95.46C53.3826 95.46 55.4301 94.1925 55.4301 89.2612V55.71H65.2964V89.3925C65.2964 99.6075 59.2964 104.257 50.5626 104.257C47.4755 104.426 44.4095 103.657 41.7677 102.051C39.126 100.444 37.0321 98.0761 35.7614 95.2575L43.7939 90.3863Z" fill="black"/>
    </g>

    <g id="ts">
        <rect width="256" height="256" fill="#007ACC" rx="60"/><path fill="#fff" d="M56.6112 128.849L56.5299 139.333H73.1902H89.8505L89.8505 186.673V234.012H101.635H113.419V186.673L113.419 139.333H130.079H146.739V129.052C146.739 123.363 146.618 118.609 146.455 118.487C146.333 118.325 126.056 118.243 101.472 118.284L56.7331 118.406L56.6112 128.849Z"/><path fill="#fff" d="M206.567 118.108C213.068 119.734 218.026 122.619 222.577 127.332C224.934 129.852 228.428 134.444 228.713 135.541C228.794 135.866 217.66 143.343 210.915 147.528C210.671 147.691 209.695 146.634 208.598 145.009C205.307 140.214 201.853 138.141 196.57 137.776C188.809 137.247 183.811 141.311 183.852 148.097C183.852 150.088 184.136 151.266 184.949 152.892C186.655 156.427 189.825 158.54 199.781 162.847C218.107 170.731 225.949 175.932 230.826 183.327C236.271 191.576 237.49 204.742 233.792 214.535C229.729 225.181 219.651 232.414 205.469 234.812C201.081 235.584 190.678 235.462 185.965 234.609C175.684 232.78 165.932 227.701 159.918 221.037C157.561 218.436 152.969 211.65 153.254 211.162C153.375 211 154.432 210.35 155.61 209.659C156.748 209.009 161.056 206.53 165.119 204.173L172.474 199.906L174.018 202.182C176.172 205.473 180.885 209.984 183.73 211.487C191.897 215.795 203.113 215.185 208.639 210.228C210.996 208.074 211.971 205.839 211.971 202.548C211.971 199.581 211.605 198.281 210.061 196.046C208.07 193.202 204.007 190.804 192.466 185.806C179.26 180.117 173.571 176.582 168.37 170.974C165.363 167.724 162.518 162.522 161.34 158.174C160.365 154.558 160.121 145.496 160.893 141.839C163.615 129.08 173.246 120.181 187.143 117.539C191.654 116.686 202.137 117.011 206.567 118.108Z"/>
    </g>

    <g id="css">
        <path d="M22.3653 101.154L13.9428 7.4375H106.523L98.089 101.139L60.1765 111.562L22.3653 101.154Z" fill="#1572B6"/>
        <path d="M60.2328 103.597L90.8703 95.174L98.0778 15.1019H60.2328V103.597Z" fill="#33A9DC"/>
        <path d="M60.2328 49.054H75.5703L76.6278 37.2842H60.2328V25.7896H89.2953L89.0178 28.8724L86.1715 60.5487H60.2328V49.054Z" fill="white"/>
        <path d="M60.304 78.9045L60.2515 78.9193L47.344 75.4609L46.519 66.2942H34.8828L36.5065 84.3413L60.2478 90.8788L60.304 90.864V78.9045Z" fill="#EBEBEB"/>
        <path d="M74.584 60.0615L73.189 75.4534L60.2628 78.9119V90.8714L84.0228 84.3412L84.199 82.4001L86.2128 60.0615H74.584Z" fill="white"/>
        <path d="M60.274 25.7896V37.2842H32.2765L32.044 34.6997L31.5153 28.8724L31.2378 25.7896H60.274ZM60.2328 49.054V60.5487H47.4865L47.254 57.9642L46.729 52.1369L46.4515 49.054H60.2328Z" fill="#EBEBEB"/>
    </g>

    <g id="vite">
        <path d="M29.8836 6.146L16.7418 29.6457c-.2714.4851-.9684.488-1.2439.0052L2.0956 6.1482c-.3-.5262.1498-1.1635.746-1.057l13.156 2.3516a.7144.7144 0 00.2537-.0004l12.8808-2.3478c.5942-.1083 1.0463.5241.7515 1.0513z" fill="url(#paint0_linear)"/><path d="M22.2644 2.0069l-9.7253 1.9056a.3571.3571 0 00-.2879.3294l-.5982 10.1038c-.014.238.2045.4227.4367.3691l2.7077-.6248c.2534-.0585.4823.1647.4302.4194l-.8044 3.9393c-.0542.265.1947.4918.4536.4132l1.6724-.5082c.2593-.0787.5084.1487.4536.414l-1.2784 6.1877c-.08.387.4348.598.6495.2662L16.5173 25 24.442 9.1848c.1327-.2648-.096-.5667-.387-.5106l-2.787.5379c-.262.0505-.4848-.1934-.4109-.4497l1.8191-6.306c.074-.2568-.1496-.5009-.4118-.4495z" fill="url(#paint1_linear)"/><defs id="defs50"><linearGradient id="paint0_linear" x1="6.0002" y1="32.9999" x2="235" y2="344" gradientUnits="userSpaceOnUse" gradientTransform="matrix(.07142 0 0 .07142 1.3398 1.8944)"><stop stop-color="#41D1FF" id="stop38"/><stop offset="1" stop-color="#BD34FE" id="stop40"/></linearGradient><linearGradient id="paint1_linear" x1="194.651" y1="8.8182" x2="236.076" y2="292.989" gradientUnits="userSpaceOnUse" gradientTransform="matrix(.07142 0 0 .07142 1.3398 1.8944)"><stop stop-color="#FFEA83" id="stop43"/><stop offset=".0833" stop-color="#FFDD35" id="stop45"/><stop offset="1" stop-color="#FFA800" id="stop47"/></linearGradient></defs>
    </g>

    <g id="html">
        <path d="M22.9817 102.004L14.5554 7.5H107.143L98.7054 101.989L60.7929 112.5L22.9817 102.004Z" fill="#E44F26"/>
        <path d="M60.8492 104.468L91.4867 95.9738L98.6942 15.2288H60.8492V104.468Z" fill="#F1662A"/>
        <path d="M60.8492 50.2762H45.5117L44.4542 38.4075H60.8492V26.8162H31.7867L32.0642 29.9287L34.9104 61.8675H60.8492V50.2762ZM60.8492 80.3775L60.7967 80.3925L47.8892 76.9087L47.0642 67.665H35.4279L37.0517 85.86L60.7967 92.4525L60.8492 92.4375V80.3775Z" fill="#EBEBEB"/>
        <path d="M60.8079 50.2762V61.8675H75.0804L73.7379 76.9012L60.8079 80.3887V92.4487L84.5717 85.86L84.7442 83.9025L87.4667 53.3887L87.7517 50.2762H60.8079ZM60.8079 26.8162V38.4075H88.8054L89.0379 35.805L89.5667 29.9287L89.8442 26.8162H60.8079Z" fill="white"/>
    </g>

    <g id="git">
        <g clip-path="url(#clip0_13_2984)">
            <path d="M103.62 47.8219L57.7758 1.98038C55.1372 -0.6598 50.8552 -0.6598 48.2134 1.98038L38.6937 11.5001L50.7699 23.5763C53.5762 22.6281 56.7943 23.2642 59.0313 25.5012C61.2789 27.7525 61.9106 30.9981 60.9393 33.8134L72.5775 45.452C75.3932 44.482 78.6421 45.1095 80.891 47.3621C84.034 50.5039 84.034 55.596 80.891 58.7399C77.7471 61.8841 72.655 61.8841 69.5095 58.7399C67.1454 56.3733 66.5613 52.9013 67.7582 49.9888L56.9046 39.1352L56.9034 67.6973C57.6902 68.0863 58.4088 68.6002 59.0313 69.2189C62.1743 72.3607 62.1743 77.4532 59.0313 80.5995C55.8874 83.7422 50.7929 83.7422 47.6535 80.5995C44.5105 77.4532 44.5105 72.3611 47.6535 69.2193C48.4067 68.4658 49.3019 67.869 50.2872 67.4635V38.6352C49.3004 38.2324 48.4048 37.6353 47.6535 36.8793C45.2722 34.5013 44.6996 31.0071 45.9198 28.0831L34.0154 16.1775L2.58106 47.6099C-0.0603455 50.2525 -0.0603455 54.5349 2.58106 57.1755L48.4259 103.018C51.0652 105.658 55.3464 105.658 57.9891 103.018L103.619 57.3884C106.26 54.747 106.26 50.4621 103.619 47.8219" fill="#DE4C36"/>
        </g>
        <defs>
            <clipPath id="clip0_13_2984">
                <rect width="105" height="105" fill="white" transform="translate(0.600006)"/>
            </clipPath>
        </defs>
    </g>

    <g id="github">
        <path fill-rule="evenodd" clip-rule="evenodd" d="M44 0C19.69 0 0 19.69 0 44C0 63.47 12.595 79.915 30.085 85.745C32.285 86.13 33.11 84.81 33.11 83.655C33.11 82.61 33.055 79.145 33.055 75.46C22 77.495 19.14 72.765 18.26 70.29C17.765 69.025 15.62 65.12 13.75 64.075C12.21 63.25 10.01 61.215 13.695 61.16C17.16 61.105 19.635 64.35 20.46 65.67C24.42 72.325 30.745 70.455 33.275 69.3C33.66 66.44 34.815 64.515 36.08 63.415C26.29 62.315 16.06 58.52 16.06 41.69C16.06 36.905 17.765 32.945 20.57 29.865C20.13 28.765 18.59 24.255 21.01 18.205C21.01 18.205 24.695 17.05 33.11 22.715C36.63 21.725 40.37 21.23 44.11 21.23C47.85 21.23 51.59 21.725 55.11 22.715C63.525 16.995 67.21 18.205 67.21 18.205C69.63 24.255 68.09 28.765 67.65 29.865C70.455 32.945 72.16 36.85 72.16 41.69C72.16 58.575 61.875 62.315 52.085 63.415C53.68 64.79 55.055 67.43 55.055 71.555C55.055 77.44 55 82.17 55 83.655C55 84.81 55.825 86.185 58.025 85.745C66.7597 82.796 74.3497 77.1822 79.7268 69.6937C85.1039 62.2052 87.9974 53.219 88 44C88 19.69 68.31 0 44 0Z" fill="black"/>
    </g>

    <g id="reacr">
        <g clip-path="url(#clip0_13_2986)">
            <path d="M93.1056 32.7027C91.9031 32.2887 90.6904 31.9051 89.4687 31.5523C89.6739 30.7106 89.8628 29.8792 90.0305 29.0623C92.7838 15.6483 90.9839 4.84178 84.8361 1.28375C78.9416 -2.12722 69.3016 1.42949 59.5659 9.93342C58.6064 10.773 57.6682 11.6368 56.7521 12.524C56.1389 11.934 55.5149 11.3556 54.8803 10.7888C44.6767 1.69616 34.4493 -2.13608 28.3081 1.43215C22.4189 4.85374 20.675 15.0127 23.1538 27.7254C23.4004 28.9844 23.6788 30.237 23.9888 31.4819C22.5411 31.8947 21.1442 32.3342 19.8073 32.8019C7.84441 36.9881 0.204742 43.5483 0.204742 50.3529C0.204742 57.3808 8.40627 64.43 20.8661 68.7043C21.8763 69.0495 22.8948 69.3692 23.9209 69.6634C23.5876 71.0042 23.2918 72.354 23.0337 73.7114C20.6706 86.2035 22.516 96.1223 28.3893 99.5222C34.4555 103.033 44.637 99.4247 54.5506 90.7268C55.3545 90.0196 56.1407 89.2925 56.9084 88.546C57.9004 89.5066 58.9189 90.4393 59.9627 91.343C69.566 99.6365 79.0501 102.985 84.9177 99.5762C90.9782 96.055 92.948 85.3995 90.3907 72.4356C90.1892 71.42 89.9633 70.4094 89.7132 69.4047C90.4282 69.1921 91.13 68.9732 91.8141 68.7455C104.767 64.4384 113.195 57.4747 113.195 50.3529C113.195 43.5234 105.309 36.919 93.1056 32.7027ZM90.2962 64.1474C89.6783 64.3525 89.0445 64.5505 88.3983 64.7432C86.9683 60.1995 85.0386 55.3684 82.6769 50.3764C84.9305 45.5036 86.786 40.734 88.1759 36.22C89.3318 36.5558 90.4534 36.9097 91.5347 37.2832C101.991 40.8961 108.369 46.2372 108.369 50.3529C108.369 54.7367 101.481 60.4277 90.2962 64.1474ZM85.6557 73.3765C86.7865 79.1087 86.9476 84.2916 86.1986 88.3435C85.5259 91.9844 84.1727 94.4115 82.499 95.3839C78.9385 97.4526 71.3235 94.7637 63.111 87.6706C62.1401 86.8305 61.1927 85.9634 60.2699 85.0703C63.4539 81.5756 66.6357 77.5131 69.7412 73.0008C75.2036 72.5144 80.3641 71.7188 85.0439 70.6331C85.2694 71.5426 85.4734 72.4573 85.6557 73.3765ZM38.7257 95.0264C35.2468 96.2592 32.4759 96.2946 30.8009 95.3254C27.2369 93.2624 25.7552 85.298 27.7762 74.6151C28.0165 73.3527 28.2915 72.0972 28.6011 70.8502C33.2293 71.8779 38.3523 72.6168 43.8275 73.0624C46.9542 77.4776 50.2278 81.5358 53.5271 85.0894C52.8259 85.7703 52.1082 86.4338 51.3745 87.0793C46.9904 90.9252 42.5974 93.654 38.7257 95.0264ZM22.4277 64.1204C16.9181 62.2302 12.368 59.7738 9.24929 57.0933C6.44659 54.6848 5.032 52.2932 5.032 50.3529C5.032 46.2234 11.1657 40.9564 21.3962 37.3766C22.6378 36.9425 23.9372 36.5327 25.2856 36.1482C26.6997 40.7641 28.5544 45.5904 30.7925 50.4707C28.5252 55.4233 26.6441 60.3267 25.2163 64.997C24.2797 64.7278 23.3499 64.4355 22.4277 64.1204ZM27.891 26.7947C25.7676 15.9031 27.1777 7.68706 30.7268 5.62497C34.5067 3.42867 42.8653 6.56011 51.6755 14.4115C52.25 14.9247 52.8152 15.4482 53.3708 15.9819C50.0879 19.52 46.8443 23.548 43.7454 27.9371C38.4313 28.4315 33.3445 29.2253 28.6678 30.2889C28.3797 29.131 28.1206 27.9661 27.891 26.7951V26.7947ZM76.6301 38.8739C75.5255 36.9589 74.3798 35.0679 73.194 33.2024C76.7991 33.66 80.2533 34.2673 83.4969 35.0098C82.5233 38.1425 81.3095 41.4175 79.8808 44.7753C78.8365 42.7867 77.7527 40.8191 76.6301 38.8739ZM56.7544 19.4443C58.9806 21.8652 61.2104 24.5678 63.4036 27.5003C58.9546 27.2894 54.4982 27.2886 50.0491 27.4977C52.2444 24.5922 54.4932 21.8931 56.7544 19.4443ZM36.751 38.9071C35.6425 40.8367 34.5789 42.792 33.5613 44.7713C32.1559 41.4255 30.9532 38.1355 29.9712 34.9584C33.1949 34.2346 36.6327 33.6427 40.2149 33.1935C39.0159 35.0704 37.8609 36.9754 36.751 38.9067V38.9071ZM40.3177 67.8569C36.6169 67.4423 33.1274 66.881 29.9045 66.1767C30.902 62.9429 32.1312 59.5829 33.567 56.1653C34.5887 58.1461 35.6567 60.1026 36.77 62.033C37.9149 64.0176 39.1004 65.9614 40.3177 67.8569ZM56.8876 81.6027C54.5996 79.1255 52.3177 76.3848 50.0892 73.4372C52.2528 73.5222 54.4583 73.5656 56.7001 73.5656C59.0031 73.5656 61.2797 73.5138 63.5205 73.4137C61.3203 76.4145 59.0989 79.1592 56.8876 81.6027ZM79.9263 55.9907C81.4366 59.446 82.7095 62.7883 83.7203 65.9667C80.4444 66.7171 76.9073 67.3214 73.1804 67.7701C74.3746 65.8699 75.5311 63.9461 76.6491 61.9998C77.7858 60.0214 78.8784 58.0179 79.9263 55.9907ZM72.468 59.5794C70.7564 62.5634 68.9487 65.4909 67.0475 68.357C63.6038 68.6018 60.1524 68.7234 56.7001 68.7216C53.1837 68.7216 49.7635 68.6118 46.47 68.3974C44.5192 65.5378 42.677 62.6053 40.9471 59.6059H40.9476C39.2259 56.6225 37.6177 53.5745 36.1265 50.4685C37.6139 47.3618 39.2172 44.3124 40.933 41.3267L40.9326 41.3271C42.6477 38.3407 44.4753 35.4206 46.4113 32.5734C49.7714 32.3182 53.2172 32.1853 56.6996 32.1853H56.7001C60.1984 32.1853 63.6485 32.3195 67.0078 32.5765C68.9243 35.4195 70.7402 38.3295 72.4521 41.301C74.1736 44.2801 75.7981 47.3147 77.3231 50.3999C75.8138 53.5166 74.1944 56.5783 72.468 59.5794ZM82.4253 5.48056C86.2087 7.67067 87.6802 16.5024 85.303 28.0842C85.1512 28.8231 84.9808 29.5757 84.7954 30.339C80.1072 29.2528 75.0169 28.4452 69.6874 27.9433C66.5828 23.506 63.3656 19.4717 60.1361 15.9792C60.9825 15.1604 61.849 14.3628 62.7349 13.5871C71.0768 6.30141 78.8732 3.42468 82.4253 5.48056ZM56.7001 40.2263C62.2724 40.2263 66.7898 44.7603 66.7898 50.3529C66.7898 55.9456 62.2724 60.4795 56.7001 60.4795C51.1278 60.4795 46.6104 55.9456 46.6104 50.3529C46.6104 44.7603 51.1278 40.2263 56.7001 40.2263Z" fill="#00D8FF"/>
        </g>
        <defs>
            <clipPath id="clip0_13_2986">
                <rect width="113" height="101" fill="white" transform="translate(0.200012)"/>
            </clipPath>
        </defs>
    </g>

    <g id="redux">
        <path d="M72.7792 69.5627C76.6509 69.1619 79.5882 65.8242 79.4546 61.8184C79.3214 57.8131 75.9833 54.6086 71.9779 54.6086H71.7111C67.5718 54.7422 64.3677 58.2135 64.5013 62.3525C64.6349 64.3553 65.4357 66.091 66.6374 67.2926C62.098 76.2385 55.1554 82.7807 44.7415 88.2549C37.6652 91.9934 30.3222 93.3287 22.9792 92.3943C16.971 91.593 12.298 88.923 9.3603 84.5164C5.08817 77.9742 4.68776 70.8975 8.29268 63.8213C10.8296 58.7475 14.8345 55.009 17.3714 53.1398C16.8374 51.4041 16.0361 48.4668 15.6357 46.3307C-3.72371 60.35 -1.72084 79.3094 4.15375 88.2549C8.55949 94.9311 17.505 99.0701 27.3849 99.0701C30.055 99.0701 32.7251 98.8029 35.3955 98.1357C52.4853 94.7975 65.4361 84.65 72.7792 69.5627ZM96.2775 53.0066C86.1304 41.1234 71.1771 34.5811 54.0873 34.5811H51.9513C50.7496 32.1779 48.2128 30.5754 45.4091 30.5754H45.1419C41.0033 30.709 37.7992 34.1803 37.9324 38.3197C38.066 42.325 41.4037 45.5295 45.4091 45.5295H45.6759C48.6132 45.3959 51.1501 43.5266 52.2181 40.9898H54.6214C64.7685 40.9898 74.3812 43.927 83.0599 49.6684C89.7353 54.0746 94.5419 59.816 97.2119 66.7586C99.4816 72.3664 99.348 77.8406 96.9447 82.5139C93.2066 89.5902 86.9316 93.4623 78.6537 93.4623C73.3132 93.4623 68.2398 91.8598 65.5693 90.6582C64.1009 91.9934 61.4304 94.1295 59.5611 95.4652C65.3025 98.1352 71.1771 99.6041 76.7845 99.6041C89.6017 99.6041 99.0812 92.5275 102.686 85.4512C106.558 77.707 106.291 64.3553 96.2775 53.0066ZM28.4529 71.832C28.5865 75.8377 31.9242 79.0418 35.9296 79.0418H36.1968C40.3357 78.9086 43.5398 75.4369 43.4062 71.2979C43.273 67.2922 39.9349 64.0881 35.9296 64.0881H35.6628C35.3955 64.0881 34.9947 64.0881 34.7283 64.2213C29.2542 55.1422 26.9845 45.2623 27.7857 34.5807C28.3193 26.5697 30.9898 19.6266 35.6628 13.8852C39.5345 8.94508 47.0111 6.5418 52.0849 6.40861C66.2369 6.14139 72.2447 23.7656 72.6455 30.8422C74.3812 31.2426 77.3185 32.1775 79.3214 32.8451C77.7189 11.2156 64.3677 0 51.5509 0C39.5345 0 28.4529 8.67869 24.0468 21.4963C17.9054 38.5865 21.9107 55.009 29.3874 67.9602C28.7201 68.8947 28.3193 70.3635 28.4529 71.8324V71.832Z" fill="#764ABC"/>
    </g>

    <g id="styledComponents">
        <rect width="256" height="256" rx="60" fill="url(#paint0_linear_163_1214)"/>
        <path d="M11.487 129.079L61.791 149.463V163.732L2.24152 136.141V127.769L11.487 129.079ZM61.791 112.336L11.5598 133.01L2.24152 134.03V125.585L61.791 98.067V112.336Z" fill="white"/>
        <path d="M241.371 131.991L189.611 111.826V97.9214L251.781 125.439V133.957L241.371 131.991ZM189.611 149.754L241.517 129.152L251.781 127.623V136.068L189.611 163.659V149.754Z" fill="white"/>
        <path fill-rule="evenodd" clip-rule="evenodd" d="M176.077 61.0989C175.789 65.6652 173.732 70.4334 174.305 74.8724C177.898 81.2257 185.806 82.2394 192.33 82.6749C196.85 83.4825 196.793 80.4898 196.49 77.1276C196.508 71.7532 196.526 66.3788 196.545 61.0044C189.722 61.0289 182.897 60.9367 176.077 61.0989ZM122.276 73.8698C111.168 75.7546 99.9082 81.0627 90.6673 87.453C83.2291 93.2417 97.0523 98.852 102.067 99.7898C112.157 99.9127 121.106 93.1074 127.734 86.0428C129.898 83.0722 132.601 78.5258 129.882 75.0835C127.806 73.2832 124.787 73.72 122.276 73.8698ZM145.913 90.0242C136.78 91.7632 128.09 95.5279 120.401 100.769C114.764 102.539 110.118 108.728 117.103 111.829C124.438 117.674 132.939 116.242 139.694 112.296C145.88 108.619 152.562 104.082 155.424 97.1602C158.127 89.5773 151.153 89.2957 145.913 90.0242ZM171.822 119.407C170.121 126.511 162.967 129.741 159.161 135.37C156.049 139.476 157.49 144.313 161.033 147.545C162.758 151.122 165.782 153.121 169.025 150.014C177.377 144.336 179.687 133.276 179.34 123.693C179.957 119.735 175.416 123.313 171.822 119.407V119.407ZM140.039 132.75C128.948 134.648 117.855 140.052 108.61 146.432C101.433 152.213 114.95 157.611 120.006 158.467C130.283 158.482 139.45 151.859 145.948 144.337C148.208 141.35 150.947 135.549 146.472 133.174C144.471 132.326 142.148 132.575 140.039 132.75V132.75Z" fill="#B956A6"/>
        <path fill-rule="evenodd" clip-rule="evenodd" d="M90.6673 87.453C82.1375 90.8661 73.9085 95.0103 65.7834 99.3498C64.273 104.965 65.484 111.918 65.0925 118.075C65.063 143.391 65.0775 168.708 65.0726 194.024C71.3463 194.024 77.6201 194.024 83.8938 194.024C87.6933 190.446 92.4538 187.827 96.5811 184.578C112.475 173.179 128.364 161.736 144.237 150.369C145.405 150.894 144.657 143.498 142.095 148.635C136.024 154.348 127.966 159.047 119.437 158.588C114.597 156.996 106.795 154.295 106.746 148.364C110.153 144.353 100.46 150.464 97.8083 151.339C89.1857 155.479 80.7672 160.102 72.1272 164.165C74.2042 161.935 78.0889 159.856 80.842 157.644C100.515 143.522 120.183 129.345 139.903 115.234C143.696 112.571 147.36 109.666 151.27 107.177C151.627 108.556 152.297 100.584 149.389 105.492C143.461 111.368 135.465 115.742 127.032 115.802C122.289 114.362 112.187 110.919 114.436 104.795C115.533 102.646 104.248 109.376 109.234 105.581C114.541 101.703 119.89 97.8938 125.238 94.0562C127.939 93.8528 127.364 83.8205 123.694 90.2919C117.529 95.7088 109.429 100.665 100.938 99.4904C96.1682 98.1173 90.4448 95.4576 88.7114 90.4697C88.137 89.2716 91.9228 87.4054 90.6673 87.453ZM126.006 93.6462C125.533 94.9992 126.863 93.1517 126.006 93.6462V93.6462Z" fill="#FCCC44"/>
        <path fill-rule="evenodd" clip-rule="evenodd" d="M179.899 80.7493C177.236 93.4665 174.325 106.775 171.822 119.407C179.014 128.471 179.711 113.681 180.969 109.499C183.002 100.758 185.41 94.1577 185.665 85.1075C186.205 82.0195 182.575 80.1486 179.899 80.7493ZM188.15 90.7215C187.925 92.0255 188.478 90.9666 188.15 90.7215V90.7215ZM179.76 119.236C180.106 119.981 180.106 118.49 179.76 119.236V119.236Z" fill="#62777F"/>
        <path fill-rule="evenodd" clip-rule="evenodd" d="M184.616 82.1892C186.86 94.7924 179.427 110.102 176.996 121.984C182.516 117.922 186.781 99.492 187.871 92.2782C188.152 91.453 188.498 89.3766 188.573 89.3022C188.92 87.5506 192.153 84.5838 192.33 82.675C194.212 81.3466 183.08 81.1326 184.616 82.1892ZM180.039 119.236C179.692 119.981 179.692 118.49 180.039 119.236V119.236Z" fill="#4E5E67"/>
        <path fill-rule="evenodd" clip-rule="evenodd" d="M90.8537 87.6628C87.742 90.7786 88.9097 90.0176 91.2264 87.4265L90.8537 87.6628ZM124.514 89.206C120.909 94.6231 107.909 99.1529 106.272 99.5038C114.092 98.0393 121.381 93.1749 126.51 87.4757C125.695 87.8387 125.211 88.6925 124.514 89.206ZM88.7155 90.965C90.6587 95.6369 97.7239 98.7415 101.157 99.4655C96.4698 97.9558 90.9525 95.2772 88.7155 90.965V90.965ZM125.726 93.6667C124.745 94.825 121.251 96.5579 119.409 98.2563C115.458 101.171 111.371 103.879 107.465 106.866C109.952 106.759 117.24 101.315 113.504 106.839C116.67 112.288 123.563 116.077 129.848 115.731C138.148 114.428 145.802 109.839 151.304 103.457C144.625 110.066 135.795 116.286 126.024 115.429C121.295 114.337 108.373 107.662 117.017 102.983C120.065 100.476 125.32 99.1626 125.915 94.7571C125.79 94.2071 126.815 93.6703 125.726 93.6668V93.6667ZM102.067 99.7899C105.212 100.201 105.212 99.3792 102.067 99.7899V99.7899ZM151.07 107.315C138.591 116.009 126.293 125.043 113.922 133.893C99.9022 143.927 85.9423 153.998 71.9258 164.024C77.1957 162.247 82.4758 158.777 87.7113 156.38C94.9202 152.566 102.523 149.553 109.269 144.92C122.607 137.068 136.713 129.587 146.972 117.574C149.211 114.948 151.456 110.721 151.556 107.878C151.233 107.969 151.478 106.741 151.07 107.315V107.315ZM108.61 146.432C106.365 148.969 105.453 150.782 107.783 147.556C107.742 147.93 109.674 145.553 108.61 146.432ZM142.766 147.646C136.852 153.882 128.105 158.38 119.898 158.683C129.386 158.752 137.946 153.12 144.374 146.476C143.952 145.966 143.097 147.664 142.766 147.646ZM144.573 149.606C124.704 164.07 104.149 179.073 84.2128 193.485C87.3539 194.47 94.1918 194.932 97.3122 190.911C103.953 186.329 111.418 182.96 118.08 178.316C127.727 172.056 138.056 165.214 143.535 154.693C143.796 153.282 145.735 150.744 144.573 149.606V149.606ZM106.76 150.524C107.682 154.416 119.208 158.883 117.958 158.028C113.708 156.538 109.492 154.216 106.76 150.524Z" fill="#DC9624"/>
        <defs>
            <linearGradient id="paint0_linear_163_1214" x1="0" y1="256" x2="256" y2="0" gradientUnits="userSpaceOnUse">
                <stop stop-color="#DB7093"/>
                <stop offset="1" stop-color="#F3B661"/>
            </linearGradient>
        </defs>
    </g>

    <g id="sass">
        <g clip-path="url(#clip0_13_2988)">
            <path d="M101.473 50.0766C97.4031 50.0975 93.8654 51.0694 90.9035 52.5063C89.8163 50.3721 88.7295 48.4708 88.538 47.076C88.3246 45.4493 88.0691 44.4561 88.3246 42.5122C88.5805 40.5683 89.7313 37.8001 89.7098 37.589C89.6888 37.3778 89.4539 36.3846 87.1099 36.3637C84.7659 36.3424 82.7413 36.8073 82.5069 37.42C82.2724 38.0326 81.825 39.4273 81.5266 40.8637C81.1217 42.9771 76.8386 50.5198 74.3881 54.471C73.5993 52.9291 72.9175 51.5765 72.768 50.499C72.5551 48.8722 72.2991 47.879 72.5551 45.9351C72.811 43.9912 73.9617 41.2235 73.9403 41.0119C73.9188 40.8007 73.6843 39.8075 71.3403 39.7866C68.9959 39.7653 66.9713 40.2302 66.7373 40.8429C66.5029 41.4559 66.247 42.8923 65.7571 44.2871C65.2667 45.6818 59.5769 58.275 58.0853 61.5285C57.4824 62.8453 56.8501 64.1487 56.1887 65.4376C56.1887 65.4376 56.1672 65.501 56.1032 65.6066C55.8954 66.0107 55.6824 66.4122 55.4643 66.811V66.8318C55.1444 67.4028 54.8035 67.9307 54.633 67.9307C54.5051 67.9307 54.2706 66.4095 54.6755 64.3387C55.5278 59.9652 57.5524 53.1615 57.5314 52.9291C57.5314 52.8022 57.9148 51.6191 56.2102 51.006C54.5476 50.3934 53.9512 51.4075 53.8017 51.4075C53.6527 51.4075 53.5458 51.7668 53.5458 51.7668C53.5458 51.7668 55.4003 44.118 50.0085 44.118C46.6418 44.118 41.9958 47.7734 39.6943 51.0694C37.078 52.4811 34.4639 53.8968 31.8521 55.3166C30.5953 56.0139 29.2951 56.7113 28.0804 57.3661C27.9949 57.2818 27.9099 57.1758 27.8244 57.0915C21.3034 50.1822 9.24203 45.3012 9.75342 36.0257C9.94537 32.6449 11.1171 23.7705 32.9178 12.9947C50.8609 4.22583 65.1392 6.65549 67.6111 12.0436C71.1484 19.7349 59.9608 34.0183 41.4204 36.0887C34.3455 36.8708 30.6373 34.1661 29.7 33.152C28.7197 32.0953 28.5703 32.0318 28.2079 32.2435C27.6115 32.5606 27.9949 33.5113 28.2079 34.0605C28.7622 35.4969 31.0422 38.0326 34.8994 39.2796C38.3091 40.378 46.5988 40.991 56.6361 37.1454C67.8666 32.8348 76.6467 20.8546 74.0682 10.8183C71.4893 0.633908 54.4411 -2.72556 38.3091 2.95799C28.7197 6.33921 18.32 11.6634 10.8402 18.594C1.95366 26.834 0.54699 33.997 1.12236 36.9976C3.18987 47.6465 18.0006 54.5771 23.9248 59.7114C23.6264 59.8804 23.349 60.0286 23.115 60.1555C20.1526 61.6132 8.85814 67.4658 6.04526 73.6568C2.84894 80.6716 6.55711 85.7009 9.00759 86.3765C16.6154 88.4686 24.4362 84.7076 28.6343 78.4953C32.8323 72.2834 32.321 64.2119 30.3819 60.5144C30.3604 60.4722 30.3394 60.4296 30.2964 60.3875C31.0637 59.9439 31.8521 59.479 32.6194 59.0354C34.0297 58.2088 35.4578 57.4126 36.9029 56.6474C36.1781 58.6126 35.6452 60.958 35.3898 64.3387C35.0699 68.3113 36.7105 73.4665 38.863 75.4947C39.8223 76.3828 40.9516 76.4037 41.6764 76.4037C44.1908 76.4037 45.3206 74.3329 46.5778 71.8819C48.112 68.8818 49.4972 65.3954 49.4972 65.3954C49.4972 65.3954 47.771 74.8191 52.4595 74.8191C54.1641 74.8191 55.8902 72.6214 56.6576 71.5017V71.5226C56.6576 71.5226 56.7001 71.4592 56.7855 71.3114C56.956 71.0368 57.0625 70.8674 57.0625 70.8674V70.8257C57.7443 69.6421 59.279 66.9587 61.559 62.5004C64.4998 56.7534 67.3342 49.5696 67.3342 49.5696C67.3342 49.5696 67.5901 51.3232 68.4635 54.239C68.9753 55.9505 70.0401 57.831 70.8929 59.648C70.2111 60.5991 69.7847 61.127 69.7847 61.127L69.8061 61.1483C69.2518 61.8665 68.6554 62.6481 67.9946 63.4094C65.6716 66.1558 62.9017 69.3045 62.5178 70.2126C62.0699 71.2901 62.1769 72.0722 63.0296 72.7062C63.6475 73.1711 64.7553 73.234 65.885 73.1711C67.9735 73.0229 69.4437 72.5158 70.1681 72.1991C71.2978 71.7976 72.619 71.1846 73.8548 70.276C76.1353 68.6067 77.52 66.2192 77.3925 63.0714C77.3285 61.3386 76.7531 59.6059 76.0498 57.9787C76.2632 57.6833 76.4547 57.3874 76.6681 57.0915C80.2694 51.8724 83.0612 46.1462 83.0612 46.1462C83.0612 46.1462 83.3172 47.8998 84.1905 50.8161C84.6169 52.2951 85.4907 53.901 86.2575 55.4643C82.8693 58.1903 80.7808 61.3594 80.0349 63.4302C78.6927 67.2759 79.7365 69.0082 81.7185 69.4097C82.6134 69.6 83.8921 69.1772 84.8298 68.7757C86.0231 68.3956 87.4298 67.7408 88.7725 66.7684C91.0529 65.0995 93.2475 62.775 93.1195 59.6272C93.0555 58.1903 92.6721 56.7743 92.1392 55.4009C95.0161 54.2182 98.7243 53.563 103.455 54.1122C113.599 55.2953 115.602 61.5706 115.218 64.2123C114.835 66.8531 112.704 68.29 112.001 68.7336C111.297 69.1777 111.063 69.3254 111.127 69.6421C111.212 70.107 111.553 70.0862 112.15 70.0014C112.981 69.8537 117.478 67.8672 117.669 63.0075C117.989 56.7956 112.022 50.0132 101.473 50.0766ZM23.2215 76.2346C19.8542 79.8687 15.1662 81.2421 13.1417 80.0803C10.9682 78.8333 11.8205 73.4665 15.9546 69.6213C18.469 67.2759 21.7083 65.0991 23.8608 63.7683C24.3507 63.4724 25.0755 63.0501 25.9493 62.5217C26.0983 62.437 26.1838 62.3948 26.1838 62.3948L26.6952 62.0776C28.2079 67.5713 26.7592 72.4103 23.2215 76.2346ZM47.7285 59.7114C46.5563 62.543 44.1058 69.7903 42.6142 69.3888C41.3354 69.0508 40.5466 63.5571 42.3582 58.1269C43.2745 55.4009 45.2136 52.147 46.3433 50.8796C48.1759 48.8509 50.2005 48.1744 50.6904 48.9991C51.3087 50.0766 48.4529 57.9365 47.7285 59.7114ZM67.9521 69.3041C67.4617 69.5578 66.9933 69.7269 66.7798 69.6C66.6309 69.5153 66.9933 69.1772 66.9933 69.1772C66.9933 69.1772 69.5292 66.473 70.5305 65.2473C71.1063 64.5291 71.7877 63.684 72.5126 62.7329V63.0075C72.5126 66.2405 69.3583 68.4169 67.9516 69.3041H67.9521ZM83.5511 65.7756C83.1887 65.5219 83.2527 64.6768 84.4674 62.0355C84.9363 61.0001 86.0441 59.2678 87.9412 57.5985C88.1541 58.2746 88.3036 58.9298 88.2821 59.5424C88.2606 63.6205 85.3202 65.1417 83.5511 65.7756Z" fill="#CD6799"/>
        </g>
        <defs>
            <clipPath id="clip0_13_2988">
                <rect width="117" height="87" fill="white" transform="translate(0.799988)"/>
            </clipPath>
        </defs>
    </g>

    <g id="less-dark">
        <g clip-path="url(#clip0_33_863)">
            <path d="M196 0H60C26.8629 0 0 26.8629 0 60V196C0 229.137 26.8629 256 60 256H196C229.137 256 256 229.137 256 196V60C256 26.8629 229.137 0 196 0Z" fill="#242938"/>
            <g clip-path="url(#clip1_33_863)">
                <path d="M215.667 153.57C215.667 162.506 208.099 169.817 198.85 169.817H57.5065C48.2576 169.817 40.6904 162.506 40.6904 153.57V101.831C40.6904 92.8955 48.2576 85.584 57.5065 85.584H198.85C208.099 85.584 215.667 92.8955 215.667 101.831V153.57Z" fill="url(#paint0_linear_33_863)"/>
                <mask id="mask0_33_863" style="mask-type:luminance" maskUnits="userSpaceOnUse" x="28" y="85" width="200" height="85">
                    <path d="M28.0671 85.3833H227.98V170H28.0671" fill="white"/>
                </mask>
                <g mask="url(#mask0_33_863)">
                    <path fill-rule="evenodd" clip-rule="evenodd" d="M219.443 116.241C219.443 109.907 220.428 106.172 220.428 99.3511C220.428 88.7941 216.487 85.3833 207.787 85.3833H201.384V92.854H203.354C207.787 92.854 208.772 94.316 208.772 99.6757C208.772 104.71 208.279 109.745 208.279 115.592C208.279 123.063 210.742 125.986 215.666 127.123V127.611C210.742 128.747 208.279 131.671 208.279 139.142C208.279 144.988 208.772 149.699 208.772 155.059C208.772 160.58 207.623 162.042 203.354 162.042V162.204H201.384V170H207.787C216.487 170 220.428 166.589 220.428 156.033C220.428 149.049 219.443 145.476 219.443 139.142C219.443 135.731 221.577 132.158 227.98 131.833V123.388C221.577 123.225 219.443 119.652 219.443 116.241ZM146.716 126.149C141.626 124.2 137.029 123.063 137.029 119.814C137.029 117.379 138.999 115.917 142.611 115.917C146.223 115.917 149.506 117.379 153.118 119.978L159.685 111.369C155.58 108.284 149.999 105.035 142.447 105.035C131.284 105.035 123.731 111.369 123.731 120.302C123.731 128.26 130.791 132.32 136.701 134.594C141.79 136.543 146.716 138.168 146.716 141.415C146.716 143.852 144.745 145.476 140.313 145.476C136.208 145.476 132.105 143.852 127.672 140.441L121.269 149.861C126.194 153.921 133.746 156.682 139.984 156.682C153.118 156.682 160.177 149.861 160.177 140.928C160.177 131.996 153.118 128.26 146.716 126.149ZM186.444 126.149C181.519 124.2 176.923 123.063 176.923 119.814C176.923 117.379 178.893 115.917 182.504 115.917C186.116 115.917 189.4 117.379 193.012 119.978L199.578 111.369C195.474 108.284 189.892 105.035 182.34 105.035C171.176 105.035 163.625 111.369 163.625 120.302C163.625 128.26 170.684 132.32 176.594 134.594C181.683 136.543 186.608 138.168 186.608 141.415C186.608 143.852 184.638 145.476 180.206 145.476C176.102 145.476 171.997 143.852 167.565 140.441L160.998 149.861C165.923 153.921 173.475 156.682 179.714 156.682C192.847 156.682 199.906 149.861 199.906 140.928C199.906 131.996 192.847 128.26 186.444 126.149ZM88.9274 125.336C89.9123 118.84 93.8522 115.755 98.4489 115.755C104.359 115.755 106.658 119.814 106.658 125.336H88.9274ZM119.135 128.26C119.299 115.105 112.075 104.873 98.2849 104.873C86.3006 104.873 74.8092 114.78 75.1372 130.371C75.1372 146.45 85.8085 155.87 99.9267 155.87C105.837 155.87 112.404 153.759 117.493 150.348L112.568 141.741C108.956 143.852 105.508 144.826 101.897 144.826C95.33 144.826 90.2404 141.741 88.9274 134.269H118.642C118.806 133.132 119.135 130.859 119.135 128.26Z" fill="#FAF9F8"/>
                </g>
                <mask id="mask1_33_863" style="mask-type:luminance" maskUnits="userSpaceOnUse" x="28" y="85" width="200" height="85">
                    <path d="M28.0671 85.3833H227.98V170H28.0671" fill="white"/>
                </mask>
                <g mask="url(#mask1_33_863)">
                    <path fill-rule="evenodd" clip-rule="evenodd" d="M74.3168 144.502C73.1678 144.502 71.69 143.527 71.69 140.441V85.3833H48.3775C39.5129 85.3833 35.5723 88.7941 35.5723 99.3511C35.5723 106.334 36.5573 110.233 36.5573 116.241C36.5573 119.652 34.4234 123.225 28.0208 123.55V131.996C34.4234 132.158 36.5573 135.731 36.5573 139.142C36.5573 145.151 35.5723 148.724 35.5723 155.708C35.5723 166.265 39.5129 169.675 48.2135 169.675H54.6161V162.204H52.6462C48.5424 162.204 47.2286 160.58 47.2286 155.221C47.2286 149.861 47.7214 145.314 47.7214 139.304C47.7214 131.833 45.2586 128.909 40.3331 127.773V127.286C45.2586 126.149 47.7214 123.225 47.7214 115.755C47.7214 109.907 47.2286 105.198 47.2286 99.8379C47.2286 94.4783 48.3775 93.0171 52.6462 93.0171H57.0789V139.629C57.0789 149.536 60.5266 156.033 70.541 156.033C73.6599 156.033 76.1227 155.545 77.9286 154.896L76.2867 144.339C75.3017 144.502 74.8097 144.502 74.3168 144.502Z" fill="#FAF9F8"/>
                </g>
            </g>
        </g>
        <defs>
            <linearGradient id="paint0_linear_33_863" x1="8789.49" y1="85.584" x2="8789.49" y2="8508.85" gradientUnits="userSpaceOnUse">
                <stop stop-color="#2E4F82"/>
                <stop offset="1" stop-color="#182E4D"/>
            </linearGradient>
            <clipPath id="clip0_33_863">
                <rect width="256" height="256" fill="white"/>
            </clipPath>
            <clipPath id="clip1_33_863">
                <rect width="200" height="85" fill="white" transform="translate(28 85)"/>
            </clipPath>
        </defs>
    </g>

    <g id="figma">
        <path fill="#0acf83" d="M45.5 129c11.9 0 21.5-9.6 21.5-21.5V86H45.5C33.6 86 24 95.6 24 107.5S33.6 129 45.5 129zm0 0"/><path fill="#a259ff" d="M24 64.5C24 52.6 33.6 43 45.5 43H67v43H45.5C33.6 86 24 76.4 24 64.5zm0 0"/><path fill="#f24e1e" d="M24 21.5C24 9.6 33.6 0 45.5 0H67v43H45.5C33.6 43 24 33.4 24 21.5zm0 0"/><path fill="#ff7262" d="M67 0h21.5C100.4 0 110 9.6 110 21.5S100.4 43 88.5 43H67zm0 0"/><path fill="#1abcfe" d="M110 64.5c0 11.9-9.6 21.5-21.5 21.5S67 76.4 67 64.5 76.6 43 88.5 43 110 52.6 110 64.5zm0 0"/>
    </g>

    <g id="figma-dark">
        <g clip-path="url(#clip0_4_180)"><path fill="#0ACF83" d="M94.3467 228C112.747 228 127.68 213.067 127.68 194.667V161.333H94.3467C75.9467 161.333 61.0133 176.267 61.0133 194.667C61.0133 213.067 75.9467 228 94.3467 228Z"/><path fill="#A259FF" d="M61.0133 128C61.0133 109.6 75.9467 94.6667 94.3467 94.6667H127.68V161.333H94.3467C75.9467 161.333 61.0133 146.4 61.0133 128Z"/><path fill="#F24E1E" d="M61.0133 61.3333C61.0133 42.9333 75.9467 28 94.3467 28H127.68V94.6667H94.3467C75.9467 94.6667 61.0133 79.7333 61.0133 61.3333Z"/><path fill="#FF7262" d="M127.68 28H161.013C179.413 28 194.347 42.9333 194.347 61.3333C194.347 79.7333 179.413 94.6667 161.013 94.6667H127.68V28Z"/><path fill="#1ABCFE" d="M194.347 128C194.347 146.4 179.413 161.333 161.013 161.333C142.613 161.333 127.68 146.4 127.68 128C127.68 109.6 142.613 94.6667 161.013 94.6667C179.413 94.6667 194.347 109.6 194.347 128Z"/></g><defs><clipPath id="clip0_4_180"><rect width="133.36" height="200" fill="#fff" transform="translate(61 28)"/></clipPath></defs>
    </g>

    <g id="nodejs-dark">
        <path fill="#81CD39" d="M119.878 31.1164C124.797 28.3008 131.203 28.2883 136.117 31.1164C160.839 45.0855 185.569 59.0332 210.287 73.0108C214.937 75.6296 218.046 80.8038 217.999 86.1608V170.206C218.034 175.785 214.617 181.083 209.712 183.642C185.071 197.535 160.442 211.444 135.805 225.337C130.786 228.207 124.251 227.986 119.387 224.88C112 220.598 104.6 216.336 97.2121 212.058C95.7022 211.158 94.0004 210.442 92.9345 208.978C93.8766 207.708 95.5618 207.55 96.9309 206.995C100.014 206.014 102.847 204.44 105.679 202.913C106.396 202.423 107.27 202.611 107.957 203.049C114.274 206.671 120.536 210.399 126.874 213.986C128.226 214.767 129.595 213.73 130.751 213.086C154.931 199.419 179.141 185.805 203.318 172.134C204.214 171.703 204.709 170.752 204.636 169.771C204.653 142.046 204.64 114.317 204.645 86.5918C204.747 85.4785 204.103 84.455 203.096 83.999C178.541 70.1702 153.997 56.3205 129.446 42.4882C128.575 41.8893 127.426 41.8878 126.554 42.4837C102.002 56.3205 77.4638 70.1832 52.9124 84.011C51.9092 84.4675 51.236 85.4745 51.3554 86.5918C51.3596 114.317 51.3554 142.046 51.3554 169.775C51.2682 170.756 51.801 171.687 52.6906 172.109C59.2422 175.824 65.8024 179.513 72.3582 183.216C76.0516 185.203 80.5863 186.385 84.6555 184.862C88.2463 183.574 90.7633 179.909 90.6948 176.097C90.7288 148.534 90.6778 120.967 90.7203 93.4078C90.6309 92.1841 91.7912 91.1731 92.981 91.2885C96.1292 91.267 99.281 91.2461 102.429 91.297C103.743 91.267 104.647 92.5847 104.485 93.8174C104.472 121.555 104.519 149.293 104.464 177.03C104.472 184.423 101.435 192.467 94.5973 196.084C86.1737 200.447 75.7619 199.522 67.4399 195.338C60.2355 191.742 53.3603 187.498 46.2838 183.646C41.3661 181.101 37.966 175.782 38.0006 170.207V86.1608C37.949 80.6929 41.1825 75.4248 45.9764 72.8445C70.6133 58.9408 95.2461 45.0261 119.878 31.1164Z"/><path fill="#81CD39" d="M141.372 89.3351C152.117 88.6433 163.62 88.9255 173.289 94.2185C180.776 98.2754 184.926 106.789 185.058 115.106C184.849 116.227 183.676 116.846 182.605 116.769C179.488 116.765 176.369 116.812 173.252 116.748C171.929 116.799 171.161 115.58 170.995 114.411C170.099 110.431 167.928 106.49 164.183 104.57C158.433 101.692 151.767 101.837 145.497 101.897C140.92 102.139 135.998 102.536 132.12 105.227C129.143 107.266 128.239 111.382 129.301 114.697C130.303 117.077 133.05 117.845 135.299 118.553C148.248 121.94 161.97 121.602 174.672 126.059C179.931 127.876 185.075 131.409 186.875 136.915C189.23 144.295 188.198 153.115 182.947 159.039C178.689 163.914 172.488 166.568 166.303 168.009C158.075 169.844 149.536 169.891 141.18 169.076C133.323 168.18 125.146 166.116 119.081 160.763C113.894 156.259 111.361 149.241 111.612 142.469C111.672 141.325 112.811 140.527 113.907 140.621C117.046 140.596 120.186 140.587 123.325 140.626C124.58 140.536 125.509 141.62 125.574 142.802C126.152 146.593 127.577 150.573 130.884 152.82C137.264 156.937 145.271 156.655 152.577 156.77C158.63 156.502 165.425 156.421 170.364 152.42C172.97 150.138 173.742 146.32 173.038 143.036C172.275 140.263 169.374 138.971 166.883 138.126C154.1 134.083 140.224 135.55 127.565 130.977C122.425 129.161 117.455 125.727 115.481 120.447C112.726 112.974 113.988 103.73 119.789 98.0061C125.445 92.312 133.609 90.1192 141.372 89.3346V89.3351"/>
    </g>

    <g id="powershell">
        <linearGradient id="a" x1="96.306" x2="25.454" y1="35.144" y2="98.431" gradientTransform="matrix(1 0 0 -1 0 128)" gradientUnits="userSpaceOnUse"><stop offset="0" stop-color="#a9c8ff"/><stop offset="1" stop-color="#c7e6ff"/></linearGradient><path fill="url(#a)" fill-rule="evenodd" d="M7.2 110.5c-1.7 0-3.1-.7-4.1-1.9-1-1.2-1.3-2.9-.9-4.6l18.6-80.5c.8-3.4 4-6 7.4-6h92.6c1.7 0 3.1.7 4.1 1.9 1 1.2 1.3 2.9.9 4.6l-18.6 80.5c-.8 3.4-4 6-7.4 6H7.2z" clip-rule="evenodd" opacity=".8"/><linearGradient id="b" x1="25.336" x2="94.569" y1="98.33" y2="36.847" gradientTransform="matrix(1 0 0 -1 0 128)" gradientUnits="userSpaceOnUse"><stop offset="0" stop-color="#2d4664"/><stop offset=".169" stop-color="#29405b"/><stop offset=".445" stop-color="#1e2f43"/><stop offset=".79" stop-color="#0c131b"/><stop offset="1"/></linearGradient><path fill="url(#b)" fill-rule="evenodd" d="M120.3 18.5H28.5c-2.9 0-5.7 2.3-6.4 5.2L3.7 104.3c-.7 2.9 1.1 5.2 4 5.2h91.8c2.9 0 5.7-2.3 6.4-5.2l18.4-80.5c.7-2.9-1.1-5.3-4-5.3z" clip-rule="evenodd"/><path fill="#2C5591" fill-rule="evenodd" d="M64.2 88.3h22.3c2.6 0 4.7 2.2 4.7 4.9s-2.1 4.9-4.7 4.9H64.2c-2.6 0-4.7-2.2-4.7-4.9s2.1-4.9 4.7-4.9zM78.7 66.5c-.4.8-1.2 1.6-2.6 2.6L34.6 98.9c-2.3 1.6-5.5 1-7.3-1.4-1.7-2.4-1.3-5.7.9-7.3l37.4-27.1v-.6l-23.5-25c-1.9-2-1.7-5.3.4-7.4 2.2-2 5.5-2 7.4 0l28.2 30c1.7 1.9 1.8 4.5.6 6.4z" clip-rule="evenodd"/><path fill="#FFF" fill-rule="evenodd" d="M77.6 65.5c-.4.8-1.2 1.6-2.6 2.6L33.6 97.9c-2.3 1.6-5.5 1-7.3-1.4-1.7-2.4-1.3-5.7.9-7.3l37.4-27.1v-.6l-23.5-25c-1.9-2-1.7-5.3.4-7.4 2.2-2 5.5-2 7.4 0l28.2 30c1.7 1.8 1.8 4.4.5 6.4zM63.5 87.8h22.3c2.6 0 4.7 2.1 4.7 4.6 0 2.6-2.1 4.6-4.7 4.6H63.5c-2.6 0-4.7-2.1-4.7-4.6 0-2.6 2.1-4.6 4.7-4.6z" clip-rule="evenodd"/>
    </g>

    <g id="pnpm-dark">
        <g clip-path="url(#clip0_33_608)">
            <path d="M196 0H60C26.8629 0 0 26.8629 0 60V196C0 229.137 26.8629 256 60 256H196C229.137 256 256 229.137 256 196V60C256 26.8629 229.137 0 196 0Z" fill="#242938"/>
            <rect x="40" y="41" width="55" height="55" fill="#F9AD00"/>
            <rect x="100" y="41" width="55" height="55" fill="#F9AD00"/>
            <rect x="160" y="41" width="55" height="55" fill="#F9AD00"/>
            <rect x="160" y="101" width="55" height="55" fill="#F9AD00"/>
            <rect x="160" y="161" width="55" height="55" fill="#4E4E4E"/>
            <rect x="100" y="161" width="55" height="55" fill="#4E4E4E"/>
            <rect x="40" y="161" width="55" height="55" fill="#4E4E4E"/>
            <rect x="40" y="101" width="55" height="55" fill="#242938"/>
            <rect x="100" y="101" width="55" height="55" fill="#4E4E4E"/>
        </g>
        <defs>
            <clipPath id="clip0_33_608">
                <rect width="256" height="256" fill="white"/>
            </clipPath>
        </defs>
    </g>

    <g id="vite-dark">
        <rect width="256" height="256" rx="60" fill="#242938"/>
        <path d="M227.088 57.6016L133.256 225.389C131.318 228.854 126.341 228.874 124.375 225.427L28.6823 57.6177C26.54 53.861 29.7524 49.3105 34.0096 50.0715L127.942 66.8613C128.541 66.9684 129.155 66.9674 129.754 66.8582L221.722 50.0955C225.965 49.3222 229.192 53.8374 227.088 57.6016Z" fill="url(#paint0_linear_307_179)"/>
        <path d="M172.687 28.0492L103.249 41.6554C102.107 41.879 101.262 42.8462 101.194 44.007L96.9221 116.148C96.8216 117.847 98.3821 119.166 100.04 118.783L119.373 114.322C121.182 113.905 122.816 115.498 122.445 117.317L116.701 145.443C116.314 147.336 118.092 148.954 119.94 148.393L131.881 144.765C133.732 144.203 135.511 145.826 135.119 147.721L125.991 191.9C125.42 194.664 129.096 196.171 130.629 193.801L131.653 192.219L188.235 79.2992C189.183 77.4085 187.549 75.2526 185.472 75.6534L165.573 79.494C163.703 79.8545 162.112 78.113 162.639 76.2834L175.628 31.2582C176.156 29.4255 174.559 27.6825 172.687 28.0492Z" fill="url(#paint1_linear_307_179)"/>
        <defs>
            <linearGradient id="paint0_linear_307_179" x1="26.3459" y1="44.075" x2="143.127" y2="202.673" gradientUnits="userSpaceOnUse">
                <stop stop-color="#41D1FF"/>
                <stop offset="1" stop-color="#BD34FE"/>
            </linearGradient>
            <linearGradient id="paint1_linear_307_179" x1="122.551" y1="31.7433" x2="143.676" y2="176.66" gradientUnits="userSpaceOnUse">
                <stop stop-color="#FFEA83"/>
                <stop offset="0.0833333" stop-color="#FFDD35"/>
                <stop offset="1" stop-color="#FFA800"/>
            </linearGradient>
        </defs>
    </g>

    <g id="npm-dark">
        <g clip-path="url(#clip0_33_588)">
            <path d="M196 0H60C26.8629 0 0 26.8629 0 60V196C0 229.137 26.8629 256 60 256H196C229.137 256 256 229.137 256 196V60C256 26.8629 229.137 0 196 0Z" fill="#242938"/>
            <g clip-path="url(#clip1_33_588)">
                <path d="M23 88H233V156.571H128V168H81.3333V156.571H23V88ZM34.6667 145.143H58V110.857H69.6667V145.143H81.3333V99.4286H34.6667V145.143ZM93 99.4286V156.571H116.333V145.143H139.667V99.4286H93ZM116.333 110.857H128V133.714H116.333V110.857ZM151.333 99.4286V145.143H174.667V110.857H186.333V145.143H198V110.857H209.667V145.143H221.333V99.4286H151.333Z" fill="#CB3837"/>
                <path d="M34.6667 145.143H58V110.857H69.6667V145.143H81.3334V99.4286H34.6667V145.143Z" fill="white"/>
                <path d="M93 99.4286V156.571H116.333V145.143H139.667V99.4286H93ZM128 133.714H116.333V110.857H128V133.714Z" fill="white"/>
                <path d="M151.333 99.4286V145.143H174.667V110.857H186.333V145.143H198V110.857H209.667V145.143H221.333V99.4286H151.333Z" fill="white"/>
            </g>
        </g>
        <defs>
            <clipPath id="clip0_33_588">
                <rect width="256" height="256" fill="white"/>
            </clipPath>
            <clipPath id="clip1_33_588">
                <rect width="210" height="80" fill="white" transform="translate(23 88)"/>
            </clipPath>
        </defs>
    </g>

    <g id="yarn-dark">
        <g clip-path="url(#clip0_33_528)">
            <path d="M196 0H60C26.8629 0 0 26.8629 0 60V196C0 229.137 26.8629 256 60 256H196C229.137 256 256 229.137 256 196V60C256 26.8629 229.137 0 196 0Z" fill="#242938"/>
            <g clip-path="url(#clip1_33_528)">
                <path d="M128.045 28C182.695 28.1073 226.564 71.5842 227.967 125.288C229.453 182.971 182.456 229.288 125.709 227.975C72.6527 226.77 30.4436 184.432 28.1074 132.635C25.507 75.2327 71.431 27.9588 128.045 28Z" fill="#3398C2"/>
                <path d="M91.2105 98.0318C91.8626 95.4976 92.8037 93.046 94.009 90.7099C95.1895 88.4565 96.8736 86.7725 99.3171 85.9636C101.067 85.394 102.528 84.3869 103.841 83.058C108.472 78.4024 114.094 75.6949 120.632 74.9685C121.705 74.8612 122.25 74.465 122.663 73.4579C123.645 71.0723 124.867 68.7776 126.485 66.7469C128.623 64.0559 131.182 62.0501 134.881 62.2647C137.217 62.3968 139.165 63.3791 140.585 65.2611C142.178 67.3578 143.359 69.7021 144.498 72.0629C144.87 72.8305 145.175 73.1112 146.116 72.9131C149.567 72.1454 152.365 73.656 153.851 76.867C155.577 80.6229 156.41 84.6016 156.823 88.6711C157.698 97.132 157.129 105.461 154.264 113.567C152.58 118.33 150.219 122.746 147.338 126.898C146.991 127.402 146.9 127.732 147.379 128.252C155.098 136.911 158.879 147.006 158.441 158.637V159.471C158.986 159.495 159.407 159.165 159.82 158.942C163.229 157.192 166.333 154.964 169.767 153.238C174.597 150.811 179.649 149.111 185.13 149.152C193.237 149.218 198.446 157.11 195.053 164.143C193.716 166.916 191.537 168.889 188.54 169.541C183.075 170.763 178.221 173.239 173.59 176.277C165.962 181.345 157.607 185.109 148.865 187.99C148.279 188.188 147.726 188.428 147.222 188.824C144.886 190.574 142.154 191.292 139.306 191.688C130.671 192.893 121.994 193.413 113.293 193.785C109.71 193.942 106.144 193.455 102.974 191.556C102.124 191.028 101.381 190.045 100.506 189.897C99.6556 189.765 98.6897 190.549 97.7486 190.772C92.1763 192.018 86.9508 190.97 82.1214 188.04C79.2569 186.314 77.903 183.582 78.0516 180.214C78.0929 179.315 77.837 178.662 77.3086 177.944C74.9889 174.708 73.8579 171.019 73.2223 167.123C71.9757 159.454 74.7082 153.114 79.777 147.559C80.2558 147.031 80.4291 146.511 80.4291 145.809C80.4291 138.141 81.8903 130.835 85.8281 124.149C88.0322 120.41 90.8803 117.199 94.0503 114.293C94.6612 113.748 94.7272 113.377 94.3145 112.675C92.9771 110.447 92.1516 107.995 91.4251 105.502C90.8142 105.065 91.2105 104.388 90.9628 103.843C90.9216 103.43 90.9628 103.009 90.8307 102.597V99.8643C90.9381 99.468 90.9381 99.0553 90.9381 98.6426C91.0371 98.4445 90.9958 98.1803 91.2105 98.0318Z" fill="#FEFEFE"/>
                <path d="M91.1444 103.826C91.3178 104.371 91.1032 104.982 91.4251 105.51C91.3343 105.576 91.3343 106.014 91.2105 105.709C90.9711 105.122 90.7977 104.462 90.7977 103.826C90.7564 101.73 90.5583 99.6084 91.1444 97.5283C91.1692 97.7016 91.1857 97.875 91.2352 98.0318C91.2105 98.2299 91.194 98.428 91.1692 98.6014C90.9711 98.9728 91.194 99.4103 90.9958 99.7818V102.646C91.1444 103.018 90.9546 103.455 91.1444 103.826Z" fill="#3298C3"/>
                <path d="M152.572 159.776C152.572 161.79 152.109 163.755 151.854 165.719C151.639 167.444 151.812 167.643 153.562 167.337C157.5 166.66 161.058 165.001 164.492 163.053C168.166 160.956 171.666 158.571 175.596 157.002C178.634 155.781 181.738 154.972 185.04 154.972C187.904 154.972 189.894 156.524 190.24 158.975C190.571 161.245 189.324 163.416 187.046 163.895C180.532 165.274 174.91 168.485 169.429 172.051C162.082 176.797 154.082 180.223 145.753 182.848C145.447 182.938 145.051 183.004 144.853 183.194C142.888 185.274 140.288 185.621 137.663 185.968C130.299 186.934 122.886 187.363 115.456 187.8C113.318 187.932 111.172 187.998 109.034 187.586C105.624 186.909 104.179 185.638 103.659 182.839C103.197 180.322 104.378 177.944 106.895 176.302C107.16 176.128 107.44 175.955 107.861 175.691C106.507 174.857 105.393 173.875 104.543 172.653C104.13 172.084 103.907 172.439 103.775 172.917C103.362 174.494 102.941 176.087 102.528 177.664C102.248 178.712 101.893 179.744 101.455 180.743C100.184 183.648 97.8725 185.051 94.8098 185.332C91.681 185.613 88.7339 184.919 85.9354 183.541C84.0119 182.6 83.4423 181.18 84.0779 179.1C84.4081 177.986 85.0438 177.02 85.8033 175.839C83.1616 176.368 81.9976 174.832 81.0813 172.975C79.0257 168.906 78.324 164.605 79.1578 160.147C79.8347 156.606 81.9151 153.725 84.4081 151.233C85.8693 149.771 86.3069 148.368 86.2656 146.313C85.9354 134.443 90.418 124.694 99.6473 117.158C100.456 116.481 101.265 115.779 102.116 115.168C102.644 114.797 102.702 114.557 102.273 114.013C99.8867 111.016 98.0293 107.764 97.179 103.983C96.2132 99.724 97.6578 96.0259 99.8042 92.4847C100.11 92.006 100.588 91.7666 101.117 91.5685C103.808 90.6027 106.078 89.1416 108.134 87.0862C112.765 82.4554 118.494 80.334 125.049 80.6147C125.883 80.6559 126.254 80.4165 126.51 79.6324C127.492 76.768 128.714 74.011 130.357 71.4603C130.968 70.4946 131.645 69.6031 132.52 68.8849C134.138 67.5477 135.516 67.7458 136.606 69.5205C138.62 72.7315 140.172 76.1902 141.741 79.6406C142.137 80.5156 142.443 80.821 143.359 80.2267C144.432 79.5498 145.629 79.0711 146.834 78.6501C147.8 78.3199 148.362 78.5428 148.783 79.5498C150.004 82.4967 150.665 85.5839 151.036 88.7537C151.144 89.6286 151.342 90.4789 151.234 91.3539C151.168 93.2524 151.259 95.1592 151.276 97.0825C151.276 97.9328 150.97 98.7912 151.234 99.658C151.036 104.858 149.658 109.778 147.652 114.541C145.769 118.998 143.037 122.952 140.304 126.915C139.231 128.442 139.256 128.466 140.651 129.713C147.47 135.854 151.234 143.572 152.497 152.578C152.539 152.925 152.522 153.296 152.522 153.668C152.242 154.501 152.547 155.31 152.564 156.119C152.638 157.349 152.357 158.579 152.572 159.776Z" fill="#3398C2"/>
                <path d="M151.259 99.6744C150.995 99.4598 151.061 99.1461 151.061 98.8655V92.1958C151.061 91.9151 150.995 91.6097 151.259 91.3868C151.548 94.1439 151.565 96.9174 151.259 99.6744Z" fill="#2B95C1"/>
                <path d="M152.572 159.776C152.134 158.092 152.481 156.392 152.374 154.708C152.349 154.361 152.242 153.965 152.572 153.684C152.852 155.715 152.811 157.745 152.572 159.776Z" fill="#2693BF"/>
                <path d="M90.9711 99.7817C90.9958 99.3855 90.7977 98.948 91.1444 98.6013C91.1444 98.9893 91.1692 99.4103 90.9711 99.7817ZM91.1444 103.826C90.8142 103.48 90.9876 103.042 90.9711 102.646C91.1939 103.018 91.1444 103.43 91.1444 103.826Z" fill="#3398C2"/>
            </g>
        </g>
        <defs>
            <clipPath id="clip0_33_528">
                <rect width="256" height="256" fill="white"/>
            </clipPath>
            <clipPath id="clip1_33_528">
                <rect width="200" height="200" fill="white" transform="translate(28 28)"/>
            </clipPath>
        </defs>
    </g>

    <g id="webstorm">
        <g clip-path="url(#clip0_36_1182)">
            <path d="M196 0H60C26.8629 0 0 26.8629 0 60V196C0 229.137 26.8629 256 60 256H196C229.137 256 256 229.137 256 196V60C256 26.8629 229.137 0 196 0Z" fill="#242938"/>
            <g clip-path="url(#clip1_36_1182)">
                <path d="M63.5 198.25L40 58.25L83.75 40.25L111.5 56.75L137 43L190.25 63.5L160.25 215L63.5 198.25Z" fill="url(#paint0_linear_36_1182)"/>
                <path d="M215 99.25L192.5 43.5L151.5 40L88.25 100.75L105.25 179L137 201.5L215 155L195.75 119.25L215 99.25Z" fill="url(#paint1_linear_36_1182)"/>
                <path d="M180 91L195.75 119.25L215 99.25L201 64.5L180 91Z" fill="url(#paint2_linear_36_1182)"/>
                <path d="M181.5 73.5H73.5V181.5H181.5V73.5Z" fill="black"/>
                <path d="M124.25 161.25H83.75V168H124.25V161.25Z" fill="white"/>
                <path d="M136.75 125.75L142.5 118.75C146.5 122 150.75 124.25 155.75 124.25C159.75 124.25 162 122.75 162 120V119.75C162 117.25 160.5 116 153 114C144 111.75 138.5 109.25 138.5 100.25V100C138.5 91.75 145 86.5 154 86.5C160.5 86.5 166 88.5 170.5 92.25L165.5 99.75C161.5 97 157.75 95.25 154 95.25C150.25 95.25 148.25 97 148.25 99.25V99.5C148.25 102.5 150.25 103.5 157.75 105.5C166.75 108 171.75 111.25 171.75 119V119.25C171.75 128.25 165 133.25 155.5 133.25C148.75 133 142 130.5 136.75 125.75Z" fill="white"/>
                <path d="M128 87.5L121.25 113.5L113.75 87.5H106.25L98.5 113.5L91.75 87.5H81.5L94.25 132.25H102.5L110 106.25L117.25 132.25H125.75L138.5 87.5H128Z" fill="white"/>
            </g>
        </g>
        <defs>
            <linearGradient id="paint0_linear_36_1182" x1="102.67" y1="43.6498" x2="147.957" y2="206.687" gradientUnits="userSpaceOnUse">
                <stop offset="0.2849" stop-color="#00CDD7"/>
                <stop offset="0.9409" stop-color="#2086D7"/>
            </linearGradient>
            <linearGradient id="paint1_linear_36_1182" x1="116.8" y1="64.3357" x2="193.413" y2="176.677" gradientUnits="userSpaceOnUse">
                <stop offset="0.1398" stop-color="#FFF045"/>
                <stop offset="0.3656" stop-color="#00CDD7"/>
            </linearGradient>
            <linearGradient id="paint2_linear_36_1182" x1="192.705" y1="78.225" x2="202.765" y2="113.86" gradientUnits="userSpaceOnUse">
                <stop offset="0.2849" stop-color="#00CDD7"/>
                <stop offset="0.9409" stop-color="#2086D7"/>
            </linearGradient>
            <clipPath id="clip0_36_1182">
                <rect width="256" height="256" fill="white"/>
            </clipPath>
            <clipPath id="clip1_36_1182">
                <rect width="175" height="175" fill="white" transform="translate(40 40)"/>
            </clipPath>
        </defs>
    </g>

    <g id="vscode">
        <path d="M101.535 17.605L81.354 7.88899C80.2143 7.33948 78.9319 7.15814 77.6845 7.37011C76.4372 7.58208 75.2867 8.17686 74.3925 9.07199L8.32998 69.3C7.52845 70.0273 7.04865 71.0432 6.99614 72.1243C6.94363 73.2053 7.32271 74.2629 8.04998 75.0645C8.13748 75.159 8.22498 75.25 8.31948 75.334L13.713 80.234C14.4178 80.8754 15.3249 81.2497 16.277 81.2919C17.229 81.3341 18.1657 81.0416 18.9245 80.465L98.497 20.125C99.098 19.6689 99.8144 19.3897 100.566 19.3186C101.317 19.2476 102.073 19.3877 102.749 19.7231C103.424 20.0585 103.993 20.5758 104.391 21.217C104.789 21.8581 105 22.5975 105 23.352V23.1175C105 21.9656 104.675 20.8372 104.062 19.862C103.449 18.8868 102.573 18.1045 101.535 17.605Z" fill="#0065A9"/>
        <path d="M101.535 94.395L81.354 104.115C80.214 104.662 78.9319 104.843 77.6849 104.631C76.4379 104.419 75.2875 103.825 74.3925 102.932L8.32998 42.7C7.52845 41.9727 7.04865 40.9568 6.99614 39.8758C6.94363 38.7947 7.32271 37.7371 8.04998 36.9355C8.13748 36.841 8.22498 36.75 8.31948 36.666L13.713 31.766C14.4185 31.1219 15.3277 30.7459 16.2821 30.7037C17.2365 30.6615 18.1754 30.9557 18.935 31.535L98.497 91.875C99.098 92.3311 99.8144 92.6104 100.566 92.6814C101.317 92.7524 102.073 92.6123 102.749 92.2769C103.424 91.9415 103.993 91.4242 104.391 90.783C104.789 90.1419 105 89.4025 105 88.648V88.9C104.996 90.0488 104.669 91.1733 104.057 92.1451C103.444 93.1168 102.57 93.8965 101.535 94.395Z" fill="#007ACC"/>
        <path d="M81.354 104.114C80.214 104.662 78.9319 104.843 77.6849 104.631C76.4379 104.419 75.2875 103.825 74.3925 102.931C74.8951 103.428 75.5329 103.764 76.2261 103.899C76.9192 104.034 77.6368 103.962 78.289 103.691C78.9411 103.42 79.4988 102.963 79.8921 102.376C80.2854 101.79 80.4969 101.1 80.5 100.394V11.606C80.5006 10.8965 80.2906 10.2028 79.8966 9.61274C79.5026 9.02271 78.9423 8.56288 78.2868 8.29152C77.6312 8.02016 76.9099 7.94946 76.2141 8.0884C75.5184 8.22734 74.8795 8.56965 74.3785 9.07197C75.2728 8.17717 76.4231 7.58235 77.6702 7.3698C78.9174 7.15724 80.1997 7.33744 81.34 7.88547L101.517 17.5875C102.559 18.0845 103.438 18.8657 104.054 19.8411C104.67 20.8165 104.998 21.9463 105 23.1V88.9C105 90.0528 104.675 91.1822 104.061 92.1581C103.447 93.134 102.571 93.9167 101.531 94.416L81.354 104.114Z" fill="#1F9CF0"/>
    </g>

    <g id="bootstrap">
        <g clip-path="url(#clip0_13_2990)">
            <path d="M0.399963 75.7821C0.399963 81.9781 5.48024 87 11.7468 87H77.0528C83.3204 87 88.4 81.9774 88.4 75.7821V11.2182C88.4 5.02187 83.3197 0 77.0531 0H11.7472C5.47956 0 0.399963 5.02255 0.399963 11.2179V75.7818V75.7821Z" fill="#563D7C"/>
            <path d="M36.8918 38.4832V26.1629H47.8612C48.9062 26.1629 49.9134 26.2489 50.8834 26.4212C51.8535 26.5931 52.7118 26.9003 53.4581 27.3431C54.2041 27.786 54.8012 28.4007 55.2491 29.1875C55.6966 29.9746 55.9208 30.9829 55.9208 32.2121C55.9208 34.4255 55.2491 36.0241 53.9057 37.0076C52.5627 37.9915 50.8463 38.4832 48.7567 38.4832H36.8918ZM25.1758 17.1621V69.8379H50.9955C53.3835 69.8379 55.7093 69.5429 57.9729 68.9526C60.2365 68.3623 62.2513 67.4525 64.0174 66.223C65.7833 64.9934 67.1889 63.407 68.2335 61.4645C69.2785 59.5216 69.8007 57.2222 69.8007 54.5663C69.8007 51.2709 68.9922 48.4553 67.3755 46.1192C65.7585 43.7828 63.3083 42.1474 60.0248 41.2129C62.4128 40.0819 64.2165 38.6307 65.4354 36.8601C66.654 35.0895 67.2635 32.8765 67.2635 30.2203C67.2635 27.7612 66.853 25.6956 66.0322 24.0232C65.2113 22.3512 64.0546 21.0108 62.562 20.0025C61.0698 18.9942 59.2788 18.2686 57.1892 17.8262C55.0999 17.3833 52.7864 17.1621 50.2492 17.1621H25.1758ZM36.8918 60.8371V46.3771H49.6521C52.1893 46.3771 54.2292 46.9548 55.7716 48.111C57.3136 49.2668 58.085 51.1971 58.085 53.9023C58.085 55.2797 57.8485 56.4107 57.3758 57.296C56.9032 58.1813 56.269 58.8823 55.4728 59.3986C54.6771 59.9151 53.7565 60.2839 52.7118 60.5054C51.6668 60.7263 50.5727 60.8371 49.4283 60.8371H36.8918Z" fill="white"/>
        </g>
        <defs>
            <clipPath id="clip0_13_2990">
                <rect width="88" height="87" fill="white" transform="translate(0.399963)"/>
            </clipPath>
        </defs>
    </g>

    <g id="tailwind">
        <path d="M36.8438 56.0844C40.6646 40.801 50.2167 33.1594 65.5 33.1594C88.425 33.1594 91.2906 50.3531 102.753 53.2187C110.395 55.1292 117.081 52.2635 122.812 44.6219C118.992 59.9052 109.44 67.5469 94.1562 67.5469C71.2313 67.5469 68.3656 50.3531 56.9031 47.4875C49.2615 45.5771 42.575 48.4427 36.8438 56.0844ZM8.1875 90.4719C12.0083 75.1885 21.5604 67.5469 36.8438 67.5469C59.7687 67.5469 62.6344 84.7406 74.0969 87.6062C81.7385 89.5167 88.425 86.651 94.1562 79.0094C90.3354 94.2927 80.7833 101.934 65.5 101.934C42.575 101.934 39.7094 84.7406 28.2469 81.875C20.6052 79.9646 13.9187 82.8302 8.1875 90.4719Z" fill="#44A8B3"/>
    </g>

    <g id="notion-dark">
        <g clip-path="url(#clip0_33_867)">
            <path d="M196 0H60C26.8629 0 0 26.8629 0 60V196C0 229.137 26.8629 256 60 256H196C229.137 256 256 229.137 256 196V60C256 26.8629 229.137 0 196 0Z" fill="#242938"/>
            <g clip-path="url(#clip1_33_867)">
                <path d="M50.5298 47.548L147.362 40.3958C159.257 39.3755 162.313 40.0633 169.792 45.5005L200.702 67.2758C205.8 71.0208 207.498 72.041 207.498 76.1185V195.544C207.498 203.029 204.78 207.456 195.265 208.132L82.8172 214.943C75.6772 215.28 72.277 214.26 68.5372 209.495L45.775 179.895C41.6923 174.448 40 170.37 40 165.603V59.448C40 53.3283 42.7178 48.2253 50.5298 47.548Z" fill="white"/>
                <path fill-rule="evenodd" clip-rule="evenodd" d="M147.362 40.3975L50.5298 47.5498C42.7178 48.2253 40 53.33 40 59.448V165.603C40 170.368 41.6923 174.446 45.775 179.895L68.5372 209.493C72.277 214.258 75.6772 215.28 82.8172 214.941L195.267 208.133C204.775 207.456 207.499 203.029 207.499 195.546V76.1203C207.499 72.2528 205.972 71.138 201.474 67.8375L169.792 45.5005C162.314 40.0633 159.257 39.3755 147.362 40.3958V40.3975ZM85.36 74.1655C76.1777 74.7833 74.0952 74.9233 68.8803 70.683L55.6222 60.1375C54.2747 58.7725 54.952 57.0698 58.347 56.7303L151.435 49.928C159.252 49.2455 163.323 51.9703 166.38 54.3503L182.345 65.9178C183.027 66.2625 184.725 68.2978 182.683 68.2978L86.55 74.085L85.36 74.1655ZM74.6553 194.525V93.1425C74.6553 88.715 76.015 86.6728 80.0855 86.3298L190.5 79.8653C194.245 79.5275 195.937 81.9075 195.937 86.328V187.035C195.937 191.463 195.255 195.208 189.142 195.546L83.4823 201.671C77.3695 202.008 74.657 199.973 74.657 194.525H74.6553ZM178.955 98.578C179.633 101.641 178.955 104.703 175.893 105.053L170.8 106.063V180.916C166.378 183.296 162.307 184.655 158.906 184.655C153.468 184.655 152.11 182.952 148.038 177.853L114.736 125.458V176.15L125.271 178.536C125.271 178.536 125.271 184.661 116.771 184.661L93.3382 186.02C92.6558 184.655 93.3382 181.255 95.713 180.578L101.833 178.88V111.855L93.34 111.168C92.6575 108.105 94.355 103.683 99.115 103.34L124.257 101.648L158.907 154.72V107.767L150.075 106.752C149.393 103.002 152.11 100.277 155.505 99.9448L178.955 98.578Z" fill="black"/>
            </g>
        </g>
        <defs>
            <clipPath id="clip0_33_867">
                <rect width="256" height="256" fill="white"/>
            </clipPath>
            <clipPath id="clip1_33_867">
                <rect width="175" height="175" fill="white" transform="translate(40 40)"/>
            </clipPath>
        </defs>
    </g>


<!--   contacts -->

    <g id="discord">
        <g clip-path="url(#clip0_158_82)"><path fill="#fff" d="M197.308 64.7966C184.561 58.9476 170.892 54.6383 156.599 52.1701C156.339 52.1225 156.079 52.2415 155.945 52.4796C154.187 55.6064 152.239 59.6856 150.876 62.8918C135.503 60.5904 120.21 60.5904 105.153 62.8918C103.789 59.6143 101.771 55.6064 100.005 52.4796C99.8707 52.2495 99.6107 52.1305 99.3504 52.1701C85.0659 54.6304 71.3963 58.9397 58.6411 64.7966C58.5307 64.8442 58.4361 64.9236 58.3732 65.0267C32.4449 103.763 25.3421 141.547 28.8265 178.863C28.8423 179.046 28.9447 179.22 29.0867 179.331C46.1934 191.894 62.7642 199.521 79.0273 204.576C79.2876 204.655 79.5634 204.56 79.729 204.346C83.5761 199.092 87.0054 193.553 89.9456 187.728C90.1192 187.386 89.9535 186.982 89.5989 186.847C84.1594 184.783 78.98 182.268 73.9977 179.411C73.6037 179.181 73.5721 178.617 73.9347 178.347C74.9831 177.561 76.0318 176.744 77.033 175.919C77.2141 175.768 77.4665 175.736 77.6794 175.831C110.411 190.775 145.846 190.775 178.191 175.831C178.404 175.728 178.657 175.76 178.846 175.911C179.847 176.736 180.895 177.561 181.952 178.347C182.314 178.617 182.291 179.181 181.897 179.411C176.914 182.323 171.735 184.783 166.288 186.839C165.933 186.974 165.775 187.386 165.949 187.728C168.952 193.545 172.381 199.084 176.157 204.338C176.315 204.56 176.599 204.655 176.859 204.576C193.201 199.521 209.772 191.894 226.879 179.331C227.028 179.22 227.123 179.053 227.139 178.871C231.309 135.73 220.154 98.2554 197.568 65.0346C197.513 64.9236 197.419 64.8442 197.308 64.7966ZM94.8335 156.142C84.9792 156.142 76.8594 147.095 76.8594 135.984C76.8594 124.873 84.8217 115.826 94.8335 115.826C104.924 115.826 112.965 124.953 112.807 135.984C112.807 147.095 104.845 156.142 94.8335 156.142ZM161.29 156.142C151.435 156.142 143.316 147.095 143.316 135.984C143.316 124.873 151.278 115.826 161.29 115.826C171.38 115.826 179.421 124.953 179.264 135.984C179.264 147.095 171.38 156.142 161.29 156.142Z"/></g><defs><clipPath id="clip0_158_82"><rect width="200" height="154.93" fill="#fff" transform="translate(28 51)"/></clipPath></defs>
    </g>

    <g id="instagram">
        <rect width="256" height="256" rx="60" fill="url(#paint0_radial_206_683)"/>
        <rect width="256" height="256" rx="60" fill="url(#paint1_radial_206_683)"/>
        <path d="M128.009 28C100.851 28 97.4424 28.1188 86.7756 28.6042C76.1297 29.0917 68.8629 30.7771 62.5045 33.2501C55.9274 35.8042 50.3481 39.221 44.7898 44.7814C39.2272 50.3398 35.8105 55.919 33.248 62.4941C30.7688 68.8546 29.0813 76.1234 28.6021 86.7652C28.125 97.432 28 100.842 28 128.001C28 155.16 28.1208 158.558 28.6042 169.224C29.0938 179.87 30.7792 187.137 33.2501 193.495C35.8063 200.073 39.223 205.652 44.7835 211.21C50.3398 216.773 55.919 220.198 62.492 222.752C68.8546 225.225 76.1234 226.91 86.7673 227.398C97.4341 227.883 100.84 228.002 127.997 228.002C155.158 228.002 158.556 227.883 169.222 227.398C179.868 226.91 187.143 225.225 193.506 222.752C200.081 220.198 205.652 216.773 211.208 211.21C216.771 205.652 220.187 200.073 222.75 193.498C225.208 187.137 226.896 179.868 227.396 169.226C227.875 158.56 228 155.16 228 128.001C228 100.842 227.875 97.4341 227.396 86.7673C226.896 76.1213 225.208 68.8546 222.75 62.4962C220.187 55.919 216.771 50.3398 211.208 44.7814C205.646 39.2189 200.083 35.8022 193.5 33.2501C187.125 30.7771 179.854 29.0917 169.208 28.6042C158.541 28.1188 155.145 28 127.978 28H128.009ZM119.038 46.021C121.701 46.0169 124.672 46.021 128.009 46.021C154.71 46.021 157.874 46.1169 168.418 46.596C178.168 47.0419 183.46 48.671 186.985 50.0398C191.652 51.8523 194.979 54.019 198.477 57.5191C201.977 61.0191 204.143 64.3525 205.96 69.0192C207.329 72.54 208.96 77.8318 209.404 87.5819C209.883 98.1236 209.987 101.29 209.987 127.978C209.987 154.666 209.883 157.833 209.404 168.374C208.958 178.124 207.329 183.416 205.96 186.937C204.148 191.604 201.977 194.927 198.477 198.425C194.977 201.925 191.654 204.091 186.985 205.904C183.464 207.279 178.168 208.904 168.418 209.35C157.876 209.829 154.71 209.933 128.009 209.933C101.307 209.933 98.1424 209.829 87.6006 209.35C77.8505 208.9 72.5588 207.271 69.0317 205.902C64.365 204.089 61.0316 201.923 57.5316 198.423C54.0315 194.923 51.8648 191.598 50.0481 186.929C48.6794 183.408 47.0481 178.116 46.6044 168.366C46.1252 157.824 46.0294 154.658 46.0294 127.953C46.0294 101.249 46.1252 98.0986 46.6044 87.5569C47.0502 77.8068 48.6794 72.515 50.0481 68.99C51.8607 64.3233 54.0315 60.9899 57.5316 57.4899C61.0316 53.9899 64.365 51.8232 69.0317 50.0065C72.5567 48.6315 77.8505 47.0064 87.6006 46.5585C96.8257 46.1419 100.401 46.0169 119.038 45.996V46.021ZM181.389 62.6254C174.764 62.6254 169.389 67.9942 169.389 74.6213C169.389 81.2464 174.764 86.6214 181.389 86.6214C188.014 86.6214 193.389 81.2464 193.389 74.6213C193.389 67.9962 188.014 62.6212 181.389 62.6212V62.6254ZM128.009 76.6463C99.6487 76.6463 76.6547 99.6403 76.6547 128.001C76.6547 156.362 99.6487 179.345 128.009 179.345C156.37 179.345 179.356 156.362 179.356 128.001C179.356 99.6403 156.368 76.6463 128.007 76.6463H128.009ZM128.009 94.6674C146.418 94.6674 161.343 109.59 161.343 128.001C161.343 146.41 146.418 161.335 128.009 161.335C109.599 161.335 94.6757 146.41 94.6757 128.001C94.6757 109.59 109.599 94.6674 128.009 94.6674V94.6674Z" fill="white"/>
        <defs>
            <radialGradient id="paint0_radial_206_683" cx="0" cy="0" r="1" gradientUnits="userSpaceOnUse" gradientTransform="translate(68.0003 275.717) rotate(-90) scale(253.715 235.975)">
                <stop stop-color="#FFDD55"/>
                <stop offset="0.1" stop-color="#FFDD55"/>
                <stop offset="0.5" stop-color="#FF543E"/>
                <stop offset="1" stop-color="#C837AB"/>
            </radialGradient>
            <radialGradient id="paint1_radial_206_683" cx="0" cy="0" r="1" gradientUnits="userSpaceOnUse" gradientTransform="translate(-42.8814 18.4418) rotate(78.6806) scale(113.412 467.488)">
                <stop stop-color="#3771C8"/>
                <stop offset="0.128" stop-color="#3771C8"/>
                <stop offset="1" stop-color="#6600FF" stop-opacity="0"/>
            </radialGradient>
        </defs>
    </g>

    <g id="linkedin">
        <rect width="256" height="256" rx="60" fill="white"/>
        <rect width="256" height="256" rx="60" fill="#0A66C2"/>
        <path d="M184.715 217.685H213.985C216.194 217.685 217.985 215.895 217.985 213.686L218 151.844C218 119.521 211.035 94.6755 173.262 94.6755C158.903 94.1423 145.362 101.544 138.055 113.904C137.997 114.002 137.893 114.062 137.779 114.062C137.603 114.062 137.46 113.919 137.46 113.743V101.66C137.46 99.4511 135.67 97.6602 133.46 97.6602H105.683C103.474 97.6602 101.683 99.4511 101.683 101.66V213.68C101.683 215.89 103.474 217.68 105.683 217.68H134.951C137.16 217.68 138.951 215.89 138.951 213.68V158.307C138.951 142.65 141.921 127.487 161.332 127.487C180.467 127.487 180.715 145.403 180.715 159.321V213.685C180.715 215.894 182.506 217.685 184.715 217.685Z" fill="white"/>
        <path d="M38 59.6275C38 71.4921 47.7675 81.2539 59.6321 81.2539C71.4944 81.2528 81.2551 71.4853 81.2551 59.623C81.2528 47.7607 71.491 38 59.6275 38C47.763 38 38 47.763 38 59.6275Z" fill="white"/>
        <path d="M44.9588 217.685H74.2659C76.4751 217.685 78.2659 215.894 78.2659 213.685V101.66C78.2659 99.4511 76.4751 97.6602 74.2659 97.6602H44.9588C42.7497 97.6602 40.9588 99.4511 40.9588 101.66V213.685C40.9588 215.894 42.7497 217.685 44.9588 217.685Z" fill="white"/>
    </g>

</svg>
