<svg height="800px" width="800px" version="1.1" id="Capa_1" xmlns="http://www.w3.org/2000/svg" xmlns:xlink="http://www.w3.org/1999/xlink"
	 viewBox="0 0 135.996 135.996" xml:space="preserve">

<!-- logo	-->

	<g id="paw">
	<path style="fill:#010002;" d="M135.975,44.163c-2.011-22.522-18.549-34.153-33.058-35.423
		c-17.848-1.564-27.242,3.919-34.919,11.266c-7.677-7.351-17.103-12.837-34.919-11.27C18.563,10.007,2.026,21.638,0.021,44.163
		L0,51.085l0.021,0.465c2.04,23.56,23.338,47.821,65.11,74.175l2.867,1.804l2.867-1.807c41.772-26.355,63.07-50.619,65.11-74.175
		l0.021-6.907L135.975,44.163z M75.671,38.609c4.141,0,6.71,12.905,6.71,16.609c0,3.697-3.006,6.714-6.71,6.714
		s-6.71-3.017-6.71-6.714C68.961,51.514,71.534,38.609,75.671,38.609z M58.972,38.609c4.033,0.104,6.707,12.905,6.707,16.609
		c0,3.697-3.006,6.714-6.707,6.714c-3.708,0-6.714-3.017-6.714-6.714C52.258,51.514,54.943,38.501,58.972,38.609z M38.405,68.918
		c0-3.704,3.98-16.516,6.71-16.609c2.731-0.093,6.71,12.902,6.71,16.609c0,3.697-3.006,6.71-6.71,6.71
		C41.411,75.628,38.405,72.615,38.405,68.918z M90.223,91.995c-5.576,9.81-9.971,1.163-22.268,1.163
		c-12.301,0-16.395,8.747-22.275-1.163c-3.063-5.189,7.086-9.241,10.357-12.29c4.08-3.811,5.086-10.74,11.918-10.74
		c6.51,0,7.906,6.814,11.978,10.364C83.552,82.482,93.519,86.193,90.223,91.995z M90.888,75.628c-3.711,0-6.718-3.013-6.718-6.71
		c0-3.704,3.357-16.516,6.718-16.609c3.35-0.089,6.703,12.902,6.703,16.609C97.592,72.615,94.585,75.628,90.888,75.628z"/>
</g>

	<g id="logo1">
<path style="fill:#030104;" d="M207.187,2.821c-2.4-2-6.6-3.9-10.7-2.1c-7.8,5.3,27.4,27,9.6,99.6c-3.7,15-12.8,7.2-23.6,3.9
			c-24.6-7.7-50.9-9.4-76.4-12.1c-9-1-18.2-1.7-26.9-4.1c-9.2-2.5-9.6-3-7.3-11.4c6.4-8.1,3.8-19.2,3.5-23.8
			c4.8-10.6,6.6-19.8,2.8-24.5c-10.3-12.2-12,19.4-25.4,19.5c-6.1-0.6-10.1-0.1-11.6-3.4c-2.7-5.7-6.9-13.1-12.3-16.6
			c-8.3-5.5-10,9.7-6.5,24.1c-1.1,8.8-0.3,14.8,4.2,21.2c2.3,3.2,2.8,7.2,3.5,11c1.3,6.6,2.1,14.8,2.1,21.5c0,3.8,0.7,15.6,1.3,19.4
			c2.8,17.2,3.7,20.6,16.6,33.2c5.4,5.3,13.6,9.9,17,17c2.5,5.4,4.7,11.3,7,16.7c4.5,10.4,7.3,21,9.2,32.1c1.1,6-13.2,7.3-10.8,15.6
			c1.9,6.8,20.1,6.7,21.2-1.1c0.7-4.4,2.8-12.4,3.8-18.5c5.3-22.9-2.5-31.8,3.6-52.6c1.6-7.5,30.9,7,34.9,9.7
			c8.1,5.5,16.8,9.9,25,15.2c12.7,8.2,3.9,15.4-4.3,22.1c-4.4,3.6-4.4,3.8-10,2.5c-4.6-0.9-8.2,1.9-9.2,5.2c-1.5,4.7,5.3,7.9,10,7.3
			c14.1-1.5,33.6-16.2,39.7-28.9c4.1,4.8,2.4,9.3,0.1,15.4c-1,2.6-2.1,5.1-3,7.7c-2,5.9-3.9,4.3-8.7,5.4c-7.1,2.3-3.9,12.7,3.9,11.5
			c2.7-0.4,12.9-1.6,14-6.3c0.5-2.1,2.6-6.4,3.6-8.5c2.2-5.2,14.4-32.4,9-37.6c-2.8-2.6-5-5.3-7.1-8.5c-3.3-5.2-1.8-5.8,1.1-10.2
			c3-4.6,5.7-10,8.3-14.8c5.9-11.4,1.5-21.2,6.7-36.4C231.187,69.521,223.187,16.221,207.187,2.821z"/>
	</g>

	<g id="logo2">
		<path style="fill:#030104;" d="M400.645,275.633c-14.921-14.042-28.274-17.582-44.084-17.582c0,0-6.384,0.169-1.303,6.591
		c6.722,8.498,55.875,72.606,55.105,125.066c-0.891,60.735-61.031,57.291-61.031,57.291c25.298-48.092,12.55-93.586,8.616-109.521
		c-7.45-29.424-22.118-57.897-44.175-85.35c-27.198-34.234-54.632-50.475-82.277-48.728c-11.832-20.409-22.327-36.799-31.522-50.204
		C250.053,108.488,217.451,86.88,189.054,0c-6.598,18.43-11.852,32.065-15.799,40.823c-20.063-2.496-64.571-2.495-84.624,0
		C84.684,32.065,79.43,18.43,72.832,0C44.361,87.113,11.651,108.099,62.309,153.054c5.389,102.186,26.465,129.361,60.56,178.729
		c28.058,40.626,21.066,55.093,34.234,111.271c-99.67,62.788,69.299,38.717,95.5,37.423c67.471-3.281,208.15,37.062,196.977-106.548
		C446.343,332.336,427.475,301.11,400.645,275.633z M94.3,95.123c-30.879-2.315-26.51-19.565-11.198-19.077
		c8.708,0.277,19.524,6.37,26.993,19.077H94.3z M167.391,95.123h-15.796c7.47-12.707,18.287-18.799,26.994-19.077
		C193.904,75.558,198.271,92.808,167.391,95.123z"/>
	</g>


<!-- skills	-->

	<g id="html">
		<path d="M22.9817 102.004L14.5554 7.5H107.143L98.7054 101.989L60.7929 112.5L22.9817 102.004Z" fill="#E44F26"/>
		<path d="M60.8492 104.468L91.4867 95.9738L98.6942 15.2288H60.8492V104.468Z" fill="#F1662A"/>
		<path d="M60.8492 50.2762H45.5117L44.4542 38.4075H60.8492V26.8162H31.7867L32.0642 29.9287L34.9104 61.8675H60.8492V50.2762ZM60.8492 80.3775L60.7967 80.3925L47.8892 76.9087L47.0642 67.665H35.4279L37.0517 85.86L60.7967 92.4525L60.8492 92.4375V80.3775Z" fill="#EBEBEB"/>
		<path d="M60.8079 50.2762V61.8675H75.0804L73.7379 76.9012L60.8079 80.3887V92.4487L84.5717 85.86L84.7442 83.9025L87.4667 53.3887L87.7517 50.2762H60.8079ZM60.8079 26.8162V38.4075H88.8054L89.0379 35.805L89.5667 29.9287L89.8442 26.8162H60.8079Z" fill="white"/>
	</g>

	<g id="css">
		<path d="M22.3653 101.154L13.9428 7.4375H106.523L98.089 101.139L60.1765 111.562L22.3653 101.154Z" fill="#1572B6"/>
		<path d="M60.2328 103.597L90.8703 95.174L98.0778 15.1019H60.2328V103.597Z" fill="#33A9DC"/>
		<path d="M60.2328 49.054H75.5703L76.6278 37.2842H60.2328V25.7896H89.2953L89.0178 28.8724L86.1715 60.5487H60.2328V49.054Z" fill="white"/>
		<path d="M60.304 78.9045L60.2515 78.9193L47.344 75.4609L46.519 66.2942H34.8828L36.5065 84.3413L60.2478 90.8788L60.304 90.864V78.9045Z" fill="#EBEBEB"/>
		<path d="M74.584 60.0615L73.189 75.4534L60.2628 78.9119V90.8714L84.0228 84.3412L84.199 82.4001L86.2128 60.0615H74.584Z" fill="white"/>
		<path d="M60.274 25.7896V37.2842H32.2765L32.044 34.6997L31.5153 28.8724L31.2378 25.7896H60.274ZM60.2328 49.054V60.5487H47.4865L47.254 57.9642L46.729 52.1369L46.4515 49.054H60.2328Z" fill="#EBEBEB"/>
	</g>

	<g id="javascript">
		<path d="M8.11639 7.5H113.116V112.5H8.11639V7.5Z" fill="#F5DE19"/>
		<path d="M78.6501 89.5312C79.5448 91.3485 80.9347 92.8759 82.6598 93.9375C84.3848 94.9991 86.3747 95.5515 88.4001 95.5313C92.4876 95.5313 95.1014 93.4875 95.1014 90.6562C95.1014 87.2812 92.4164 86.0738 87.9164 84.105L85.4489 83.0475C78.3239 80.0138 73.5989 76.215 73.5989 68.1825C73.5989 60.7838 79.2239 55.1475 88.0476 55.1475C90.904 54.9412 93.7579 55.5805 96.2534 56.9856C98.7488 58.3907 100.775 60.4994 102.08 63.0488L94.3664 67.98C93.864 66.716 92.9892 65.6345 91.858 64.879C90.7268 64.1236 89.3927 63.7298 88.0326 63.75C87.4392 63.6906 86.84 63.7555 86.273 63.9404C85.7061 64.1254 85.1839 64.4265 84.7397 64.8244C84.2956 65.2224 83.9392 65.7085 83.6932 66.2518C83.4473 66.7951 83.3173 67.3837 83.3114 67.98C83.3114 70.9388 85.1451 72.1388 89.3789 73.98L91.8464 75.0375C100.231 78.6338 104.971 82.2975 104.971 90.5363C104.971 99.42 97.9926 104.287 88.6214 104.287C84.97 104.52 81.3293 103.691 78.1387 101.901C74.948 100.11 72.3438 97.4342 70.6401 94.1963L78.6501 89.5312ZM43.7939 90.3863C45.3426 93.135 46.7526 95.46 50.1426 95.46C53.3826 95.46 55.4301 94.1925 55.4301 89.2612V55.71H65.2964V89.3925C65.2964 99.6075 59.2964 104.257 50.5626 104.257C47.4755 104.426 44.4095 103.657 41.7677 102.051C39.126 100.444 37.0321 98.0761 35.7614 95.2575L43.7939 90.3863Z" fill="black"/>
	</g>

	<g id="typescript">
		<path d="M18.245,23.759v3.068a6.492,6.492,0,0,0,1.764.575,11.56,11.56,0,0,0,2.146.192,9.968,9.968,0,0,0,2.088-.211,5.11,5.11,0,0,0,1.735-.7,3.542,3.542,0,0,0,1.181-1.266,4.469,4.469,0,0,0,.186-3.394,3.409,3.409,0,0,0-.717-1.117,5.236,5.236,0,0,0-1.123-.877,12.027,12.027,0,0,0-1.477-.734q-.6-.249-1.08-.484a5.5,5.5,0,0,1-.813-.479,2.089,2.089,0,0,1-.516-.518,1.091,1.091,0,0,1-.181-.618,1.039,1.039,0,0,1,.162-.571,1.4,1.4,0,0,1,.459-.436,2.439,2.439,0,0,1,.726-.283,4.211,4.211,0,0,1,.956-.1,5.942,5.942,0,0,1,.808.058,6.292,6.292,0,0,1,.856.177,5.994,5.994,0,0,1,.836.3,4.657,4.657,0,0,1,.751.422V13.9a7.509,7.509,0,0,0-1.525-.4,12.426,12.426,0,0,0-1.9-.129,8.767,8.767,0,0,0-2.064.235,5.239,5.239,0,0,0-1.716.733,3.655,3.655,0,0,0-1.171,1.271,3.731,3.731,0,0,0-.431,1.845,3.588,3.588,0,0,0,.789,2.34,6,6,0,0,0,2.395,1.639q.63.26,1.175.509a6.458,6.458,0,0,1,.942.517,2.463,2.463,0,0,1,.626.585,1.2,1.2,0,0,1,.23.719,1.1,1.1,0,0,1-.144.552,1.269,1.269,0,0,1-.435.441,2.381,2.381,0,0,1-.726.292,4.377,4.377,0,0,1-1.018.105,5.773,5.773,0,0,1-1.969-.35A5.874,5.874,0,0,1,18.245,23.759Zm-5.154-7.638h4V13.594H5.938v2.527H9.92V27.375h3.171Z" style="fill:#ffffff;fill-rule:evenodd"/>
	</g>

	<g id="react">
		<path d="M93.1056 32.7027C91.9031 32.2887 90.6904 31.9051 89.4687 31.5523C89.6739 30.7106 89.8628 29.8792 90.0305 29.0623C92.7838 15.6483 90.9839 4.84178 84.8361 1.28375C78.9416 -2.12722 69.3016 1.42949 59.5659 9.93342C58.6064 10.773 57.6682 11.6368 56.7521 12.524C56.1389 11.934 55.5149 11.3556 54.8803 10.7888C44.6767 1.69616 34.4493 -2.13608 28.3081 1.43215C22.4189 4.85374 20.675 15.0127 23.1538 27.7254C23.4004 28.9844 23.6788 30.237 23.9888 31.4819C22.5411 31.8947 21.1442 32.3342 19.8073 32.8019C7.84441 36.9881 0.204742 43.5483 0.204742 50.3529C0.204742 57.3808 8.40627 64.43 20.8661 68.7043C21.8763 69.0495 22.8948 69.3692 23.9209 69.6634C23.5876 71.0042 23.2918 72.354 23.0337 73.7114C20.6706 86.2035 22.516 96.1223 28.3893 99.5222C34.4555 103.033 44.637 99.4247 54.5506 90.7268C55.3545 90.0196 56.1407 89.2925 56.9084 88.546C57.9004 89.5066 58.9189 90.4393 59.9627 91.343C69.566 99.6365 79.0501 102.985 84.9177 99.5762C90.9782 96.055 92.948 85.3995 90.3907 72.4356C90.1892 71.42 89.9633 70.4094 89.7132 69.4047C90.4282 69.1921 91.13 68.9732 91.8141 68.7455C104.767 64.4384 113.195 57.4747 113.195 50.3529C113.195 43.5234 105.309 36.919 93.1056 32.7027ZM90.2962 64.1474C89.6783 64.3525 89.0445 64.5505 88.3983 64.7432C86.9683 60.1995 85.0386 55.3684 82.6769 50.3764C84.9305 45.5036 86.786 40.734 88.1759 36.22C89.3318 36.5558 90.4534 36.9097 91.5347 37.2832C101.991 40.8961 108.369 46.2372 108.369 50.3529C108.369 54.7367 101.481 60.4277 90.2962 64.1474ZM85.6557 73.3765C86.7865 79.1087 86.9476 84.2916 86.1986 88.3435C85.5259 91.9844 84.1727 94.4115 82.499 95.3839C78.9385 97.4526 71.3235 94.7637 63.111 87.6706C62.1401 86.8305 61.1927 85.9634 60.2699 85.0703C63.4539 81.5756 66.6357 77.5131 69.7412 73.0008C75.2036 72.5144 80.3641 71.7188 85.0439 70.6331C85.2694 71.5426 85.4734 72.4573 85.6557 73.3765ZM38.7257 95.0264C35.2468 96.2592 32.4759 96.2946 30.8009 95.3254C27.2369 93.2624 25.7552 85.298 27.7762 74.6151C28.0165 73.3527 28.2915 72.0972 28.6011 70.8502C33.2293 71.8779 38.3523 72.6168 43.8275 73.0624C46.9542 77.4776 50.2278 81.5358 53.5271 85.0894C52.8259 85.7703 52.1082 86.4338 51.3745 87.0793C46.9904 90.9252 42.5974 93.654 38.7257 95.0264ZM22.4277 64.1204C16.9181 62.2302 12.368 59.7738 9.24929 57.0933C6.44659 54.6848 5.032 52.2932 5.032 50.3529C5.032 46.2234 11.1657 40.9564 21.3962 37.3766C22.6378 36.9425 23.9372 36.5327 25.2856 36.1482C26.6997 40.7641 28.5544 45.5904 30.7925 50.4707C28.5252 55.4233 26.6441 60.3267 25.2163 64.997C24.2797 64.7278 23.3499 64.4355 22.4277 64.1204ZM27.891 26.7947C25.7676 15.9031 27.1777 7.68706 30.7268 5.62497C34.5067 3.42867 42.8653 6.56011 51.6755 14.4115C52.25 14.9247 52.8152 15.4482 53.3708 15.9819C50.0879 19.52 46.8443 23.548 43.7454 27.9371C38.4313 28.4315 33.3445 29.2253 28.6678 30.2889C28.3797 29.131 28.1206 27.9661 27.891 26.7951V26.7947ZM76.6301 38.8739C75.5255 36.9589 74.3798 35.0679 73.194 33.2024C76.7991 33.66 80.2533 34.2673 83.4969 35.0098C82.5233 38.1425 81.3095 41.4175 79.8808 44.7753C78.8365 42.7867 77.7527 40.8191 76.6301 38.8739ZM56.7544 19.4443C58.9806 21.8652 61.2104 24.5678 63.4036 27.5003C58.9546 27.2894 54.4982 27.2886 50.0491 27.4977C52.2444 24.5922 54.4932 21.8931 56.7544 19.4443ZM36.751 38.9071C35.6425 40.8367 34.5789 42.792 33.5613 44.7713C32.1559 41.4255 30.9532 38.1355 29.9712 34.9584C33.1949 34.2346 36.6327 33.6427 40.2149 33.1935C39.0159 35.0704 37.8609 36.9754 36.751 38.9067V38.9071ZM40.3177 67.8569C36.6169 67.4423 33.1274 66.881 29.9045 66.1767C30.902 62.9429 32.1312 59.5829 33.567 56.1653C34.5887 58.1461 35.6567 60.1026 36.77 62.033C37.9149 64.0176 39.1004 65.9614 40.3177 67.8569ZM56.8876 81.6027C54.5996 79.1255 52.3177 76.3848 50.0892 73.4372C52.2528 73.5222 54.4583 73.5656 56.7001 73.5656C59.0031 73.5656 61.2797 73.5138 63.5205 73.4137C61.3203 76.4145 59.0989 79.1592 56.8876 81.6027ZM79.9263 55.9907C81.4366 59.446 82.7095 62.7883 83.7203 65.9667C80.4444 66.7171 76.9073 67.3214 73.1804 67.7701C74.3746 65.8699 75.5311 63.9461 76.6491 61.9998C77.7858 60.0214 78.8784 58.0179 79.9263 55.9907ZM72.468 59.5794C70.7564 62.5634 68.9487 65.4909 67.0475 68.357C63.6038 68.6018 60.1524 68.7234 56.7001 68.7216C53.1837 68.7216 49.7635 68.6118 46.47 68.3974C44.5192 65.5378 42.677 62.6053 40.9471 59.6059H40.9476C39.2259 56.6225 37.6177 53.5745 36.1265 50.4685C37.6139 47.3618 39.2172 44.3124 40.933 41.3267L40.9326 41.3271C42.6477 38.3407 44.4753 35.4206 46.4113 32.5734C49.7714 32.3182 53.2172 32.1853 56.6996 32.1853H56.7001C60.1984 32.1853 63.6485 32.3195 67.0078 32.5765C68.9243 35.4195 70.7402 38.3295 72.4521 41.301C74.1736 44.2801 75.7981 47.3147 77.3231 50.3999C75.8138 53.5166 74.1944 56.5783 72.468 59.5794ZM82.4253 5.48056C86.2087 7.67067 87.6802 16.5024 85.303 28.0842C85.1512 28.8231 84.9808 29.5757 84.7954 30.339C80.1072 29.2528 75.0169 28.4452 69.6874 27.9433C66.5828 23.506 63.3656 19.4717 60.1361 15.9792C60.9825 15.1604 61.849 14.3628 62.7349 13.5871C71.0768 6.30141 78.8732 3.42468 82.4253 5.48056ZM56.7001 40.2263C62.2724 40.2263 66.7898 44.7603 66.7898 50.3529C66.7898 55.9456 62.2724 60.4795 56.7001 60.4795C51.1278 60.4795 46.6104 55.9456 46.6104 50.3529C46.6104 44.7603 51.1278 40.2263 56.7001 40.2263Z" fill="#00D8FF"/>
</g>

	<g id="sass">
		<path d="M101.473 50.0766C97.4031 50.0975 93.8654 51.0694 90.9035 52.5063C89.8163 50.3721 88.7295 48.4708 88.538 47.076C88.3246 45.4493 88.0691 44.4561 88.3246 42.5122C88.5805 40.5683 89.7313 37.8001 89.7098 37.589C89.6888 37.3778 89.4539 36.3846 87.1099 36.3637C84.7659 36.3424 82.7413 36.8073 82.5069 37.42C82.2724 38.0326 81.825 39.4273 81.5266 40.8637C81.1217 42.9771 76.8386 50.5198 74.3881 54.471C73.5993 52.9291 72.9175 51.5765 72.768 50.499C72.5551 48.8722 72.2991 47.879 72.5551 45.9351C72.811 43.9912 73.9617 41.2235 73.9403 41.0119C73.9188 40.8007 73.6843 39.8075 71.3403 39.7866C68.9959 39.7653 66.9713 40.2302 66.7373 40.8429C66.5029 41.4559 66.247 42.8923 65.7571 44.2871C65.2667 45.6818 59.5769 58.275 58.0853 61.5285C57.4824 62.8453 56.8501 64.1487 56.1887 65.4376C56.1887 65.4376 56.1672 65.501 56.1032 65.6066C55.8954 66.0107 55.6824 66.4122 55.4643 66.811V66.8318C55.1444 67.4028 54.8035 67.9307 54.633 67.9307C54.5051 67.9307 54.2706 66.4095 54.6755 64.3387C55.5278 59.9652 57.5524 53.1615 57.5314 52.9291C57.5314 52.8022 57.9148 51.6191 56.2102 51.006C54.5476 50.3934 53.9512 51.4075 53.8017 51.4075C53.6527 51.4075 53.5458 51.7668 53.5458 51.7668C53.5458 51.7668 55.4003 44.118 50.0085 44.118C46.6418 44.118 41.9958 47.7734 39.6943 51.0694C37.078 52.4811 34.4639 53.8968 31.8521 55.3166C30.5953 56.0139 29.2951 56.7113 28.0804 57.3661C27.9949 57.2818 27.9099 57.1758 27.8244 57.0915C21.3034 50.1822 9.24203 45.3012 9.75342 36.0257C9.94537 32.6449 11.1171 23.7705 32.9178 12.9947C50.8609 4.22583 65.1392 6.65549 67.6111 12.0436C71.1484 19.7349 59.9608 34.0183 41.4204 36.0887C34.3455 36.8708 30.6373 34.1661 29.7 33.152C28.7197 32.0953 28.5703 32.0318 28.2079 32.2435C27.6115 32.5606 27.9949 33.5113 28.2079 34.0605C28.7622 35.4969 31.0422 38.0326 34.8994 39.2796C38.3091 40.378 46.5988 40.991 56.6361 37.1454C67.8666 32.8348 76.6467 20.8546 74.0682 10.8183C71.4893 0.633908 54.4411 -2.72556 38.3091 2.95799C28.7197 6.33921 18.32 11.6634 10.8402 18.594C1.95366 26.834 0.54699 33.997 1.12236 36.9976C3.18987 47.6465 18.0006 54.5771 23.9248 59.7114C23.6264 59.8804 23.349 60.0286 23.115 60.1555C20.1526 61.6132 8.85814 67.4658 6.04526 73.6568C2.84894 80.6716 6.55711 85.7009 9.00759 86.3765C16.6154 88.4686 24.4362 84.7076 28.6343 78.4953C32.8323 72.2834 32.321 64.2119 30.3819 60.5144C30.3604 60.4722 30.3394 60.4296 30.2964 60.3875C31.0637 59.9439 31.8521 59.479 32.6194 59.0354C34.0297 58.2088 35.4578 57.4126 36.9029 56.6474C36.1781 58.6126 35.6452 60.958 35.3898 64.3387C35.0699 68.3113 36.7105 73.4665 38.863 75.4947C39.8223 76.3828 40.9516 76.4037 41.6764 76.4037C44.1908 76.4037 45.3206 74.3329 46.5778 71.8819C48.112 68.8818 49.4972 65.3954 49.4972 65.3954C49.4972 65.3954 47.771 74.8191 52.4595 74.8191C54.1641 74.8191 55.8902 72.6214 56.6576 71.5017V71.5226C56.6576 71.5226 56.7001 71.4592 56.7855 71.3114C56.956 71.0368 57.0625 70.8674 57.0625 70.8674V70.8257C57.7443 69.6421 59.279 66.9587 61.559 62.5004C64.4998 56.7534 67.3342 49.5696 67.3342 49.5696C67.3342 49.5696 67.5901 51.3232 68.4635 54.239C68.9753 55.9505 70.0401 57.831 70.8929 59.648C70.2111 60.5991 69.7847 61.127 69.7847 61.127L69.8061 61.1483C69.2518 61.8665 68.6554 62.6481 67.9946 63.4094C65.6716 66.1558 62.9017 69.3045 62.5178 70.2126C62.0699 71.2901 62.1769 72.0722 63.0296 72.7062C63.6475 73.1711 64.7553 73.234 65.885 73.1711C67.9735 73.0229 69.4437 72.5158 70.1681 72.1991C71.2978 71.7976 72.619 71.1846 73.8548 70.276C76.1353 68.6067 77.52 66.2192 77.3925 63.0714C77.3285 61.3386 76.7531 59.6059 76.0498 57.9787C76.2632 57.6833 76.4547 57.3874 76.6681 57.0915C80.2694 51.8724 83.0612 46.1462 83.0612 46.1462C83.0612 46.1462 83.3172 47.8998 84.1905 50.8161C84.6169 52.2951 85.4907 53.901 86.2575 55.4643C82.8693 58.1903 80.7808 61.3594 80.0349 63.4302C78.6927 67.2759 79.7365 69.0082 81.7185 69.4097C82.6134 69.6 83.8921 69.1772 84.8298 68.7757C86.0231 68.3956 87.4298 67.7408 88.7725 66.7684C91.0529 65.0995 93.2475 62.775 93.1195 59.6272C93.0555 58.1903 92.6721 56.7743 92.1392 55.4009C95.0161 54.2182 98.7243 53.563 103.455 54.1122C113.599 55.2953 115.602 61.5706 115.218 64.2123C114.835 66.8531 112.704 68.29 112.001 68.7336C111.297 69.1777 111.063 69.3254 111.127 69.6421C111.212 70.107 111.553 70.0862 112.15 70.0014C112.981 69.8537 117.478 67.8672 117.669 63.0075C117.989 56.7956 112.022 50.0132 101.473 50.0766ZM23.2215 76.2346C19.8542 79.8687 15.1662 81.2421 13.1417 80.0803C10.9682 78.8333 11.8205 73.4665 15.9546 69.6213C18.469 67.2759 21.7083 65.0991 23.8608 63.7683C24.3507 63.4724 25.0755 63.0501 25.9493 62.5217C26.0983 62.437 26.1838 62.3948 26.1838 62.3948L26.6952 62.0776C28.2079 67.5713 26.7592 72.4103 23.2215 76.2346ZM47.7285 59.7114C46.5563 62.543 44.1058 69.7903 42.6142 69.3888C41.3354 69.0508 40.5466 63.5571 42.3582 58.1269C43.2745 55.4009 45.2136 52.147 46.3433 50.8796C48.1759 48.8509 50.2005 48.1744 50.6904 48.9991C51.3087 50.0766 48.4529 57.9365 47.7285 59.7114ZM67.9521 69.3041C67.4617 69.5578 66.9933 69.7269 66.7798 69.6C66.6309 69.5153 66.9933 69.1772 66.9933 69.1772C66.9933 69.1772 69.5292 66.473 70.5305 65.2473C71.1063 64.5291 71.7877 63.684 72.5126 62.7329V63.0075C72.5126 66.2405 69.3583 68.4169 67.9516 69.3041H67.9521ZM83.5511 65.7756C83.1887 65.5219 83.2527 64.6768 84.4674 62.0355C84.9363 61.0001 86.0441 59.2678 87.9412 57.5985C88.1541 58.2746 88.3036 58.9298 88.2821 59.5424C88.2606 63.6205 85.3202 65.1417 83.5511 65.7756Z" fill="#CD6799"/>
	</g>

	<g id="redux">
		<path d="M72.7792 69.5627C76.6509 69.1619 79.5882 65.8242 79.4546 61.8184C79.3214 57.8131 75.9833 54.6086 71.9779 54.6086H71.7111C67.5718 54.7422 64.3677 58.2135 64.5013 62.3525C64.6349 64.3553 65.4357 66.091 66.6374 67.2926C62.098 76.2385 55.1554 82.7807 44.7415 88.2549C37.6652 91.9934 30.3222 93.3287 22.9792 92.3943C16.971 91.593 12.298 88.923 9.3603 84.5164C5.08817 77.9742 4.68776 70.8975 8.29268 63.8213C10.8296 58.7475 14.8345 55.009 17.3714 53.1398C16.8374 51.4041 16.0361 48.4668 15.6357 46.3307C-3.72371 60.35 -1.72084 79.3094 4.15375 88.2549C8.55949 94.9311 17.505 99.0701 27.3849 99.0701C30.055 99.0701 32.7251 98.8029 35.3955 98.1357C52.4853 94.7975 65.4361 84.65 72.7792 69.5627ZM96.2775 53.0066C86.1304 41.1234 71.1771 34.5811 54.0873 34.5811H51.9513C50.7496 32.1779 48.2128 30.5754 45.4091 30.5754H45.1419C41.0033 30.709 37.7992 34.1803 37.9324 38.3197C38.066 42.325 41.4037 45.5295 45.4091 45.5295H45.6759C48.6132 45.3959 51.1501 43.5266 52.2181 40.9898H54.6214C64.7685 40.9898 74.3812 43.927 83.0599 49.6684C89.7353 54.0746 94.5419 59.816 97.2119 66.7586C99.4816 72.3664 99.348 77.8406 96.9447 82.5139C93.2066 89.5902 86.9316 93.4623 78.6537 93.4623C73.3132 93.4623 68.2398 91.8598 65.5693 90.6582C64.1009 91.9934 61.4304 94.1295 59.5611 95.4652C65.3025 98.1352 71.1771 99.6041 76.7845 99.6041C89.6017 99.6041 99.0812 92.5275 102.686 85.4512C106.558 77.707 106.291 64.3553 96.2775 53.0066ZM28.4529 71.832C28.5865 75.8377 31.9242 79.0418 35.9296 79.0418H36.1968C40.3357 78.9086 43.5398 75.4369 43.4062 71.2979C43.273 67.2922 39.9349 64.0881 35.9296 64.0881H35.6628C35.3955 64.0881 34.9947 64.0881 34.7283 64.2213C29.2542 55.1422 26.9845 45.2623 27.7857 34.5807C28.3193 26.5697 30.9898 19.6266 35.6628 13.8852C39.5345 8.94508 47.0111 6.5418 52.0849 6.40861C66.2369 6.14139 72.2447 23.7656 72.6455 30.8422C74.3812 31.2426 77.3185 32.1775 79.3214 32.8451C77.7189 11.2156 64.3677 0 51.5509 0C39.5345 0 28.4529 8.67869 24.0468 21.4963C17.9054 38.5865 21.9107 55.009 29.3874 67.9602C28.7201 68.8947 28.3193 70.3635 28.4529 71.8324V71.832Z" fill="#764ABC"/>
	</g>

	<g id="vite">
		<path d="M29.8836 6.146L16.7418 29.6457c-.2714.4851-.9684.488-1.2439.0052L2.0956 6.1482c-.3-.5262.1498-1.1635.746-1.057l13.156 2.3516a.7144.7144 0 00.2537-.0004l12.8808-2.3478c.5942-.1083 1.0463.5241.7515 1.0513z" fill="url(#paint0_linear)"/><path d="M22.2644 2.0069l-9.7253 1.9056a.3571.3571 0 00-.2879.3294l-.5982 10.1038c-.014.238.2045.4227.4367.3691l2.7077-.6248c.2534-.0585.4823.1647.4302.4194l-.8044 3.9393c-.0542.265.1947.4918.4536.4132l1.6724-.5082c.2593-.0787.5084.1487.4536.414l-1.2784 6.1877c-.08.387.4348.598.6495.2662L16.5173 25 24.442 9.1848c.1327-.2648-.096-.5667-.387-.5106l-2.787.5379c-.262.0505-.4848-.1934-.4109-.4497l1.8191-6.306c.074-.2568-.1496-.5009-.4118-.4495z" fill="url(#paint1_linear)"/><defs id="defs50"><linearGradient id="paint0_linear" x1="6.0002" y1="32.9999" x2="235" y2="344" gradientUnits="userSpaceOnUse" gradientTransform="matrix(.07142 0 0 .07142 1.3398 1.8944)"><stop stop-color="#41D1FF" id="stop38"/><stop offset="1" stop-color="#BD34FE" id="stop40"/></linearGradient><linearGradient id="paint1_linear" x1="194.651" y1="8.8182" x2="236.076" y2="292.989" gradientUnits="userSpaceOnUse" gradientTransform="matrix(.07142 0 0 .07142 1.3398 1.8944)"><stop stop-color="#FFEA83" id="stop43"/><stop offset=".0833" stop-color="#FFDD35" id="stop45"/><stop offset="1" stop-color="#FFA800" id="stop47"/></linearGradient></defs>
	</g>

	<g id="bootstrap">
		<path d="M0.399963 75.7821C0.399963 81.9781 5.48024 87 11.7468 87H77.0528C83.3204 87 88.4 81.9774 88.4 75.7821V11.2182C88.4 5.02187 83.3197 0 77.0531 0H11.7472C5.47956 0 0.399963 5.02255 0.399963 11.2179V75.7818V75.7821Z" fill="#563D7C"/>
		<path d="M36.8918 38.4832V26.1629H47.8612C48.9062 26.1629 49.9134 26.2489 50.8834 26.4212C51.8535 26.5931 52.7118 26.9003 53.4581 27.3431C54.2041 27.786 54.8012 28.4007 55.2491 29.1875C55.6966 29.9746 55.9208 30.9829 55.9208 32.2121C55.9208 34.4255 55.2491 36.0241 53.9057 37.0076C52.5627 37.9915 50.8463 38.4832 48.7567 38.4832H36.8918ZM25.1758 17.1621V69.8379H50.9955C53.3835 69.8379 55.7093 69.5429 57.9729 68.9526C60.2365 68.3623 62.2513 67.4525 64.0174 66.223C65.7833 64.9934 67.1889 63.407 68.2335 61.4645C69.2785 59.5216 69.8007 57.2222 69.8007 54.5663C69.8007 51.2709 68.9922 48.4553 67.3755 46.1192C65.7585 43.7828 63.3083 42.1474 60.0248 41.2129C62.4128 40.0819 64.2165 38.6307 65.4354 36.8601C66.654 35.0895 67.2635 32.8765 67.2635 30.2203C67.2635 27.7612 66.853 25.6956 66.0322 24.0232C65.2113 22.3512 64.0546 21.0108 62.562 20.0025C61.0698 18.9942 59.2788 18.2686 57.1892 17.8262C55.0999 17.3833 52.7864 17.1621 50.2492 17.1621H25.1758ZM36.8918 60.8371V46.3771H49.6521C52.1893 46.3771 54.2292 46.9548 55.7716 48.111C57.3136 49.2668 58.085 51.1971 58.085 53.9023C58.085 55.2797 57.8485 56.4107 57.3758 57.296C56.9032 58.1813 56.269 58.8823 55.4728 59.3986C54.6771 59.9151 53.7565 60.2839 52.7118 60.5054C51.6668 60.7263 50.5727 60.8371 49.4283 60.8371H36.8918Z" fill="white"/>
	</g>

	<g id="figma">
		<path fill-rule="evenodd" clip-rule="evenodd" d="M16 16C16 13.7909 17.7909 12 20 12C22.2091 12 24 13.7909 24 16C24 18.2091 22.2091 20 20 20C17.7909 20 16 18.2091 16 16Z" fill="#1ABCFE"/>
		<path fill-rule="evenodd" clip-rule="evenodd" d="M8 24C8 21.7909 9.79086 20 12 20H16V24C16 26.2091 14.2091 28 12 28C9.79086 28 8 26.2091 8 24Z" fill="#0ACF83"/>
		<path fill-rule="evenodd" clip-rule="evenodd" d="M16 4V12H20C22.2091 12 24 10.2091 24 8C24 5.79086 22.2091 4 20 4H16Z" fill="#FF7262"/>
		<path fill-rule="evenodd" clip-rule="evenodd" d="M8 8C8 10.2091 9.79086 12 12 12H16V4H12C9.79086 4 8 5.79086 8 8Z" fill="#F24E1E"/>
		<path fill-rule="evenodd" clip-rule="evenodd" d="M8 16C8 18.2091 9.79086 20 12 20H16V12H12C9.79086 12 8 13.7909 8 16Z" fill="#A259FF"/>
	</g>

	<g id="git">
		<path d="M103.62 47.8219L57.7758 1.98038C55.1372 -0.6598 50.8552 -0.6598 48.2134 1.98038L38.6937 11.5001L50.7699 23.5763C53.5762 22.6281 56.7943 23.2642 59.0313 25.5012C61.2789 27.7525 61.9106 30.9981 60.9393 33.8134L72.5775 45.452C75.3932 44.482 78.6421 45.1095 80.891 47.3621C84.034 50.5039 84.034 55.596 80.891 58.7399C77.7471 61.8841 72.655 61.8841 69.5095 58.7399C67.1454 56.3733 66.5613 52.9013 67.7582 49.9888L56.9046 39.1352L56.9034 67.6973C57.6902 68.0863 58.4088 68.6002 59.0313 69.2189C62.1743 72.3607 62.1743 77.4532 59.0313 80.5995C55.8874 83.7422 50.7929 83.7422 47.6535 80.5995C44.5105 77.4532 44.5105 72.3611 47.6535 69.2193C48.4067 68.4658 49.3019 67.869 50.2872 67.4635V38.6352C49.3004 38.2324 48.4048 37.6353 47.6535 36.8793C45.2722 34.5013 44.6996 31.0071 45.9198 28.0831L34.0154 16.1775L2.58106 47.6099C-0.0603455 50.2525 -0.0603455 54.5349 2.58106 57.1755L48.4259 103.018C51.0652 105.658 55.3464 105.658 57.9891 103.018L103.619 57.3884C106.26 54.747 106.26 50.4621 103.619 47.8219" fill="#DE4C36"/>
	</g>

	<g id="github">
		<path fill-rule="evenodd" clip-rule="evenodd" d="M44 0C19.69 0 0 19.69 0 44C0 63.47 12.595 79.915 30.085 85.745C32.285 86.13 33.11 84.81 33.11 83.655C33.11 82.61 33.055 79.145 33.055 75.46C22 77.495 19.14 72.765 18.26 70.29C17.765 69.025 15.62 65.12 13.75 64.075C12.21 63.25 10.01 61.215 13.695 61.16C17.16 61.105 19.635 64.35 20.46 65.67C24.42 72.325 30.745 70.455 33.275 69.3C33.66 66.44 34.815 64.515 36.08 63.415C26.29 62.315 16.06 58.52 16.06 41.69C16.06 36.905 17.765 32.945 20.57 29.865C20.13 28.765 18.59 24.255 21.01 18.205C21.01 18.205 24.695 17.05 33.11 22.715C36.63 21.725 40.37 21.23 44.11 21.23C47.85 21.23 51.59 21.725 55.11 22.715C63.525 16.995 67.21 18.205 67.21 18.205C69.63 24.255 68.09 28.765 67.65 29.865C70.455 32.945 72.16 36.85 72.16 41.69C72.16 58.575 61.875 62.315 52.085 63.415C53.68 64.79 55.055 67.43 55.055 71.555C55.055 77.44 55 82.17 55 83.655C55 84.81 55.825 86.185 58.025 85.745C66.7597 82.796 74.3497 77.1822 79.7268 69.6937C85.1039 62.2052 87.9974 53.219 88 44C88 19.69 68.31 0 44 0Z" fill="black"/>
	</g>

	<g id="webstorm">
	<path d="M63.2,178 L123.2,178 L123.2,188 L63.2,188 L63.2,178 Z M141.6,125.6 L150,115.2 C156,120 162,123.2 169.6,123.2 C175.6,123.2 179.2,120.8 179.2,116.8 C179.2,113.2 176.8,111.2 166,108.4 C152.8,104.8 144.4,101.2 144.4,88 L144.4,87.6 C144.4,75.6 154,67.6 167.2,67.6 C176.04879,67.5627811 184.649333,70.5236236 191.6,76 L184,87.2 C179.170815,83.4261245 173.316089,81.1957528 167.2,80.8 C162,80.8 158.8,83.2 158.8,86.8 C158.8,91.2 161.6,92.8 172.8,95.6 C186,99.2 193.6,104 193.6,115.6 C193.6,128.8 183.6,136.4 169.6,136.4 C159.323641,136.02223 149.468301,132.220884 141.6,125.6 Z M128.8,68.8 L118.8,107.2 L107.6,68.8 L96.4,68.8 L85.2,107.2 L75.2,68.8 L59.6,68.8 L78.8,135.2 L91.2,135.2 L102,96.8 L112.8,135.2 L125.2,135.2 L144.4,68.8 L128.8,68.8 Z" fill="#FFFFFF"/>
	</g>

	<g id="vscode">
		<path d="M101.535 17.605L81.354 7.88899C80.2143 7.33948 78.9319 7.15814 77.6845 7.37011C76.4372 7.58208 75.2867 8.17686 74.3925 9.07199L8.32998 69.3C7.52845 70.0273 7.04865 71.0432 6.99614 72.1243C6.94363 73.2053 7.32271 74.2629 8.04998 75.0645C8.13748 75.159 8.22498 75.25 8.31948 75.334L13.713 80.234C14.4178 80.8754 15.3249 81.2497 16.277 81.2919C17.229 81.3341 18.1657 81.0416 18.9245 80.465L98.497 20.125C99.098 19.6689 99.8144 19.3897 100.566 19.3186C101.317 19.2476 102.073 19.3877 102.749 19.7231C103.424 20.0585 103.993 20.5758 104.391 21.217C104.789 21.8581 105 22.5975 105 23.352V23.1175C105 21.9656 104.675 20.8372 104.062 19.862C103.449 18.8868 102.573 18.1045 101.535 17.605Z" fill="#0065A9"/>
		<path d="M101.535 94.395L81.354 104.115C80.214 104.662 78.9319 104.843 77.6849 104.631C76.4379 104.419 75.2875 103.825 74.3925 102.932L8.32998 42.7C7.52845 41.9727 7.04865 40.9568 6.99614 39.8758C6.94363 38.7947 7.32271 37.7371 8.04998 36.9355C8.13748 36.841 8.22498 36.75 8.31948 36.666L13.713 31.766C14.4185 31.1219 15.3277 30.7459 16.2821 30.7037C17.2365 30.6615 18.1754 30.9557 18.935 31.535L98.497 91.875C99.098 92.3311 99.8144 92.6104 100.566 92.6814C101.317 92.7524 102.073 92.6123 102.749 92.2769C103.424 91.9415 103.993 91.4242 104.391 90.783C104.789 90.1419 105 89.4025 105 88.648V88.9C104.996 90.0488 104.669 91.1733 104.057 92.1451C103.444 93.1168 102.57 93.8965 101.535 94.395Z" fill="#007ACC"/>
		<path d="M81.354 104.114C80.214 104.662 78.9319 104.843 77.6849 104.631C76.4379 104.419 75.2875 103.825 74.3925 102.931C74.8951 103.428 75.5329 103.764 76.2261 103.899C76.9192 104.034 77.6368 103.962 78.289 103.691C78.9411 103.42 79.4988 102.963 79.8921 102.376C80.2854 101.79 80.4969 101.1 80.5 100.394V11.606C80.5006 10.8965 80.2906 10.2028 79.8966 9.61274C79.5026 9.02271 78.9423 8.56288 78.2868 8.29152C77.6312 8.02016 76.9099 7.94946 76.2141 8.0884C75.5184 8.22734 74.8795 8.56965 74.3785 9.07197C75.2728 8.17717 76.4231 7.58235 77.6702 7.3698C78.9174 7.15724 80.1997 7.33744 81.34 7.88547L101.517 17.5875C102.559 18.0845 103.438 18.8657 104.054 19.8411C104.67 20.8165 104.998 21.9463 105 23.1V88.9C105 90.0528 104.675 91.1822 104.061 92.1581C103.447 93.134 102.571 93.9167 101.531 94.416L81.354 104.114Z" fill="#1F9CF0"/>
	</g>

	<g id="node">
		<defs>

<linearGradient id="b" x1="271.97" x2="211.104" y1="217.606" y2="341.772" gradientUnits="userSpaceOnUse">

<stop offset=".3" stop-color="#3e863d"/>

	<stop offset=".5" stop-color="#55934f"/>

	<stop offset=".8" stop-color="#5aad45"/>

</linearGradient>

			<linearGradient id="d" x1="186.484" x2="297.349" y1="321.381" y2="239.465" gradientUnits="userSpaceOnUse">

<stop offset=".57" stop-color="#3e863d"/>

				<stop offset=".72" stop-color="#619857"/>

				<stop offset="1" stop-color="#76ac64"/>

</linearGradient>

			<linearGradient id="f" x1="197.051" x2="288.72" y1="279.652" y2="279.652" gradientUnits="userSpaceOnUse">

<stop offset=".16" stop-color="#6bbf47"/>

				<stop offset=".38" stop-color="#79b461"/>

				<stop offset=".47" stop-color="#75ac64"/>

				<stop offset=".7" stop-color="#659e5a"/>

				<stop offset=".9" stop-color="#3e863d"/>

</linearGradient>

			<clipPath id="a">

<path d="m239.03 226.605-42.13 24.317a5.085 5.085 0 0 0-2.546 4.406v48.668c0 1.817.968 3.496 2.546 4.406l42.133 24.336a5.1 5.1 0 0 0 5.09 0l42.126-24.336a5.096 5.096 0 0 0 2.54-4.406v-48.668c0-1.816-.97-3.496-2.55-4.406l-42.12-24.317a5.123 5.123 0 0 0-5.1 0"/>

</clipPath>

			<clipPath id="c">

<path d="M195.398 307.086c.403.523.907.976 1.5 1.316l36.14 20.875 6.02 3.46c.9.52 1.926.74 2.934.665.336-.027.672-.09 1-.183l44.434-81.36c-.34-.37-.738-.68-1.184-.94l-27.586-15.93-14.582-8.39a5.318 5.318 0 0 0-1.32-.53zm0 0"/>

</clipPath>

			<clipPath id="e">

<path d="M241.066 225.953a5.14 5.14 0 0 0-2.035.652l-42.01 24.247 45.3 82.51c.63-.09 1.25-.3 1.81-.624l42.13-24.336a5.105 5.105 0 0 0 2.46-3.476l-46.18-78.89a5.29 5.29 0 0 0-1.03-.102l-.42.02"/>

</clipPath>

</defs>

		<g clip-path="url(#a)" transform="translate(-68.564 -79.701) scale(.35278)">

<path fill="url(#b)" d="m331.363 246.793-118.715-58.19-60.87 124.174L270.49 370.97zm0 0"/>

</g>

		<g clip-path="url(#c)" transform="translate(-68.564 -79.701) scale(.35278)">

<path fill="url(#d)" d="m144.07 264.004 83.825 113.453 110.86-81.906-83.83-113.45zm0 0"/>

</g>

		<g clip-path="url(#e)" transform="translate(-68.564 -79.701) scale(.35278)">

<path fill="url(#f)" d="M197.02 225.934v107.43h91.683v-107.43zm0 0"/>

</g>
	</g>

	<g id="npm">
		<path d="M2,10.555H30v9.335H16v1.556H9.778V19.889H2Zm1.556,7.779H6.667V13.666H8.222v4.667H9.778V12.111H3.556Zm7.778-6.223v7.779h3.111V18.334h3.111V12.111Zm3.111,1.556H16v3.112H14.444Zm4.667-1.556v6.223h3.111V13.666h1.556v4.667h1.556V13.666h1.556v4.667h1.556V12.111Z" style="fill:#cb3837"/>
	</g>

	<g id="powershell">
		<path d="M16.012 21.897c-0.004-0-0.009-0-0.014-0-0.637 0-1.153 0.516-1.153 1.154s0.516 1.154 1.153 1.154c0.005 0 0.010-0 0.015-0h5.539c0.003 0 0.007 0 0.011 0 0.637 0 1.153-0.516 1.153-1.153s-0.516-1.153-1.153-1.153c-0.004 0-0.008 0-0.011 0h0.001zM19.506 16.4c0.134-0.198 0.214-0.442 0.214-0.704 0-0.327-0.124-0.625-0.327-0.85l0.001 0.001-6.99-7.438c-0.239-0.227-0.562-0.367-0.918-0.367-0.736 0-1.333 0.597-1.333 1.333 0 0.326 0.117 0.625 0.311 0.856l-0.002-0.002 5.826 6.198v0.137l-9.272 6.716c-0.299 0.246-0.489 0.617-0.489 1.032 0 0.736 0.597 1.333 1.333 1.333 0.268 0 0.517-0.079 0.726-0.215l-0.005 0.003 10.283-7.385c0.265-0.163 0.482-0.382 0.638-0.641l0.005-0.009zM29.972 4.721c0.012-0.001 0.026-0.001 0.041-0.001 0.55 0 0.995 0.446 0.995 0.995 0 0.107-0.017 0.21-0.048 0.306l0.002-0.007-4.572 19.972c-0.187 0.724-0.817 1.256-1.577 1.293l-0.004 0h-22.781c-0.012 0.001-0.026 0.001-0.041 0.001-0.55 0-0.995-0.446-0.995-0.995 0-0.107 0.017-0.21 0.048-0.306l-0.002 0.007 4.572-19.972c0.187-0.724 0.817-1.256 1.577-1.293l0.004-0z"/>
	</g>

	<g id="yarn">
		<path d="M28.208,24.409a10.493,10.493,0,0,0-3.959,1.822,23.743,23.743,0,0,1-5.835,2.642,1.632,1.632,0,0,1-.983.55A62.228,62.228,0,0,1,10.984,30c-1.163.009-1.876-.3-2.074-.776a1.573,1.573,0,0,1,.866-2.074,3.759,3.759,0,0,1-.514-.379c-.171-.171-.352-.514-.406-.388-.225.55-.343,1.894-.947,2.5-.83.839-2.4.559-3.328.072-1.019-.541.072-1.813.072-1.813a.73.73,0,0,1-.992-.343,4.847,4.847,0,0,1-.667-2.949,5.374,5.374,0,0,1,1.749-2.895,9.334,9.334,0,0,1,.658-4.4,10.445,10.445,0,0,1,3.165-3.661S6.628,10.747,7.35,8.817c.469-1.262.658-1.253.812-1.308a3.633,3.633,0,0,0,1.452-.857,5.265,5.265,0,0,1,4.41-1.7S15.2,1.4,16.277,2.09a18.349,18.349,0,0,1,1.533,2.886s1.281-.748,1.425-.469a11.334,11.334,0,0,1,.523,6.132,14.01,14.01,0,0,1-2.6,5.411c-.135.225,1.551.938,2.615,3.887.983,2.7.108,4.96.262,5.212.027.045.036.063.036.063s1.127.09,3.391-1.308A8.5,8.5,0,0,1,27.739,22.3a1.081,1.081,0,0,1,.469,2.11Z" style="fill:#2188b6"/>
	</g>

<!-- contacts	-->

	<g id="email">
		<path d="M1920 428.266v1189.54l-464.16-580.146-88.203 70.585 468.679 585.904H83.684l468.679-585.904-88.202-70.585L0 1617.805V428.265l959.944 832.441L1920 428.266ZM1919.932 226v52.627l-959.943 832.44L.045 278.628V226h1919.887Z" fill-rule="evenodd"/>
	</g>

	<g id="discord">
		<path d="M2 11.6C2 8.23969 2 6.55953 2.65396 5.27606C3.2292 4.14708 4.14708 3.2292 5.27606 2.65396C6.55953 2 8.23969 2 11.6 2H20.4C23.7603 2 25.4405 2 26.7239 2.65396C27.8529 3.2292 28.7708 4.14708 29.346 5.27606C30 6.55953 30 8.23969 30 11.6V20.4C30 23.7603 30 25.4405 29.346 26.7239C28.7708 27.8529 27.8529 28.7708 26.7239 29.346C25.4405 30 23.7603 30 20.4 30H11.6C8.23969 30 6.55953 30 5.27606 29.346C4.14708 28.7708 3.2292 27.8529 2.65396 26.7239C2 25.4405 2 23.7603 2 20.4V11.6Z" fill="white"/>
		<path d="M23.6361 9.33998C22.212 8.71399 20.6892 8.25903 19.0973 8C18.9018 8.33209 18.6734 8.77875 18.5159 9.13408C16.8236 8.89498 15.1469 8.89498 13.4857 9.13408C13.3283 8.77875 13.0946 8.33209 12.8974 8C11.3037 8.25903 9.77927 8.71565 8.35518 9.3433C5.48276 13.4213 4.70409 17.3981 5.09342 21.3184C6.99856 22.6551 8.84487 23.467 10.66 23.9983C11.1082 23.4189 11.5079 22.8029 11.8523 22.1536C11.1964 21.9195 10.5683 21.6306 9.9748 21.2951C10.1323 21.1856 10.2863 21.071 10.4351 20.9531C14.0551 22.5438 17.9881 22.5438 21.5649 20.9531C21.7154 21.071 21.8694 21.1856 22.0251 21.2951C21.4299 21.6322 20.8 21.9211 20.1442 22.1553C20.4885 22.8029 20.8865 23.4205 21.3364 24C23.1533 23.4687 25.0013 22.6567 26.9065 21.3184C27.3633 16.7738 26.1261 12.8335 23.6361 9.33998ZM12.3454 18.9075C11.2587 18.9075 10.3676 17.9543 10.3676 16.7937C10.3676 15.6331 11.2397 14.6783 12.3454 14.6783C13.4511 14.6783 14.3422 15.6314 14.3232 16.7937C14.325 17.9543 13.4511 18.9075 12.3454 18.9075ZM19.6545 18.9075C18.5678 18.9075 17.6767 17.9543 17.6767 16.7937C17.6767 15.6331 18.5488 14.6783 19.6545 14.6783C20.7602 14.6783 21.6514 15.6314 21.6323 16.7937C21.6323 17.9543 20.7602 18.9075 19.6545 18.9075Z" fill="#5865F2"/>
	</g>

	<g id="linkedin">
		<path d="M12.6186 9.69215C12.6186 10.6267 11.8085 11.3843 10.8093 11.3843C9.81004 11.3843 9 10.6267 9 9.69215C9 8.7576 9.81004 8 10.8093 8C11.8085 8 12.6186 8.7576 12.6186 9.69215Z" fill="white"/>
		<path d="M9.24742 12.6281H12.3402V22H9.24742V12.6281Z" fill="white"/>
		<path d="M17.3196 12.6281H14.2268V22H17.3196C17.3196 22 17.3196 19.0496 17.3196 17.2049C17.3196 16.0976 17.6977 14.9855 19.2062 14.9855C20.911 14.9855 20.9008 16.4345 20.8928 17.5571C20.8824 19.0244 20.9072 20.5219 20.9072 22H24V17.0537C23.9738 13.8954 23.1508 12.4401 20.4433 12.4401C18.8354 12.4401 17.8387 13.1701 17.3196 13.8305V12.6281Z" fill="white"/>
	</g>

	<g id="phone">
		<path d="M1.02744 7.27271C0.848395 10.3893 1.41536 13.4881 2.67269 16.5692C3.93002 19.6502 5.7667 22.3988 8.18273 24.8148C10.5988 27.2308 13.3473 29.0675 16.4283 30.3248C19.5095 31.5822 22.6082 32.1318 25.7249 31.9734L25.6129 24.9352C20.9073 24.9352 16.8907 23.2715 13.5633 19.9441C10.236 16.6167 8.57225 12.6002 8.57225 7.89457L1.02744 7.27271Z" fill="url(#paint0_linear_103_1456)"/>
		<path d="M25.7298 31.9999C29.7464 31.9999 33.0025 28.7438 33.0025 24.7272C33.0025 20.7106 29.7464 17.4545 25.7298 17.4545C21.7131 17.4545 18.457 20.7106 18.457 24.7272C18.457 28.7438 21.7131 31.9999 25.7298 31.9999Z" fill="url(#paint1_radial_103_1456)"/>
		<path d="M8.27468 14.5455C12.2913 14.5455 15.5474 11.2893 15.5474 7.27273C15.5474 3.25611 12.2913 0 8.27468 0C4.25806 0 1.00195 3.25611 1.00195 7.27273C1.00195 11.2893 4.25806 14.5455 8.27468 14.5455Z" fill="url(#paint2_radial_103_1456)"/>
		<defs>
<linearGradient id="paint0_linear_103_1456" x1="13.36" y1="7.27271" x2="13.36" y2="31.9999" gradientUnits="userSpaceOnUse">
<stop stop-color="#00EE7A"/>
	<stop offset="1" stop-color="#00C853"/>
</linearGradient>
			<radialGradient id="paint1_radial_103_1456" cx="0" cy="0" r="1" gradientUnits="userSpaceOnUse" gradientTransform="translate(23.4074 20.6087) rotate(78.4769) scale(11.6255)">
<stop stop-color="#00EE7A"/>
				<stop offset="1" stop-color="#00C853"/>
</radialGradient>
			<radialGradient id="paint2_radial_103_1456" cx="0" cy="0" r="1" gradientUnits="userSpaceOnUse" gradientTransform="translate(5.95233 3.15425) rotate(78.4769) scale(11.6255)">
<stop stop-color="#00EE7A"/>
				<stop offset="1" stop-color="#00C853"/>
</radialGradient>
</defs>
	</g>

	<g id="whatsapp">
		<path fill-rule="evenodd" clip-rule="evenodd" d="M16 31C23.732 31 30 24.732 30 17C30 9.26801 23.732 3 16 3C8.26801 3 2 9.26801 2 17C2 19.5109 2.661 21.8674 3.81847 23.905L2 31L9.31486 29.3038C11.3014 30.3854 13.5789 31 16 31ZM16 28.8462C22.5425 28.8462 27.8462 23.5425 27.8462 17C27.8462 10.4576 22.5425 5.15385 16 5.15385C9.45755 5.15385 4.15385 10.4576 4.15385 17C4.15385 19.5261 4.9445 21.8675 6.29184 23.7902L5.23077 27.7692L9.27993 26.7569C11.1894 28.0746 13.5046 28.8462 16 28.8462Z" fill="#BFC8D0"/>
		<path d="M28 16C28 22.6274 22.6274 28 16 28C13.4722 28 11.1269 27.2184 9.19266 25.8837L5.09091 26.9091L6.16576 22.8784C4.80092 20.9307 4 18.5589 4 16C4 9.37258 9.37258 4 16 4C22.6274 4 28 9.37258 28 16Z" fill="url(#paint0_linear_87_7264)"/>
		<path fill-rule="evenodd" clip-rule="evenodd" d="M16 30C23.732 30 30 23.732 30 16C30 8.26801 23.732 2 16 2C8.26801 2 2 8.26801 2 16C2 18.5109 2.661 20.8674 3.81847 22.905L2 30L9.31486 28.3038C11.3014 29.3854 13.5789 30 16 30ZM16 27.8462C22.5425 27.8462 27.8462 22.5425 27.8462 16C27.8462 9.45755 22.5425 4.15385 16 4.15385C9.45755 4.15385 4.15385 9.45755 4.15385 16C4.15385 18.5261 4.9445 20.8675 6.29184 22.7902L5.23077 26.7692L9.27993 25.7569C11.1894 27.0746 13.5046 27.8462 16 27.8462Z" fill="white"/>
		<path d="M12.5 9.49989C12.1672 8.83131 11.6565 8.8905 11.1407 8.8905C10.2188 8.8905 8.78125 9.99478 8.78125 12.05C8.78125 13.7343 9.52345 15.578 12.0244 18.3361C14.438 20.9979 17.6094 22.3748 20.2422 22.3279C22.875 22.2811 23.4167 20.0154 23.4167 19.2503C23.4167 18.9112 23.2062 18.742 23.0613 18.696C22.1641 18.2654 20.5093 17.4631 20.1328 17.3124C19.7563 17.1617 19.5597 17.3656 19.4375 17.4765C19.0961 17.8018 18.4193 18.7608 18.1875 18.9765C17.9558 19.1922 17.6103 19.083 17.4665 19.0015C16.9374 18.7892 15.5029 18.1511 14.3595 17.0426C12.9453 15.6718 12.8623 15.2001 12.5959 14.7803C12.3828 14.4444 12.5392 14.2384 12.6172 14.1483C12.9219 13.7968 13.3426 13.254 13.5313 12.9843C13.7199 12.7145 13.5702 12.305 13.4803 12.05C13.0938 10.953 12.7663 10.0347 12.5 9.49989Z" fill="white"/>
	</g>

	<g id="telegram">
		<circle cx="16" cy="16" r="14" fill="url(#paint0_linear_87_7225)"/>
		<path d="M22.9866 10.2088C23.1112 9.40332 22.3454 8.76755 21.6292 9.082L7.36482 15.3448C6.85123 15.5703 6.8888 16.3483 7.42147 16.5179L10.3631 17.4547C10.9246 17.6335 11.5325 17.541 12.0228 17.2023L18.655 12.6203C18.855 12.4821 19.073 12.7665 18.9021 12.9426L14.1281 17.8646C13.665 18.3421 13.7569 19.1512 14.314 19.5005L19.659 22.8523C20.2585 23.2282 21.0297 22.8506 21.1418 22.1261L22.9866 10.2088Z" fill="white"/>
		<defs>
<linearGradient id="paint0_linear_87_7225" x1="16" y1="2" x2="16" y2="30" gradientUnits="userSpaceOnUse">
<stop stop-color="#37BBFE"/>
	<stop offset="1" stop-color="#007DBB"/>
</linearGradient>
</defs>
	</g>

	<g id="twitter">
		<path d="M11.7887 28C8.55374 28 5.53817 27.0591 3 25.4356C5.15499 25.5751 8.95807 25.2411 11.3236 22.9848C7.76508 22.8215 6.16026 20.0923 5.95094 18.926C6.25329 19.0426 7.6953 19.1826 8.50934 18.856C4.4159 17.8296 3.78793 14.2373 3.92748 13.141C4.695 13.6775 5.99745 13.8641 6.50913 13.8174C2.69479 11.0882 4.06703 6.98276 4.74151 6.09635C7.47882 9.88867 11.5812 12.0186 16.6564 12.137C16.5607 11.7174 16.5102 11.2804 16.5102 10.8316C16.5102 7.61092 19.1134 5 22.3247 5C24.0025 5 25.5144 5.71275 26.5757 6.85284C27.6969 6.59011 29.3843 5.97507 30.2092 5.4432C29.7934 6.93611 28.4989 8.18149 27.7159 8.64308C27.7224 8.65878 27.7095 8.62731 27.7159 8.64308C28.4037 8.53904 30.2648 8.18137 31 7.68256C30.6364 8.52125 29.264 9.91573 28.1377 10.6964C28.3473 19.9381 21.2765 28 11.7887 28Z" fill="#47ACDF"/>
	</g>


<!-- achievements	-->

	<g id="gold-medal">
		<path d="M9.73795 18.8436L12.9511 20.6987L6.42625 32L4.55349 27.8233L9.73795 18.8436Z" fill="#CE4444"/>
		<path d="M9.73795 18.8436L6.52483 16.9885L0 28.2898L4.55349 27.8233L9.73795 18.8436Z" fill="#983535"/>
		<path d="M14.322 18.8436L11.1088 20.6987L17.6337 32L19.5064 27.8233L14.322 18.8436Z" fill="#983535"/>
		<path d="M14.322 18.8436L17.5351 16.9885L24.0599 28.2898L19.5064 27.8233L14.322 18.8436Z" fill="#CE4444"/>
		<path d="M22.9936 11.0622C22.9936 17.1716 18.0409 22.1243 11.9314 22.1243C5.82194 22.1243 0.869249 17.1716 0.869249 11.0622C0.869249 4.9527 5.82194 0 11.9314 0C18.0409 0 22.9936 4.9527 22.9936 11.0622Z" fill="url(#paint0_linear_103_1801)"/>
		<path d="M20.5665 11.0621C20.5665 15.8311 16.7004 19.6972 11.9315 19.6972C7.16247 19.6972 3.29645 15.8311 3.29645 11.0621C3.29645 6.29315 7.16247 2.42713 11.9315 2.42713C16.7004 2.42713 20.5665 6.29315 20.5665 11.0621Z" fill="#A88300"/>
		<path d="M21.0477 11.984C21.0477 16.7641 17.1727 20.6391 12.3926 20.6391C7.61251 20.6391 3.73748 16.7641 3.73748 11.984C3.73748 7.20389 7.61251 3.32887 12.3926 3.32887C17.1727 3.32887 21.0477 7.20389 21.0477 11.984Z" fill="#C28B37"/>
		<path d="M20.5868 11.0621C20.5868 15.8422 16.7118 19.7172 11.9317 19.7172C7.15159 19.7172 3.27656 15.8422 3.27656 11.0621C3.27656 6.28205 7.15159 2.40702 11.9317 2.40702C16.7118 2.40702 20.5868 6.28205 20.5868 11.0621Z" fill="#C09525"/>
		<path d="M11.9781 5.04096L13.8451 8.77502L17.5792 9.24178L15.0151 12.117L15.7122 16.2431L11.9781 14.3761L8.24404 16.2431L8.94729 12.117L6.37701 9.24178L10.1111 8.77502L11.9781 5.04096Z" fill="url(#paint1_linear_103_1801)"/>
	</g>

	<g id="trophy">
		<path d="M5.89393 3.5979H1C1 7.393 1.29104 9.57603 6.69821 9.57603" stroke="#FFDD66" stroke-width="2"/>
		<path d="M19.8636 8.56848C19.8636 12.5379 16.6458 15.7557 12.6764 15.7557C8.70707 15.7557 5.48926 12.5379 5.48926 8.56848C5.48926 4.59911 8.70707 1.3813 12.6764 1.3813C16.6458 1.3813 19.8636 4.59911 19.8636 8.56848Z" fill="#FFDD66"/>
		<path d="M12.6764 20.7262C9.74579 20.7262 7.37002 21.5833 7.37002 22.6406H17.9829C17.9829 21.5833 15.6071 20.7262 12.6764 20.7262Z" fill="#FFDD66"/>
		<path d="M5.48926 0H19.8636V8.23263H5.48926V0Z" fill="#FFDD66"/>
		<path d="M17.9829 23.01H7.37002V22.607H17.9829V23.01Z" fill="#FFDD66"/>
		<path d="M19.6603 3.5979H24.5542C24.5542 7.393 24.2632 9.57603 18.856 9.57603" stroke="#DE9300" stroke-width="2"/>
		<path d="M19.8634 8.56843C19.8634 12.5378 16.6456 15.7556 12.6762 15.7556C12.6762 15.7556 12.6762 12.5378 12.6762 8.56843C12.6762 4.59905 12.6762 1.38124 12.6762 1.38124C16.6456 1.38124 19.8634 4.59905 19.8634 8.56843Z" fill="url(#paint1_linear_103_1804)"/>
		<path d="M12.6762 20.7262C12.6762 20.7262 12.6762 21.5833 12.6762 22.6405H17.9826C17.9826 21.5833 15.6069 20.7262 12.6762 20.7262Z" fill="url(#paint2_linear_103_1804)"/>
		<path d="M12.6762 0.000488281H19.8634V8.23258H12.6762V0.000488281Z" fill="url(#paint3_linear_103_1804)"/>
		<path d="M17.9826 23.01H12.6762C12.6762 23.01 12.6643 22.7639 12.6762 22.6069C12.8331 20.5406 17.9826 22.6069 17.9826 22.6069V23.01Z" fill="url(#paint4_linear_103_1804)"/>
		<circle cx="12.8176" cy="7.76846" r="4.30105" fill="#DCAE0C"/>
		<circle cx="12.8088" cy="7.71544" r="3.12686" fill="#DE9300" stroke="#FFE176" stroke-width="4.55437"/>
		<path d="M12.8087 4.17944L13.8984 6.35885L16.0778 6.63128L14.5812 8.30942L14.9881 10.7177L12.8087 9.62796L10.6293 10.7177L11.0397 8.30942L9.53955 6.63128L11.719 6.35885L12.8087 4.17944Z" fill="#FFF4BC"/>
		<path d="M13.2559 3.95584L12.8087 3.06141L12.3614 3.95584L11.3914 5.8959L9.47753 6.13514L8.53113 6.25344L9.16678 6.96451L10.5063 8.46298L10.1364 10.6337L9.97064 11.606L10.8529 11.1649L12.8087 10.187L14.7645 11.1649L15.6451 11.6052L15.4811 10.6344L15.1143 8.46295L16.4509 6.96406L17.0848 6.25327L16.1398 6.13514L14.2259 5.8959L13.2559 3.95584Z" stroke="#C98500" stroke-opacity="0.7"/>
		<rect x="5" y="23" width="15" height="2" fill="#DE9300"/>
		<defs>
<linearGradient id="paint0_linear_103_1804" x1="12.7075" y1="15.4102" x2="12.7075" y2="21.0057" gradientUnits="userSpaceOnUse">
<stop stop-color="#C07F00"/>
	<stop offset="1" stop-color="#DE9300"/>
</linearGradient>
			<linearGradient id="paint1_linear_103_1804" x1="19.8139" y1="7.24836" x2="12.6085" y2="7.24836" gradientUnits="userSpaceOnUse">
<stop stop-color="#DE9300"/>
				<stop offset="1" stop-color="#FFBC11"/>
</linearGradient>
			<linearGradient id="paint2_linear_103_1804" x1="19.8139" y1="7.24836" x2="12.6085" y2="7.24836" gradientUnits="userSpaceOnUse">
<stop stop-color="#DE9300"/>
				<stop offset="1" stop-color="#FFBC11"/>
</linearGradient>
			<linearGradient id="paint3_linear_103_1804" x1="19.8139" y1="7.24836" x2="12.6085" y2="7.24836" gradientUnits="userSpaceOnUse">
<stop stop-color="#DE9300"/>
				<stop offset="1" stop-color="#FFBC11"/>
</linearGradient>
			<linearGradient id="paint4_linear_103_1804" x1="19.8139" y1="7.24836" x2="12.6085" y2="7.24836" gradientUnits="userSpaceOnUse">
<stop stop-color="#DE9300"/>
				<stop offset="1" stop-color="#FFBC11"/>
</linearGradient>
</defs>
	</g>


</svg>