<svg width="1019" height="1019" viewBox="0 0 1019 1019" fill="none" xmlns="http://www.w3.org/2000/svg">
<g filter="url(#filter0_d_4537_888)">
<path d="M714.509 231.003L597.003 299.867" stroke="#B2B2B2"/>
<path d="M645.644 113.497L528.138 182.361" stroke="url(#paint0_linear_4537_888)"/>
<path d="M597.003 299.867L528.138 182.361" stroke="#B2B2B2"/>
<path d="M714.509 231.003L645.644 113.497" stroke="#B2B2B2"/>
<path d="M597.003 299.867L440.328 391.686" stroke="#B2B2B2"/>
<path d="M528.139 182.361L371.464 274.181" stroke="url(#paint1_linear_4537_888)"/>
<path d="M440.328 391.687L371.464 274.181" stroke="#B2B2B2"/>
<path d="M597.003 299.867L528.138 182.361" stroke="url(#paint2_linear_4537_888)"/>
<path d="M97.2836 434.865L214.789 366" stroke="#B2B2B2"/>
<path d="M166.148 552.371L283.654 483.506" stroke="#B2B2B2"/>
<path d="M214.789 366L283.654 483.506" stroke="#B2B2B2"/>
<path d="M97.2836 434.865L166.148 552.371" stroke="#B2B2B2"/>
<path d="M214.789 366L371.464 274.181" stroke="url(#paint3_linear_4537_888)"/>
<path d="M283.654 483.506L440.328 391.687" stroke="#B2B2B2"/>
<path d="M214.789 366L283.654 483.506" stroke="#B2B2B2"/>
<path d="M440.328 391.687L557.834 322.822" stroke="#B2B2B2"/>
<path d="M509.193 509.192L626.699 440.328" stroke="#B2B2B2"/>
<path d="M557.834 322.822L626.698 440.328" stroke="#B2B2B2"/>
<path d="M557.834 322.822L714.508 231.003" stroke="#B2B2B2"/>
<path d="M626.698 440.328L783.373 348.509" stroke="#B2B2B2"/>
<path d="M714.508 231.003L783.373 348.509" stroke="url(#paint4_linear_4537_888)"/>
<path d="M557.834 322.822L626.698 440.328" stroke="#B2B2B2"/>
<path d="M509.193 509.192L391.687 578.057" stroke="#B2B2B2"/>
<path d="M440.329 391.687L322.823 460.551" stroke="#B2B2B2"/>
<path d="M391.687 578.057L322.823 460.551" stroke="#B2B2B2"/>
<path d="M391.687 578.057L235.012 669.876" stroke="#B2B2B2"/>
<path d="M322.823 460.551L166.148 552.37" stroke="#B2B2B2"/>
<path d="M235.013 669.876L166.148 552.37" stroke="url(#paint5_linear_4537_888)"/>
<path d="M391.687 578.057L322.823 460.551" stroke="#B2B2B2"/>
<path d="M852.196 466.004L734.69 534.869" stroke="#B2B2B2"/>
<path d="M783.332 348.499L665.826 417.363" stroke="#B2B2B2"/>
<path d="M734.69 534.869L665.826 417.363" stroke="#B2B2B2"/>
<path d="M852.196 466.004L783.331 348.499" stroke="#B2B2B2"/>
<path d="M734.69 534.869L578.015 626.688" stroke="#B2B2B2"/>
<path d="M665.826 417.363L509.151 509.182" stroke="#B2B2B2"/>
<path d="M578.015 626.688L509.151 509.182" stroke="#B2B2B2"/>
<path d="M734.69 534.869L665.825 417.363" stroke="url(#paint6_linear_4537_888)"/>
<path d="M234.971 669.866L352.476 601.001" stroke="#B2B2B2"/>
<path d="M303.835 787.372L421.341 718.507" stroke="#B2B2B2"/>
<path d="M352.477 601.001L421.341 718.507" stroke="#B2B2B2"/>
<path d="M234.971 669.866L303.835 787.372" stroke="#B2B2B2"/>
<path d="M352.477 601.001L509.152 509.182" stroke="url(#paint7_linear_4537_888)"/>
<path d="M421.341 718.507L578.016 626.688" stroke="#B2B2B2"/>
<path d="M352.477 601.001L421.341 718.507" stroke="#B2B2B2"/>
<path d="M578.015 626.688L695.521 557.824" stroke="#B2B2B2"/>
<path d="M646.879 744.194L764.385 675.329" stroke="#B2B2B2"/>
<path d="M695.521 557.824L764.385 675.33" stroke="#B2B2B2"/>
<path d="M695.521 557.824L852.196 466.004" stroke="url(#paint8_linear_4537_888)"/>
<path d="M764.386 675.33L921.06 583.51" stroke="url(#paint9_linear_4537_888)"/>
<path d="M852.195 466.004L921.06 583.51" stroke="#B2B2B2"/>
<path d="M695.521 557.824L764.386 675.33" stroke="#B2B2B2"/>
<path d="M646.88 744.194L529.374 813.058" stroke="#B2B2B2"/>
<path d="M578.015 626.688L460.509 695.552" stroke="#B2B2B2"/>
<path d="M529.374 813.059L460.51 695.553" stroke="#B2B2B2"/>
<path d="M529.374 813.058L372.699 904.877" stroke="#B2B2B2"/>
<path d="M460.509 695.552L303.835 787.371" stroke="#B2B2B2"/>
<path d="M372.699 904.877L303.835 787.372" stroke="#B2B2B2"/>
<path d="M529.374 813.058L460.51 695.552" stroke="url(#paint10_linear_4537_888)"/>
</g>
<defs>
<filter id="filter0_d_4537_888" x="92.8522" y="113.066" width="832.639" height="800.243" filterUnits="userSpaceOnUse" color-interpolation-filters="sRGB">
<feFlood flood-opacity="0" result="BackgroundImageFix"/>
<feColorMatrix in="SourceAlpha" type="matrix" values="0 0 0 0 0 0 0 0 0 0 0 0 0 0 0 0 0 0 127 0" result="hardAlpha"/>
<feOffset dy="4"/>
<feGaussianBlur stdDeviation="2"/>
<feComposite in2="hardAlpha" operator="out"/>
<feColorMatrix type="matrix" values="0 0 0 0 0 0 0 0 0 0 0 0 0 0 0 0 0 0 0.25 0"/>
<feBlend mode="normal" in2="BackgroundImageFix" result="effect1_dropShadow_4537_888"/>
<feBlend mode="normal" in="SourceGraphic" in2="effect1_dropShadow_4537_888" result="shape"/>
</filter>
<linearGradient id="paint0_linear_4537_888" x1="621.653" y1="107.235" x2="562.83" y2="160.098" gradientUnits="userSpaceOnUse">
<stop stop-color="#13B0F5"/>
<stop offset="1" stop-color="#CA24B4"/>
</linearGradient>
<linearGradient id="paint1_linear_4537_888" x1="527.723" y1="183.954" x2="427.611" y2="316.567" gradientUnits="userSpaceOnUse">
<stop stop-color="#E70FAA"/>
<stop offset="1" stop-color="#13B0F5"/>
</linearGradient>
<linearGradient id="paint2_linear_4537_888" x1="603.264" y1="275.875" x2="550.402" y2="217.053" gradientUnits="userSpaceOnUse">
<stop stop-color="#13B0F5"/>
<stop offset="1" stop-color="#CA24B4"/>
</linearGradient>
<linearGradient id="paint3_linear_4537_888" x1="246.778" y1="374.349" x2="325.208" y2="303.866" gradientUnits="userSpaceOnUse">
<stop stop-color="#00C0FD"/>
<stop offset="0.421875" stop-color="#E70FAA"/>
<stop offset="1" stop-color="#00C0FD"/>
</linearGradient>
<linearGradient id="paint4_linear_4537_888" x1="708.247" y1="254.995" x2="761.109" y2="313.817" gradientUnits="userSpaceOnUse">
<stop stop-color="#13B0F5"/>
<stop offset="0.0001" stop-color="#505685"/>
<stop offset="0.317708" stop-color="#CA24B4"/>
<stop offset="1" stop-color="#13B0F5"/>
</linearGradient>
<linearGradient id="paint5_linear_4537_888" x1="235.013" y1="669.876" x2="134.428" y2="594.956" gradientUnits="userSpaceOnUse">
<stop stop-color="#8E34FF"/>
<stop offset="0.494792" stop-color="#CA24B4"/>
<stop offset="1" stop-color="#8E34FF"/>
</linearGradient>
<linearGradient id="paint6_linear_4537_888" x1="740.951" y1="510.877" x2="688.089" y2="452.055" gradientUnits="userSpaceOnUse">
<stop stop-color="#CA24B4"/>
<stop offset="0.234375" stop-color="#13B0F5"/>
</linearGradient>
<linearGradient id="paint7_linear_4537_888" x1="392.546" y1="577.856" x2="465.92" y2="479.796" gradientUnits="userSpaceOnUse">
<stop stop-color="#13B0F5"/>
<stop offset="0.75" stop-color="#CA24B4"/>
<stop offset="1" stop-color="#13B0F5"/>
</linearGradient>
<linearGradient id="paint8_linear_4537_888" x1="727.51" y1="566.173" x2="805.94" y2="495.69" gradientUnits="userSpaceOnUse">
<stop stop-color="#8643DC"/>
<stop offset="0.0001" stop-color="#8643DC"/>
<stop offset="0.317708" stop-color="#CA24B4"/>
<stop offset="1" stop-color="#8643DC"/>
</linearGradient>
<linearGradient id="paint9_linear_4537_888" x1="796.374" y1="683.679" x2="874.804" y2="613.196" gradientUnits="userSpaceOnUse">
<stop stop-color="#8643DC"/>
<stop offset="0.0001" stop-color="#8643DC"/>
<stop offset="0.317708" stop-color="#CA24B4"/>
<stop offset="1" stop-color="#8643DC"/>
</linearGradient>
<linearGradient id="paint10_linear_4537_888" x1="529.374" y1="813.058" x2="428.789" y2="738.138" gradientUnits="userSpaceOnUse">
<stop stop-color="#13B0F5"/>
<stop offset="0.0582928" stop-color="#CA24B4"/>
<stop offset="1" stop-color="#13B0F5"/>
</linearGradient>
</defs>
</svg>
